<svg width="948" height="533" viewBox="0 0 948 533" fill="none" xmlns="http://www.w3.org/2000/svg">
<path d="M473.841 532.865C735.484 532.865 947.586 413.771 947.586 266.863C947.586 119.954 735.484 0.86084 473.841 0.86084C212.199 0.86084 0.0957031 119.954 0.0957031 266.863C0.0957031 413.771 212.199 532.865 473.841 532.865Z" fill="#8C683E"/>
<path d="M473.839 509.806C712.795 509.806 906.506 401.038 906.506 266.867C906.506 132.696 712.795 23.9287 473.839 23.9287C234.884 23.9287 41.1719 132.696 41.1719 266.867C41.1719 401.038 234.884 509.806 473.839 509.806Z" fill="#FDFF8D"/>
<path d="M192.832 407.441C192.832 403.675 193.843 400.179 195.863 396.951C197.883 393.724 201.048 390.227 205.358 386.462C209.668 382.158 212.765 378.796 214.651 376.376C216.537 373.955 218.22 370.459 219.702 365.886C221.183 361.314 223.001 354.388 225.156 344.975L261.79 168.738H259.366C258.019 168.738 255.19 168.469 250.881 167.931C245.493 166.856 239.837 166.318 233.978 166.318C226.166 166.318 219.702 167.393 214.449 169.545C209.196 171.697 204.415 175.597 200.173 181.245C198.826 183.128 197.479 184.674 196.132 185.884C194.785 187.095 193.573 187.7 192.496 187.7C190.071 187.7 188.859 186.355 188.859 183.666C188.859 180.976 189.129 178.824 189.667 177.21C192.361 163.561 198.961 152.735 209.398 144.801C219.904 136.866 233.035 132.899 248.86 132.899C252.093 132.899 257.211 133.168 264.147 133.706C270.342 134.513 276.74 134.916 283.474 134.916C285.898 134.916 291.959 134.513 301.589 133.706C306.437 133.168 309.804 132.899 311.69 132.899C311.151 139.892 310.882 145.944 310.882 150.987C310.882 160.938 312.094 172.369 314.518 185.414C316.942 198.458 320.848 216.613 326.235 239.946L338.694 293.469C340.579 298.848 341.791 303.555 342.33 307.522C370.007 257.63 388.324 224.01 397.348 206.729C406.372 189.448 413.914 174.05 420.109 160.669C423.341 154.214 425.9 148.902 427.786 144.599C438.493 122.612 448.258 106.003 457.012 94.7069C465.766 83.4105 476.137 74.871 488.258 68.9539C496.339 64.9195 504.892 62.2299 514.05 60.8851C523.208 59.5403 533.781 58.8679 545.902 58.8679C552.098 58.8679 556.61 58.33 559.573 57.2541C561.458 56.7162 563.075 56.1783 564.421 55.6404C565.768 55.1024 566.846 54.8335 567.654 54.8335C569.809 54.8335 570.886 56.3128 570.886 59.2713C570.886 64.9195 567.519 70.4332 560.785 75.7452C554.051 81.1244 546.98 83.814 539.438 83.814C530.549 84.0829 523.343 84.6209 517.687 85.4277C512.03 86.2346 506.508 87.8484 501.188 90.269C490.952 95.1103 483.208 103.784 477.821 116.425C472.433 129.067 467.989 147.827 464.554 172.773C462.669 184.338 460.985 197.181 459.504 211.368C458.022 225.556 456.608 240.349 455.261 255.612C451.759 294.746 448.392 327.358 445.16 353.38C444.891 358.49 443.881 363.129 442.13 367.231C440.379 371.4 438.291 374.56 435.867 376.712V377.115C441.254 379.805 446.574 381.15 451.962 381.15C455.733 381.15 459.571 380.41 463.477 378.931C467.383 377.452 469.874 376.712 470.952 376.712C472.029 376.712 472.77 376.981 473.174 377.519C473.578 378.057 473.78 379.132 473.78 380.746C473.78 384.243 472.164 387.739 468.931 391.236C458.157 405.154 447.719 412.147 437.483 412.147C433.712 412.147 428.459 411.206 421.793 409.323C420.985 409.054 418.426 408.382 414.116 407.306C409.806 406.23 405.496 405.692 401.254 405.692C395.597 405.692 390.277 406.768 385.361 408.92C380.378 411.072 377.347 412.147 376.27 412.147C374.384 412.147 373.442 410.534 373.442 407.306C373.442 400.044 377.751 393.118 386.304 386.394L393.577 380.746C396.809 378.326 399.031 376.376 400.243 374.896C401.456 373.417 402.196 371.064 402.466 367.836L403.274 359.364C407.584 312.699 410.547 283.248 412.163 271.078C413.779 258.907 415.53 244.316 417.415 227.439H417.011C405.698 245.392 394.048 266.169 381.927 289.77C369.805 313.372 360.041 334.821 352.499 354.119C346.572 364.071 339.636 373.686 331.757 383.1C323.811 392.513 318.424 397.153 315.461 397.153C314.653 397.153 314.047 396.682 313.643 395.741C313.239 394.799 313.037 393.522 313.037 391.908C310.882 372.61 309.198 358.423 307.986 349.48C306.774 340.469 304.148 326.887 300.107 308.665C298.221 300.596 295.46 288.829 291.824 273.229C288.188 257.697 285.561 245.594 283.945 236.987L283.541 236.584L258.962 358.49C258.692 359.297 257.817 362.188 256.335 367.164C254.854 372.14 253.036 375.569 250.881 377.451V378.258C255.999 380.141 260.847 381.082 265.359 381.082C269.399 381.082 272.969 380.343 276.066 378.864C279.164 377.384 281.252 376.645 282.329 376.645C284.484 376.645 285.561 377.989 285.561 380.679C285.561 383.1 283.945 386.596 280.713 391.168C274.787 399.237 269.669 404.684 265.426 407.642C261.116 410.601 256.268 412.08 250.948 412.08C247.177 412.08 242.598 411.004 237.278 408.853C230.813 406.701 225.426 405.625 221.183 405.625C214.988 405.625 209.331 406.701 204.28 408.853C199.163 411.004 196.2 412.08 195.391 412.08C193.775 412.08 192.967 410.466 192.967 407.239L192.832 407.441Z" fill="#8C683E"/>
<path d="M567.521 55.0303C569.676 55.0303 570.753 56.5096 570.753 59.4681C570.753 65.1163 567.386 70.63 560.652 75.942C553.918 81.3212 546.847 84.0108 539.305 84.0108C530.416 84.2797 523.21 84.8176 517.554 85.6245C511.897 86.4314 506.375 88.0452 501.055 90.4658C490.819 95.3071 483.075 103.981 477.688 116.622C472.301 129.263 467.856 148.023 464.422 172.969C462.536 184.535 460.853 197.378 459.371 211.565C457.889 225.753 456.475 240.546 455.128 255.809C451.627 294.943 448.26 327.554 445.027 353.576C444.758 358.687 443.748 363.326 441.997 367.428C440.246 371.597 438.159 374.757 435.734 376.909V377.312C441.122 380.002 446.441 381.347 451.829 381.347C455.6 381.347 459.438 380.607 463.344 379.128C467.25 377.648 469.742 376.909 470.819 376.909C471.896 376.909 472.637 377.178 473.041 377.716C473.445 378.253 473.647 379.329 473.647 380.943C473.647 384.44 472.031 387.936 468.799 391.433C458.024 405.351 447.586 412.344 437.35 412.344C433.579 412.344 428.327 411.403 421.66 409.52C420.852 409.251 418.293 408.579 413.983 407.503C409.673 406.427 405.363 405.889 401.121 405.889C395.464 405.889 390.144 406.965 385.228 409.117C380.245 411.268 377.215 412.344 376.137 412.344C374.252 412.344 373.309 410.73 373.309 407.503C373.309 400.241 377.619 393.315 386.171 386.591L393.444 380.943C396.676 378.522 398.899 376.572 400.111 375.093C401.323 373.614 402.064 371.261 402.333 368.033L403.141 359.561C407.451 312.896 410.414 283.445 412.03 271.274C413.646 259.104 415.397 244.513 417.283 227.636H416.879C405.565 245.589 393.915 266.366 381.794 289.967C369.672 313.568 359.908 335.018 352.366 354.316C346.44 364.268 339.504 373.883 331.625 383.297C323.678 392.71 318.291 397.35 315.328 397.35C314.52 397.35 313.914 396.879 313.51 395.938C313.106 394.996 312.904 393.719 312.904 392.105C310.749 372.807 309.065 358.619 307.853 349.676C306.641 340.666 304.015 327.084 299.974 308.862C298.089 300.793 295.328 289.026 291.691 273.426C288.055 257.894 285.429 245.79 283.812 237.184L283.408 236.78L258.829 358.687C258.56 359.493 257.684 362.385 256.203 367.361C254.721 372.336 252.903 375.766 250.748 377.648V378.455C255.866 380.338 260.714 381.279 265.226 381.279C269.267 381.279 272.836 380.54 275.934 379.06C279.031 377.581 281.119 376.841 282.196 376.841C284.351 376.841 285.429 378.186 285.429 380.876C285.429 383.297 283.812 386.793 280.58 391.365C274.654 399.434 269.536 404.881 265.294 407.839C260.984 410.798 256.135 412.277 250.815 412.277C247.044 412.277 242.465 411.201 237.145 409.049C230.68 406.898 225.293 405.822 221.05 405.822C214.855 405.822 209.198 406.898 204.148 409.049C199.03 411.201 196.067 412.277 195.259 412.277C193.643 412.277 192.834 410.663 192.834 407.436C192.834 403.67 193.845 400.174 195.865 396.946C197.885 393.719 201.05 390.222 205.36 386.457C209.67 382.153 212.767 378.791 214.653 376.371C216.539 373.95 218.222 370.454 219.704 365.881C221.185 361.309 223.003 354.383 225.158 344.97L261.792 168.733H259.368C258.021 168.733 255.192 168.464 250.883 167.926C245.495 166.851 239.839 166.313 233.98 166.313C226.168 166.313 219.704 167.388 214.451 169.54C209.198 171.692 204.417 175.592 200.175 181.24C198.828 183.123 197.481 184.669 196.134 185.88C194.787 187.09 193.575 187.695 192.498 187.695C190.073 187.695 188.861 186.35 188.861 183.661C188.861 180.971 189.131 178.819 189.669 177.206C192.363 163.556 198.963 152.73 209.4 144.796C219.906 136.862 233.037 132.894 248.862 132.894C252.095 132.894 257.213 133.163 264.149 133.701C270.344 134.508 276.742 134.912 283.476 134.912C285.9 134.912 291.961 134.508 301.591 133.701C306.439 133.163 309.806 132.894 311.692 132.894C311.153 139.887 310.884 145.939 310.884 150.982C310.884 160.933 312.096 172.364 314.52 185.409C316.944 198.453 320.85 216.608 326.237 239.941L338.696 293.464C340.581 298.843 341.793 303.55 342.332 307.517C370.009 257.625 388.326 224.005 397.35 206.724C406.373 189.443 413.916 174.045 420.111 160.664C423.343 154.209 425.902 148.897 427.788 144.594C438.495 122.607 448.26 105.998 457.014 94.7019C465.768 83.4056 476.139 74.8661 488.26 68.949C496.341 64.9146 504.894 62.225 514.052 60.8802C523.21 59.5354 533.783 58.863 545.904 58.863C552.1 58.863 556.612 58.3251 559.575 57.2492C561.46 56.7113 563.076 56.1734 564.423 55.6354C565.77 55.0975 566.848 54.8286 567.656 54.8286M567.521 36.2703C564.289 36.2703 560.922 36.9427 557.352 38.422C556.814 38.6237 555.871 38.9599 554.322 39.4306L553.649 39.6323L553.11 39.834C553.11 39.834 550.82 40.3719 545.702 40.3719C532.773 40.3719 521.123 41.1116 511.156 42.5909C500.112 44.2046 489.54 47.4994 479.775 52.4079C465.162 59.5354 452.435 70.0248 441.997 83.4728C432.367 95.845 422.199 113.26 410.751 136.593L410.549 136.929L410.414 137.265C408.663 141.299 406.239 146.41 403.141 152.461L403.006 152.73L402.872 152.999C396.878 166.044 389.336 181.307 380.514 198.252C374.454 209.884 363.948 229.317 349.133 256.213L344.352 235.772C339.1 212.977 335.194 194.89 332.837 182.114C330.615 170.28 329.537 159.858 329.537 151.116C329.537 146.477 329.807 140.896 330.278 134.441L331.827 114.202H311.49C308.863 114.202 305.227 114.471 299.638 115.076C287.112 116.084 283.947 116.219 283.341 116.219C277.482 116.219 271.758 115.883 266.438 115.143H265.967L265.496 115.008C257.953 114.403 252.431 114.134 248.728 114.134C228.795 114.134 211.69 119.379 197.885 129.801C183.878 140.358 174.922 154.747 171.218 172.566C170.343 175.794 169.871 179.424 169.871 183.593C169.871 196.571 179.501 206.388 192.296 206.388C196.336 206.388 202.397 205.245 208.458 199.798C210.815 197.714 212.902 195.293 214.99 192.402C216.539 190.452 218.828 187.964 221.32 186.888C223.34 186.081 227.111 185.073 233.711 185.073C235.461 185.073 237.212 185.073 238.896 185.274L206.505 340.935C204.484 349.676 202.801 356.131 201.521 360.099C200.377 363.595 199.501 364.805 199.501 364.805C198.76 365.747 196.808 368.1 192.228 372.673C186.706 377.514 182.666 382.153 179.703 386.86C175.797 393.114 173.844 399.972 173.844 407.301C173.844 419.001 181.117 430.902 195.057 430.902C199.299 430.902 203.003 429.692 211.219 426.196C214.047 425.053 217.145 424.447 220.848 424.447C221.859 424.447 224.754 424.649 230.546 426.532C238.02 429.423 244.552 430.835 250.681 430.835C259.906 430.835 268.391 428.213 275.866 423.103C282.062 418.867 288.324 412.21 295.664 402.258C295.664 402.258 295.934 402.863 296.069 403.132C299.436 411.067 306.776 415.908 315.193 415.908C326.17 415.908 335.059 407.974 345.901 395.131C354.453 384.977 362.063 374.421 368.46 363.662L369.268 362.318L369.807 360.838C374.723 348.13 380.851 334.278 387.922 319.418C386.845 330.58 385.632 343.289 384.353 357.544L383.679 364.335C383.275 364.671 382.737 365.074 382.131 365.545H381.996L381.861 365.747L374.588 371.395C361.187 381.817 354.453 393.853 354.453 407.099C354.453 422.565 365.295 430.701 376.07 430.701C380.245 430.701 384.218 429.558 392.569 425.927C395.195 424.784 397.956 424.246 401.053 424.246C403.814 424.246 406.576 424.582 409.404 425.322C414.185 426.532 415.599 426.935 415.869 427.003H416.138L416.542 427.204C424.96 429.558 431.761 430.701 437.35 430.701C453.445 430.701 468.866 421.422 483.21 403.065C490.819 394.526 492.436 386.121 492.436 380.54C492.436 378.388 492.436 371.866 488.058 366.083C484.085 360.771 477.822 357.745 470.819 357.745C468.529 357.745 466.307 358.081 463.411 358.888C463.546 357.544 463.681 356.199 463.815 354.854C467.048 328.899 470.415 296.019 473.849 257.087C475.196 242.092 476.61 227.299 478.024 213.112C479.439 199.395 481.122 186.754 482.94 175.592V175.39V175.188C486.173 151.991 490.213 134.643 494.927 123.615C498.429 115.345 503.008 109.965 508.867 107.141C512.571 105.528 516.342 104.385 520.18 103.847C525.029 103.174 531.561 102.704 539.574 102.435C551.292 102.367 562.336 98.2657 572.37 90.2641C586.511 78.9678 589.474 67.0663 589.474 59.1319C589.474 47.9028 581.73 35.9341 567.454 35.9341L567.521 36.2703ZM278.156 358.485L284.621 326.546C286.91 337.506 288.459 346.113 289.267 352.232C289.536 354.316 289.873 356.804 290.21 359.494C287.786 358.552 285.092 358.081 282.331 358.081C280.984 358.081 279.637 358.216 278.156 358.485Z" fill="#402B0B"/>
<path d="M524.026 407.845C519.716 402.197 517.561 393.254 517.561 380.882C517.561 373.082 518.639 362.794 520.794 349.884L537.292 255.748H504.632C501.669 255.748 499.581 255.412 498.369 254.739C497.157 254.067 496.551 253.058 496.551 251.714C496.551 249.293 498.302 245.931 501.803 241.628C505.305 237.324 509.278 233.424 513.723 229.928C518.167 226.431 521.871 224.683 524.834 224.683H543.353L546.585 203.771C548.471 193.82 554.06 185.011 563.286 177.212C572.579 169.412 581.603 165.512 590.492 165.512C592.647 165.512 594.398 165.915 595.744 166.722C597.091 167.529 597.765 168.739 597.765 170.353C597.765 171.429 596.418 174.32 593.724 179.027C591.031 183.734 589.01 190.256 587.663 198.527L583.219 224.683H617.496C620.728 224.683 622.883 224.885 623.96 225.288C625.038 225.692 625.577 226.566 625.577 227.911C625.577 230.6 623.691 234.164 619.92 238.602C616.149 243.04 611.839 247.007 607.058 250.503C602.209 254 598.573 255.748 596.148 255.748H578.034L561.939 351.498C560.054 360.911 559.111 368.106 559.111 373.216C559.111 376.982 559.717 379.604 560.929 381.083C562.141 382.563 563.959 383.302 566.384 383.302C575.273 383.302 583.556 376.04 591.367 361.584C592.175 359.701 592.983 358.289 593.791 357.348C594.6 356.406 595.542 355.936 596.62 355.936C599.314 355.936 600.66 358.222 600.66 362.794C600.66 369.787 597.967 377.453 592.579 385.925C587.192 394.397 580.121 401.524 571.434 407.442C562.68 413.359 553.521 416.317 543.824 416.317C534.935 416.317 528.403 413.493 524.093 407.845H524.026Z" fill="#8C683E"/>
<path d="M590.494 165.64C592.649 165.64 594.4 166.044 595.746 166.851C597.093 167.658 597.767 168.868 597.767 170.482C597.767 171.558 596.42 174.449 593.726 179.156C591.033 183.862 589.012 190.385 587.666 198.655L583.221 224.812H617.498C620.73 224.812 622.885 225.013 623.962 225.417C625.04 225.82 625.579 226.694 625.579 228.039C625.579 230.729 623.693 234.293 619.922 238.73C616.151 243.168 611.841 247.135 607.06 250.632C602.211 254.128 598.575 255.877 596.15 255.877H578.036L561.941 351.626C560.056 361.04 559.113 368.235 559.113 373.345C559.113 377.11 559.719 379.733 560.931 381.212C562.143 382.691 563.961 383.431 566.386 383.431C575.275 383.431 583.558 376.169 591.369 361.712C592.177 359.83 592.985 358.418 593.794 357.476C594.602 356.535 595.544 356.064 596.622 356.064C599.316 356.064 600.662 358.35 600.662 362.923C600.662 369.916 597.969 377.581 592.581 386.053C587.194 394.526 580.123 401.653 571.436 407.57C562.682 413.487 553.524 416.446 543.826 416.446C534.937 416.446 528.405 413.622 524.095 407.974C519.786 402.326 517.631 393.383 517.631 381.01C517.631 373.211 518.708 362.923 520.863 350.013L537.362 255.877H504.701C501.738 255.877 499.651 255.54 498.438 254.868C497.226 254.196 496.62 253.187 496.62 251.842C496.62 249.422 498.371 246.06 501.873 241.756C505.375 237.453 509.348 233.553 513.792 230.056C518.237 226.56 521.94 224.812 524.904 224.812H543.422L546.655 203.9C548.54 193.948 554.13 185.14 563.355 177.34C572.648 169.54 581.672 165.64 590.561 165.64M590.494 146.88C577.093 146.88 563.894 152.26 551.234 162.951C538.574 173.575 530.83 186.149 528.136 200.403V200.74L528.001 201.076L527.26 206.052H524.836C517.496 206.052 510.021 209.077 502.142 215.331C496.62 219.701 491.637 224.543 487.26 229.922C483.219 234.898 477.832 242.563 477.832 251.842C477.832 260.045 482.142 267.307 489.347 271.275C493.388 273.561 498.304 274.637 504.701 274.637H514.937L502.277 346.785V346.92C499.92 360.906 498.775 372.067 498.775 381.01C498.775 397.753 502.142 410.26 509.078 419.337C514.6 426.532 525.106 435.206 543.759 435.206C557.227 435.206 570.022 431.172 581.874 423.103C592.716 415.774 601.605 406.696 608.339 396.072C615.612 384.574 619.316 373.412 619.316 362.856C619.316 345.239 607.464 337.237 596.487 337.237C591.302 337.237 586.453 338.985 582.48 342.213L593.861 274.637H596.083C602.817 274.637 609.551 271.947 617.969 265.828C623.962 261.525 629.417 256.482 634.198 250.901C638.575 245.791 644.299 237.856 644.299 228.106C644.299 219.029 638.912 211.095 630.562 207.934C627.06 206.657 623.289 206.119 617.498 206.119H605.511L606.252 201.883V201.748C607.531 193.814 609.215 190.116 610.023 188.569C614.333 181.038 616.555 176.197 616.555 170.616C616.555 162.48 612.38 155.084 605.444 150.915C601.134 148.36 596.083 147.015 590.494 147.015V146.88Z" fill="#402B0B"/>
<path d="M657.346 407.845C653.036 402.197 650.882 393.254 650.882 380.882C650.882 373.082 651.959 362.794 654.114 349.884L670.613 255.748H637.952C634.989 255.748 632.901 255.412 631.689 254.739C630.477 254.067 629.871 253.058 629.871 251.714C629.871 249.293 631.622 245.931 635.124 241.628C638.625 237.324 642.599 233.424 647.043 229.928C651.488 226.431 655.191 224.683 658.154 224.683H676.673L679.906 203.771C681.791 193.82 687.381 185.011 696.606 177.212C705.899 169.412 714.923 165.512 723.812 165.512C725.967 165.512 727.718 165.915 729.065 166.722C730.412 167.529 731.085 168.739 731.085 170.353C731.085 171.429 729.738 174.32 727.045 179.027C724.351 183.734 722.331 190.256 720.984 198.527L716.539 224.683H750.816C754.048 224.683 756.203 224.885 757.281 225.288C758.358 225.692 758.897 226.566 758.897 227.911C758.897 230.6 757.011 234.164 753.24 238.602C749.469 243.04 745.159 247.007 740.378 250.503C735.529 254 731.893 255.748 729.469 255.748H711.354L695.259 351.498C693.374 360.911 692.431 368.106 692.431 373.216C692.431 376.982 693.037 379.604 694.249 381.083C695.462 382.563 697.28 383.302 699.704 383.302C708.593 383.302 716.876 376.04 724.688 361.584C725.496 359.701 726.304 358.289 727.112 357.348C727.92 356.406 728.863 355.936 729.94 355.936C732.634 355.936 733.981 358.222 733.981 362.794C733.981 369.787 731.287 377.453 725.9 385.925C720.512 394.397 713.442 401.524 704.755 407.442C696 413.359 686.842 416.317 677.145 416.317C668.256 416.317 661.724 413.493 657.414 407.845H657.346Z" fill="#8C683E"/>
<path d="M723.881 165.64C726.035 165.64 727.786 166.044 729.133 166.851C730.48 167.658 731.153 168.868 731.153 170.482C731.153 171.558 729.807 174.449 727.113 179.156C724.419 183.862 722.399 190.385 721.052 198.655L716.608 224.812H750.884C754.117 224.812 756.272 225.013 757.349 225.417C758.427 225.82 758.965 226.694 758.965 228.039C758.965 230.729 757.08 234.293 753.309 238.73C749.538 243.168 745.228 247.135 740.447 250.632C735.598 254.128 731.961 255.877 729.537 255.877H711.422L695.328 351.626C693.442 361.04 692.5 368.235 692.5 373.345C692.5 377.11 693.106 379.733 694.318 381.212C695.53 382.691 697.348 383.431 699.772 383.431C708.661 383.431 716.944 376.169 724.756 361.712C725.564 359.83 726.372 358.418 727.18 357.476C727.988 356.535 728.931 356.064 730.009 356.064C732.702 356.064 734.049 358.35 734.049 362.923C734.049 369.916 731.355 377.581 725.968 386.053C720.581 394.526 713.51 401.653 704.823 407.57C696.069 413.487 686.91 416.446 677.213 416.446C668.324 416.446 661.792 413.622 657.482 407.974C653.172 402.326 651.017 393.383 651.017 381.01C651.017 373.211 652.095 362.923 654.25 350.013L670.748 255.877H638.088C635.125 255.877 633.037 255.54 631.825 254.868C630.613 254.196 630.007 253.187 630.007 251.842C630.007 249.422 631.758 246.06 635.26 241.756C638.761 237.453 642.734 233.553 647.179 230.056C651.623 226.56 655.327 224.812 658.29 224.812H676.809L680.041 203.9C681.927 193.948 687.516 185.14 696.742 177.34C706.035 169.54 715.059 165.64 723.948 165.64M723.881 146.88C710.48 146.88 697.281 152.26 684.621 162.951C671.96 173.575 664.216 186.149 661.523 200.403V200.74L661.388 201.076L660.647 206.052H658.223C650.883 206.052 643.408 209.077 635.529 215.331C630.007 219.701 625.024 224.543 620.646 229.922C616.606 234.898 611.219 242.563 611.219 251.842C611.219 260.045 615.529 267.307 622.734 271.275C626.775 273.561 631.69 274.637 638.088 274.637H648.324L635.664 346.785V346.92C633.307 360.906 632.162 372.067 632.162 381.01C632.162 397.753 635.529 410.26 642.465 419.337C647.987 426.532 658.492 435.206 677.146 435.206C690.614 435.206 703.409 431.172 715.261 423.103C726.103 415.774 734.992 406.696 741.726 396.072C748.999 384.574 752.703 373.412 752.703 362.856C752.703 345.239 740.851 337.237 729.874 337.237C724.689 337.237 719.84 338.985 715.867 342.213L727.248 274.637H729.47C736.204 274.637 742.938 271.947 751.356 265.828C757.349 261.525 762.804 256.482 767.585 250.901C771.962 245.791 777.686 237.856 777.686 228.106C777.686 219.029 772.299 211.095 763.949 207.934C760.447 206.657 756.676 206.119 750.884 206.119H738.898L739.638 201.883V201.748C740.918 193.814 742.601 190.116 743.477 188.569C747.787 181.038 750.009 176.197 750.009 170.616C750.009 162.48 745.834 155.084 738.898 150.915C734.588 148.36 729.537 147.015 723.948 147.015L723.881 146.88Z" fill="#402B0B"/>
</svg>
