<svg width="138" height="54" viewBox="0 0 138 54" fill="none" xmlns="http://www.w3.org/2000/svg">
<path d="M24.41 38.112C24.218 38.112 24.09 38.08 24.026 38.016C23.962 37.952 23.93 37.808 23.93 37.584C23.93 36.72 24.426 35.936 25.418 35.232C26.41 34.528 27.434 34.176 28.49 34.176H38.186C38.634 34.176 39.098 34.144 39.578 34.08C40.058 33.984 40.378 33.936 40.538 33.936C40.858 33.936 41.018 34.144 41.018 34.56C41.018 35.392 40.506 36.16 39.482 36.864C38.49 37.536 37.45 37.872 36.362 37.872H26.714C26.01 37.872 25.482 37.92 25.13 38.016C24.778 38.08 24.538 38.112 24.41 38.112Z" fill="white"/>
<path d="M11.0034 48.48C9.33939 48.48 8.02738 47.92 7.06738 46.8C6.13938 45.648 5.67538 44.048 5.67538 42C5.67538 39.6 6.28339 37.088 7.49939 34.464C8.74739 31.808 10.3154 29.6 12.2034 27.84C14.1234 26.048 16.0434 25.152 17.9634 25.152C19.0194 25.152 19.8514 25.456 20.4594 26.064C21.0994 26.672 21.4194 27.552 21.4194 28.704C21.4194 30.144 20.9554 31.632 20.0274 33.168C19.0994 34.672 17.8194 36.08 16.1874 37.392C14.5874 38.672 12.7794 39.712 10.7634 40.512C10.8594 42.72 11.8354 43.824 13.6914 43.824C14.7154 43.824 15.6754 43.504 16.5714 42.864C17.4994 42.224 18.3154 41.36 19.0194 40.272C19.1794 39.984 19.3234 39.776 19.4514 39.648C19.5794 39.488 19.7074 39.408 19.8354 39.408C20.0274 39.408 20.1554 39.472 20.2194 39.6C20.2834 39.728 20.3154 39.952 20.3154 40.272C20.3154 41.296 19.8514 42.464 18.9234 43.776C18.0274 45.088 16.8594 46.208 15.4194 47.136C13.9794 48.032 12.5074 48.48 11.0034 48.48ZM11.9634 36.576C12.6674 36.576 13.3874 36.336 14.1234 35.856C14.8594 35.344 15.4674 34.688 15.9474 33.888C16.4274 33.088 16.6674 32.224 16.6674 31.296C16.6674 30.144 16.2034 29.568 15.2754 29.568C14.2834 29.568 13.3874 30.192 12.5874 31.44C11.7874 32.688 11.2754 34.352 11.0514 36.432C11.2434 36.528 11.5474 36.576 11.9634 36.576Z" fill="white"/>
<path d="M116.279 48.48C114.551 48.48 113.687 47.216 113.687 44.688C113.687 43.92 113.751 43.152 113.879 42.384L116.759 24.768C117.431 20.448 118.247 16.992 119.207 14.4C120.199 11.808 121.511 9.87199 123.143 8.59199C124.103 7.85599 125.047 7.35999 125.975 7.10399C126.935 6.84799 128.183 6.60799 129.719 6.38399C130.711 6.22399 131.351 6.11199 131.639 6.04799C131.959 5.95199 132.167 5.90399 132.263 5.90399C132.583 5.90399 132.743 6.07999 132.743 6.43199C132.743 6.71999 132.615 7.07199 132.359 7.48799C132.135 7.87199 131.847 8.23999 131.495 8.59199C131.143 8.91199 130.791 9.11999 130.439 9.21599C130.119 9.27999 129.703 9.31199 129.191 9.31199C127.783 9.31199 126.615 9.79199 125.687 10.752C124.887 11.552 124.199 12.752 123.623 14.352C123.079 15.92 122.583 18.128 122.135 20.976L118.775 42.144C118.743 42.368 118.727 42.64 118.727 42.96C118.727 43.344 118.775 43.616 118.871 43.776C118.967 43.904 119.111 43.968 119.303 43.968C119.783 43.968 120.231 43.632 120.647 42.96C121.063 42.288 121.527 41.376 122.039 40.224C122.103 40.032 122.183 39.872 122.279 39.744C122.375 39.616 122.487 39.552 122.615 39.552C122.903 39.552 123.047 39.824 123.047 40.368C123.047 41.456 122.695 42.64 121.991 43.92C121.287 45.2 120.407 46.288 119.351 47.184C118.295 48.048 117.271 48.48 116.279 48.48Z" fill="white"/>
<path d="M105.44 23.52C105.216 23.52 105.072 23.488 105.008 23.424C104.944 23.328 104.928 23.168 104.96 22.944L105.632 19.152C105.824 18.128 106.272 17.312 106.976 16.704C107.68 16.064 108.688 15.744 110 15.744H110.384C110.736 15.744 110.896 15.92 110.864 16.272L110.192 20.064C109.808 22.368 108.336 23.52 105.776 23.52H105.44ZM103.424 48.48C101.856 48.48 101.072 47.424 101.072 45.312C101.072 44.736 101.152 43.968 101.312 43.008L103.616 31.392C103.68 30.816 103.712 30.464 103.712 30.336C103.712 29.888 103.568 29.664 103.28 29.664C102.992 29.664 102.656 29.904 102.272 30.384C101.888 30.832 101.392 31.584 100.784 32.64C100.752 32.704 100.672 32.848 100.544 33.072C100.448 33.264 100.352 33.408 100.256 33.504C100.16 33.6 100.064 33.648 99.968 33.648C99.68 33.648 99.536 33.392 99.536 32.88C99.536 31.984 99.92 30.928 100.688 29.712C101.456 28.464 102.416 27.392 103.568 26.496C104.72 25.6 105.84 25.152 106.928 25.152C108.272 25.152 108.944 26.048 108.944 27.84C108.944 28.352 108.832 29.232 108.608 30.48L106.208 42.864C106.144 43.12 106.112 43.296 106.112 43.392C106.112 43.776 106.288 43.968 106.64 43.968C107.056 43.968 107.52 43.632 108.032 42.96C108.576 42.288 109.088 41.376 109.568 40.224C109.728 39.776 109.92 39.552 110.144 39.552C110.432 39.552 110.576 39.824 110.576 40.368C110.576 41.488 110.208 42.688 109.472 43.968C108.736 45.216 107.808 46.288 106.688 47.184C105.6 48.048 104.512 48.48 103.424 48.48Z" fill="white"/>
<path d="M80.0465 48.48C79.0545 48.48 78.2705 47.984 77.6945 46.992C77.1505 46 76.8785 44.672 76.8785 43.008C76.8785 40.352 77.5185 37.632 78.7985 34.848C80.1105 32.064 81.8865 29.76 84.1265 27.936C86.3665 26.08 88.7825 25.152 91.3745 25.152C92.2065 25.152 93.0225 25.248 93.8225 25.44C94.6545 25.632 95.3265 25.872 95.8385 26.16C95.5505 26.864 95.3585 27.44 95.2625 27.888C95.1665 28.336 95.1025 28.624 95.0705 28.752C94.8465 29.904 94.5105 31.664 94.0625 34.032C93.6465 36.368 93.2465 38.608 92.8625 40.752C92.6705 41.712 92.5745 42.448 92.5745 42.96C92.5745 43.312 92.6225 43.568 92.7185 43.728C92.8465 43.888 93.0225 43.968 93.2465 43.968C93.7905 43.968 94.2865 43.648 94.7345 43.008C95.1825 42.336 95.6625 41.408 96.1745 40.224C96.2385 40.032 96.3185 39.872 96.4145 39.744C96.5105 39.616 96.6385 39.552 96.7985 39.552C97.0865 39.552 97.2305 39.776 97.2305 40.224C97.2305 40.448 97.2145 40.624 97.1825 40.752C97.0225 41.968 96.6065 43.184 95.9345 44.4C95.2625 45.584 94.4305 46.56 93.4385 47.328C92.4785 48.096 91.4865 48.48 90.4625 48.48C89.6305 48.48 88.9745 48.176 88.4945 47.568C88.0465 46.96 87.8225 46.144 87.8225 45.12C87.8225 44.864 87.8545 44.48 87.9185 43.968L88.1585 42.336H88.0625C86.8785 44.128 85.5185 45.6 83.9825 46.752C82.4785 47.904 81.1665 48.48 80.0465 48.48ZM82.7825 43.728C83.4865 43.728 84.3825 43.104 85.4705 41.856C86.5905 40.608 87.6305 39.04 88.5905 37.152C89.5505 35.232 90.1905 33.328 90.5105 31.44L90.8465 29.568C90.0465 29.088 89.3105 28.848 88.6385 28.848C87.6145 28.848 86.5745 29.488 85.5185 30.768C84.4945 32.016 83.6465 33.648 82.9745 35.664C82.3345 37.648 82.0145 39.68 82.0145 41.76C82.0145 42.528 82.0625 43.056 82.1585 43.344C82.2865 43.6 82.4945 43.728 82.7825 43.728Z" fill="white"/>
<path d="M45.7205 48.48C45.2085 48.48 44.9525 48.32 44.9525 48C44.9525 47.84 45.0325 47.52 45.1925 47.04C45.5445 46.016 45.7685 45.184 45.8645 44.544C46.1205 43.328 46.4725 41.456 46.9205 38.928C47.4005 36.4 47.7525 34.224 47.9765 32.4C48.1365 31.28 48.2165 30.592 48.2165 30.336C48.2165 29.92 48.0885 29.712 47.8325 29.712C47.1605 29.712 46.2965 30.688 45.2405 32.64C45.1125 32.896 44.9685 33.136 44.8085 33.36C44.6485 33.552 44.4885 33.648 44.3285 33.648C44.0085 33.648 43.8485 33.376 43.8485 32.832C43.8485 31.968 44.2165 30.928 44.9525 29.712C45.7205 28.464 46.6485 27.392 47.7365 26.496C48.8565 25.6 49.9285 25.152 50.9525 25.152C51.5925 25.152 52.1045 25.376 52.4885 25.824C52.8725 26.272 53.0645 26.976 53.0645 27.936C53.0645 29.184 52.9365 30.608 52.6805 32.208H52.7285C53.9125 30.096 55.1925 28.4 56.5685 27.12C57.9445 25.808 59.2565 25.152 60.5045 25.152C62.1365 25.152 62.9525 26.272 62.9525 28.512C62.9525 29.088 62.8725 29.888 62.7125 30.912L62.6645 31.2H62.7125C63.9605 29.312 65.2085 27.84 66.4565 26.784C67.7045 25.696 68.9045 25.152 70.0565 25.152C71.6885 25.152 72.5045 26.304 72.5045 28.608C72.5045 29.568 72.3605 30.768 72.0725 32.208C71.5285 34.96 71.2085 36.56 71.1125 37.008C70.9205 38.032 70.6965 39.232 70.4405 40.608C70.1845 41.952 70.0565 42.752 70.0565 43.008C70.0565 43.648 70.2645 43.968 70.6805 43.968C71.1605 43.968 71.6085 43.648 72.0245 43.008C72.4405 42.368 72.8885 41.44 73.3685 40.224C73.5605 39.776 73.7845 39.552 74.0405 39.552C74.2005 39.552 74.3125 39.664 74.3765 39.888C74.4725 40.112 74.5045 40.4 74.4725 40.752C74.3445 41.904 73.9125 43.088 73.1765 44.304C72.4725 45.488 71.6085 46.48 70.5845 47.28C69.5605 48.08 68.5365 48.48 67.5125 48.48C65.9125 48.48 65.1125 47.424 65.1125 45.312C65.1125 44 65.4965 41.456 66.2645 37.68C66.5205 36.432 66.7445 35.2 66.9365 33.984C67.1605 32.736 67.2885 31.728 67.3205 30.96V30.672C67.3205 30.096 67.1445 29.808 66.7925 29.808C66.3445 29.808 65.7685 30.24 65.0645 31.104C64.3925 31.936 63.7045 33.04 63.0005 34.416C62.3285 35.792 61.7685 37.2 61.3205 38.64L59.8325 46.464C59.7365 46.944 59.1765 47.408 58.1525 47.856C57.1285 48.272 56.2485 48.48 55.5125 48.48C55.2245 48.48 55.0485 48.416 54.9845 48.288C54.9205 48.192 54.9205 48 54.9845 47.712C55.0165 47.584 55.4805 45.168 56.3765 40.464C57.3045 35.76 57.8165 32.592 57.9125 30.96V30.576C57.9125 30.064 57.7525 29.808 57.4325 29.808C56.8885 29.808 56.2005 30.368 55.3685 31.488C54.5365 32.608 53.7525 34.016 53.0165 35.712C52.2805 37.408 51.7525 39.056 51.4325 40.656L50.6645 44.544C50.4725 45.504 49.8485 46.4 48.7925 47.232C47.7685 48.064 46.7445 48.48 45.7205 48.48Z" fill="white"/>
<path d="M115.024 48.1787C115.335 48.357 115.7 48.4568 116.119 48.4766L116.278 48.4805C116.556 48.4805 116.837 48.4448 117.12 48.377L117.121 48.3779L118.287 53.2402C117.64 53.3955 116.967 53.4805 116.278 53.4805C115.1 53.4804 113.787 53.2335 112.538 52.5176L115.024 48.1787ZM120.655 45.9834L121.425 47.7314L123.705 49.9502C123.349 50.3165 122.976 50.6654 122.586 50.9961L122.552 51.0254L122.517 51.0537C122.158 51.347 121.782 51.6255 121.387 51.8818L119.492 48.9619C119.429 48.9639 119.366 48.9678 119.303 48.9678C119.011 48.9678 118.689 48.9465 118.347 48.8887L118.536 47.7676C118.805 47.6018 119.077 47.4074 119.351 47.1836C119.808 46.7952 120.23 46.3687 120.622 45.9082L120.655 45.9834ZM123.475 42.9111L123.686 43.6475L126.979 45.1055C126.795 45.5212 126.592 45.9301 126.372 46.3301C126.134 46.7627 125.878 47.1842 125.605 47.5938L121.444 44.8223L121.443 44.8213C121.636 44.5321 121.819 44.2319 121.99 43.9199C122.168 43.5962 122.323 43.2782 122.456 42.9668L123.475 42.9111ZM113.696 45.1475C113.71 45.4473 113.738 45.7269 113.779 45.9863L111.311 46.3818L111.31 46.3809L108.842 46.7754C108.754 46.2248 108.709 45.6711 108.693 45.124C108.972 44.7565 109.233 44.3722 109.472 43.9678C109.478 43.9563 109.484 43.9441 109.49 43.9326L113.698 44.1094C113.69 44.3022 113.687 44.4956 113.687 44.6885L113.696 45.1475ZM122.614 34.5518C123.831 34.5518 125.153 34.9673 126.229 35.9541L124.539 37.7959L124.54 37.7969L124.524 37.8135L124.18 39.9824L128.003 39.5605C128.035 39.8529 128.047 40.1257 128.047 40.3682C128.047 40.9722 127.992 41.566 127.893 42.1455L126.734 41.9463L126.706 42.0342L126.607 42.2549C126.487 42.5258 126.368 42.7889 126.249 43.043L126.095 42.9707C126.162 42.8921 126.224 42.8166 126.278 42.7441C126.361 42.6337 126.432 42.5276 126.491 42.4287L125.269 41.6943L124.198 41.5107C124.191 41.5276 124.183 41.5447 124.176 41.5615L125.076 42.4932L123.871 41.9297L123.721 42.8721L123.728 42.873C123.727 42.8969 123.727 42.9261 123.727 42.96C123.727 42.9545 123.726 42.9331 123.725 42.8984H123.717L123.713 42.9277L123.578 42.9062L123.475 42.9111L123.468 42.8887L123.306 42.8623L123.462 42.8662L123.445 42.8115L123.725 42.8516C123.729 42.8229 123.73 42.8051 123.73 42.8008L123.435 42.7734L123.309 42.332L123.61 42.249C123.573 42.1127 123.512 41.9305 123.42 41.7178L123.088 41.5635L123.309 42.332L122.634 42.5186C122.762 42.167 122.859 41.8236 122.928 41.4883L123.087 41.5625L123.015 41.3076L122.989 41.3037L122.959 41.3223C123.004 41.0677 123.033 40.8183 123.043 40.5732L123.047 40.3682C123.047 39.8242 122.902 39.5518 122.614 39.5518C122.486 39.5519 122.374 39.6163 122.278 39.7441C122.222 39.8188 122.172 39.9045 122.127 40.001C122.094 39.9737 122.062 39.9446 122.027 39.918L121.934 40.0371L122.085 40.0977C122.069 40.138 122.054 40.18 122.039 40.2236C121.931 40.4672 121.823 40.6997 121.719 40.9219L121.687 40.9072L121.55 41.0566L121.48 41.0439L121.464 41.1504L121.55 41.0566L121.648 41.0732C121.553 41.2737 121.459 41.4643 121.367 41.6465C121.295 41.5949 121.225 41.5403 121.161 41.4814L120.654 42.0332C120.604 41.9843 120.55 41.9358 120.492 41.8906L120.431 41.9678L120.619 42.0713L120.769 42.1523L120.923 42.2363L121.15 42.0664C120.974 42.4 120.808 42.6988 120.646 42.96C120.405 43.3497 120.151 43.6234 119.889 43.7871L119.606 43.5986L119.727 43.8721C119.588 43.9332 119.448 43.9678 119.303 43.9678L119.181 43.957L119.249 43.5488L119.157 43.6035L118.956 43.8623C118.925 43.8378 118.896 43.8095 118.871 43.7764C118.84 43.7239 118.815 43.6585 118.794 43.582L119.266 43.4512L119.277 43.3799L118.943 43.1572L118.817 43.1641L118.813 43.1904L118.812 43.1982L118.811 43.2061C118.795 43.2982 118.782 43.39 118.77 43.4814C118.742 43.3398 118.727 43.1662 118.727 42.96C118.727 42.64 118.742 42.3675 118.774 42.1436L119.615 36.8447L119.622 36.8525L121.838 37.2041L121.826 37.1621L121.138 34.7598C121.631 34.6184 122.128 34.5518 122.614 34.5518ZM119.237 43.501L119.26 43.4834L119.263 43.4688L119.237 43.501ZM119.313 43.4033L119.279 43.4473L119.325 43.4346L119.342 43.4229L119.313 43.4033ZM113.744 43.4385L113.739 43.4395C113.73 43.2736 113.727 43.1131 113.727 42.96C113.727 42.9561 113.727 42.9521 113.727 42.9482L110.165 42.502C110.438 41.7608 110.576 41.05 110.576 40.3682C110.576 39.8242 110.432 39.5518 110.144 39.5518C109.92 39.5521 109.728 39.7762 109.568 40.2236C109.369 40.7032 109.161 41.1407 108.95 41.5371L109.664 37.1729L114.379 37.9443L114.677 36.0684L114.905 36.1045L113.879 42.3838C113.82 42.7353 113.776 43.087 113.744 43.4385ZM119.997 43.0996L119.996 43.1006L119.536 43.376L120.227 43.1855L120.112 43.0938L119.997 43.0996ZM120.227 43.1855L119.536 43.376L119.997 43.0996L120.112 43.0938L120.227 43.1855ZM119.754 43.1133L119.562 43.124L119.53 43.125L119.445 43.2334L119.464 43.2764L119.48 43.3135L119.482 43.3174L119.754 43.1133ZM119.482 43.3174L119.48 43.3135L119.659 43.1182L119.754 43.1133L119.482 43.3174ZM119.464 43.2764L119.445 43.2334L119.53 43.125L119.562 43.124C119.53 43.1756 119.496 43.2259 119.464 43.2764ZM126.095 42.9707C126.013 43.0653 125.923 43.1645 125.82 43.2637L125.076 42.4932L126.095 42.9707ZM122.545 42.7422L123.306 42.8623L122.505 42.8438C122.519 42.8099 122.532 42.7759 122.545 42.7422ZM123.435 42.7734L123.445 42.8115L122.734 42.71L123.435 42.7734ZM122.567 42.6855L122.734 42.71L122.564 42.6943C122.566 42.6915 122.566 42.6884 122.567 42.6855ZM120.654 42.0332C120.695 42.072 120.733 42.1117 120.769 42.1523L120.619 42.0713L120.654 42.0332ZM126.725 41.9619C126.727 41.9565 126.727 41.9506 126.729 41.9453L126.651 41.9316L126.725 41.9619ZM119.593 41.5107L119.597 41.4932C119.581 41.4904 119.564 41.4895 119.549 41.4873L119.593 41.5107ZM127.337 20.1904C127.248 20.6808 127.161 21.2015 127.074 21.7529L127.073 21.7598L126.232 27.0518L121.572 26.3115L120.973 29.9785L120.712 29.9355L122.135 20.9756C122.227 20.3899 122.322 19.8314 122.418 19.2998L127.337 20.1904ZM117.98 18.4961C117.531 20.332 117.124 22.4225 116.759 24.7676L116.038 29.1709L115.776 29.1289L113.571 28.7686L111.104 28.3652L111.824 23.9609C111.972 23.0156 112.126 22.1039 112.289 21.2266L116.896 22.0801L117.196 20.1924C117.293 19.5747 117.394 18.9799 117.497 18.4092L117.98 18.4961ZM128.59 15.3809C128.508 15.5679 128.425 15.7777 128.34 16.0117C128.225 16.3449 128.1 16.7541 127.971 17.248L123.881 16.1748C123.654 16.7914 123.427 17.4955 123.202 18.293L122.641 18.1348C122.888 16.9113 123.148 15.8562 123.421 14.9697L123.623 14.3516C123.746 14.0093 123.875 13.6856 124.009 13.3799L128.59 15.3809ZM117.671 11.667L119.038 12.3398C119.161 12.0138 119.289 11.6924 119.426 11.3789L120.426 11.8154C119.976 12.5889 119.57 13.4508 119.207 14.4004C118.922 15.17 118.649 16.0156 118.39 16.9375L113.577 15.582C113.867 14.552 114.179 13.5766 114.518 12.6631L114.527 12.6377L114.537 12.6133C114.808 11.9061 115.104 11.2207 115.429 10.5615L117.671 11.667ZM132.499 7.24121L134.715 8.39844L136.931 9.55664C136.849 9.71338 136.763 9.86309 136.677 10.0068C136.666 10.0249 136.655 10.0426 136.645 10.0605C136.635 10.0763 136.627 10.0928 136.617 10.1084L136.616 10.1074C136.513 10.2788 136.408 10.4472 136.296 10.6104L132.528 8.03027L132.777 9.26758L135.465 11.668C135.324 11.8259 135.178 11.9797 135.03 12.1279L134.946 12.2119L134.858 12.292C134.683 12.4514 134.496 12.6081 134.298 12.7598L132.87 10.8955L132.724 10.9287C132.516 10.9748 132.279 11.0203 132.051 11.0615L132.021 10.8945C132.108 10.8996 132.189 10.9043 132.263 10.9043C132.535 10.9043 132.744 10.8797 132.847 10.8662L131.758 9.44336L132.021 10.8945C131.865 10.8855 131.691 10.8682 131.501 10.834L132.773 13.6738C132.454 13.8169 132.114 13.9419 131.754 14.04L131.588 14.085L131.419 14.1191C131.178 14.1674 130.944 14.2031 130.723 14.2295L130.377 11.3408C130.099 11.3817 129.834 11.4227 129.582 11.4639L129.562 11.3457L129.648 14.3057C129.5 14.3099 129.351 14.3104 129.202 14.3105C129.179 14.336 129.141 14.3807 129.091 14.4512L126.306 12.4697C126.277 12.4907 126.247 12.5117 126.218 12.5342C126.019 12.6909 125.813 12.8839 125.602 13.123L124.586 12.2256C124.926 11.6373 125.292 11.1461 125.687 10.752C126.211 10.2093 126.812 9.8199 127.49 9.58398L127.967 11.7666C127.841 11.7941 127.722 11.8204 127.612 11.8467L127.844 12.1826L129.021 13.8965L128.221 9.39551C128.53 9.34048 128.853 9.31153 129.19 9.31152C129.702 9.31152 130.118 9.2798 130.438 9.21582C130.535 9.18942 130.632 9.15368 130.729 9.11035L130.729 9.11133L131.092 9.91992L131.411 8.99121L131.258 8.79102L131.257 8.78906C131.336 8.72861 131.415 8.66349 131.494 8.5918C131.582 8.50392 131.666 8.41507 131.746 8.3252C131.908 8.37222 132.05 8.39369 132.161 8.40039L132.181 8.48828C132.113 8.50341 132.036 8.51612 131.955 8.53223L132.54 9.05566L132.693 9.19238L132.473 8.40918C132.439 8.41863 132.401 8.42938 132.357 8.44238L132.27 8.46875L132.181 8.48828L132.161 8.40039C132.199 8.40265 132.233 8.4043 132.263 8.4043V7.84766L132.171 7.78516L132.17 7.78418C132.201 7.73935 132.228 7.69275 132.257 7.64746L132.326 7.8916L132.528 8.03027L132.427 7.53027L132.358 7.48828L132.427 7.52832L132.403 7.41113C132.438 7.35289 132.469 7.29587 132.498 7.24023L132.499 7.24121ZM122.802 6.60938C123.054 6.39442 123.319 6.19068 123.597 6L124.698 7.60449C124.185 7.86299 123.666 8.19085 123.143 8.5918C122.689 8.94767 122.261 9.35521 121.856 9.8125L121.855 9.81152L118.109 6.5C118.703 5.82898 119.351 5.21155 120.057 4.6582L120.078 4.64062L120.101 4.62402C120.41 4.38689 120.726 4.16052 121.051 3.94727L122.802 6.60938ZM132.263 8.12598L132.345 8.40039L132.263 8.12793V8.4043C132.349 8.40429 132.419 8.39742 132.468 8.39258L132.326 7.8916L132.263 7.84766V8.12598ZM132.742 6.43164C132.742 6.35599 132.734 6.28887 132.719 6.22949H132.721L137.571 5.01855C137.705 5.55397 137.742 6.03976 137.742 6.43164C137.742 6.96903 137.67 7.4557 137.57 7.87402L135.139 7.29297L132.707 6.71289L132.705 6.71191C132.729 6.61253 132.742 6.51919 132.742 6.43164ZM126.901 6.88086V6.88281C126.567 6.95565 126.258 7.02788 125.975 7.10352C125.722 7.17318 125.469 7.26198 125.214 7.36719L123.308 2.74414C123.74 2.56555 124.186 2.41063 124.645 2.28418L124.666 2.27832L124.687 2.27246C125.055 2.17425 125.439 2.08267 125.836 1.99609L126.901 6.88086ZM130.151 6.01465L130.466 6.17773L130.275 6.13281C130.271 6.15075 130.267 6.17276 130.263 6.19824L130.229 6.17773C130.241 6.15948 130.249 6.1425 130.258 6.12793L130.167 6.10645L130.189 6.24316C130.192 6.2381 130.196 6.23355 130.199 6.22852L130.214 6.20312L130.229 6.17773L130.263 6.19824C130.258 6.22616 130.254 6.25852 130.251 6.29492C130.086 6.32211 129.909 6.35306 129.719 6.38379L129.668 6.3916L129.56 5.99609L129.483 5.94336L129.405 5.9248L129.413 6.17188L129.479 6.31934L129.575 6.40527C129.299 6.44616 129.033 6.48833 128.776 6.53027L128.647 5.74512L128.646 5.74414L127.844 5.55273C127.792 5.77156 127.742 6.07011 127.742 6.43164C127.742 6.51243 127.747 6.60594 127.754 6.70996C127.75 6.71064 127.747 6.71124 127.743 6.71191L127.346 4.47168C127.704 4.40802 128.062 4.36615 128.418 4.34082L128.373 4.0625L127.97 1.59473C128.287 1.54295 128.614 1.49273 128.951 1.44336C129.106 1.41831 129.251 1.39437 129.387 1.37207L130.151 6.01465ZM130.466 6.17773L130.665 6.22559C130.638 6.2302 130.61 6.23451 130.582 6.23926L130.464 6.17773H130.466ZM131.021 3.27539L131.793 6.00293V6.00488C131.745 6.01845 131.693 6.0315 131.639 6.04785C131.53 6.07209 131.369 6.09968 131.159 6.1377L130.715 3.68164L130.391 1.88867L130.202 1.25879C130.226 1.25167 130.25 1.24433 130.273 1.2373L130.271 1.22168C130.359 1.2056 130.429 1.19173 130.48 1.18164C130.528 1.17233 130.551 1.16766 130.554 1.16699L131.021 3.27539ZM132.663 0.917969C133.086 0.94726 133.574 1.02781 134.092 1.20605L132.464 5.93359C132.406 5.91389 132.338 5.9043 132.263 5.9043C132.226 5.9043 132.173 5.91174 132.104 5.92578L131.114 1.02344C131.268 0.99235 131.715 0.904297 132.263 0.904297L132.663 0.917969ZM128.591 5.39844L128.579 5.32422L128.431 5.22266L128.591 5.39844ZM128.217 4.82129C128.177 4.85182 128.148 4.87695 128.131 4.89258L128.244 5.01758L128.449 5.12402L128.217 4.82129Z" fill="#7D7D7D"/>
<path d="M102.332 48.251C102.568 48.3676 102.837 48.4407 103.14 48.4678L103.424 48.4805C103.72 48.4805 104.016 48.4467 104.312 48.3828L104.312 48.3838L105.368 53.2715C104.733 53.4087 104.083 53.4805 103.424 53.4805C102.407 53.4804 101.254 53.2958 100.121 52.7373L102.332 48.2529V48.251ZM108.156 46.0703L109.273 48.334L110.956 50.085C110.59 50.4365 110.208 50.7706 109.812 51.0879L109.798 51.0996C109.412 51.4058 109.006 51.6934 108.58 51.9561L106.736 48.9639C106.704 48.9644 106.672 48.9678 106.64 48.9678C106.136 48.9677 105.501 48.9045 104.812 48.6709L104.977 48.1855C105.547 47.9701 106.118 47.6365 106.688 47.1836C107.186 46.7856 107.643 46.3503 108.064 45.8828L108.156 46.0703ZM109.91 43.123L110.494 43.3916L110.144 43.2295L109.91 43.123L109.907 43.1211C109.987 42.9475 110.061 42.776 110.126 42.6055L110.984 42.3887C111.09 42.8052 111.112 43.1546 111.112 43.3916C111.112 43.4995 111.107 43.5941 111.103 43.6709L111.141 43.6875L112.09 44.124L113.689 44.8594C113.699 45.4315 113.754 45.9356 113.855 46.3721C113.839 46.4012 113.823 46.4309 113.807 46.46L113.793 46.4844L113.779 46.5078C113.523 46.9427 113.248 47.3656 112.954 47.7754L108.889 44.8643L108.888 44.8633C109.094 44.5754 109.289 44.2773 109.472 43.9678C109.636 43.6819 109.78 43.399 109.907 43.1211L109.91 43.123ZM101.081 45.6953C101.094 45.9596 101.122 46.205 101.163 46.4316L101.162 46.4326L96.2422 47.3223C96.1186 46.6392 96.0723 45.9604 96.0723 45.3115C96.0723 44.9988 96.0851 44.6872 96.1064 44.3828L101.094 44.7334H101.096C101.081 44.9439 101.072 45.1365 101.072 45.3115L101.081 45.6953ZM111.828 42.1592L112.931 43.627C112.686 43.811 112.403 43.9799 112.09 44.124L111.141 43.6875L111.47 41.9902L111.828 42.1592ZM102.134 38.8613L101.312 43.0078C101.245 43.4087 101.194 43.7764 101.155 44.1104C101.132 43.9168 101.121 43.7343 101.116 43.5654L96.624 42.918C96.7243 42.6554 96.8143 42.3935 96.8906 42.1309C97.0243 41.6712 97.1221 41.2116 97.1826 40.752C97.2146 40.624 97.2305 40.4476 97.2305 40.2236C97.2304 39.8305 97.1195 39.6094 96.8975 39.5615L96.9834 39.1309L101.658 40.0576L101.899 38.8164L102.134 38.8613ZM107.064 43.3789L107.016 43.3916L107.092 43.4023C107.083 43.3945 107.073 43.3869 107.064 43.3789ZM106.353 43.293L106.623 43.333L106.647 43.2588L106.395 43.0781L106.353 43.293ZM110.576 40.3682C110.576 40.274 110.569 40.1882 110.561 40.1104H110.563L114.318 39.6943L113.954 41.9199L113.66 41.8682L113.941 41.999L113.879 42.3838C113.842 42.6037 113.811 42.824 113.785 43.0439C113.78 43.0545 113.776 43.0656 113.771 43.0762L111.828 42.1592L111.588 41.8398C111.562 41.8967 111.537 41.9538 111.511 42.0098L111.47 41.9902L111.111 41.8213C110.886 41.9345 110.618 42.019 110.317 42.043C110.466 41.5407 110.552 41.0532 110.571 40.5791L110.576 40.3682ZM109.18 41.0859C109.136 41.1767 109.091 41.2655 109.047 41.3525L109.102 41.0723L109.18 41.0859ZM108.721 29.8232L113.655 30.6338C113.617 30.8672 113.575 31.1105 113.529 31.3633L113.523 31.3975L113.517 31.4316L112.917 34.5273L108.27 33.627L107.996 35.0039C108.625 34.727 109.348 34.5518 110.144 34.5518C111.36 34.5518 112.682 34.9673 113.759 35.9541L112.068 37.7959L112.069 37.7969L110.38 39.6387L110.377 39.6406C110.314 39.5832 110.237 39.5518 110.144 39.5518C110.068 39.5519 109.996 39.5785 109.928 39.6299L109.927 39.6289L107.469 36.3574L108.608 30.4805C108.65 30.2487 108.685 30.0287 108.719 29.8223L108.721 29.8232ZM107.74 39.1152C107.833 39.1399 107.928 39.1681 108.025 39.2012L108.011 39.2412L107.74 39.1152ZM98.6787 30.583L98.7119 30.4189H98.7139C98.7153 30.4721 98.7188 30.5339 98.7246 30.6035L99.2051 30.6553L99.2354 30.7607L99.6416 30.7012L100.108 30.751C100.07 30.8314 100.032 30.9105 99.9971 30.9893L99.2773 30.9092L99.2891 30.9502L99.6543 31.1699L99.8701 31.2998C99.6489 31.8729 99.5362 32.399 99.5361 32.8799C99.5361 33.3917 99.6799 33.6483 99.9678 33.6484C100.064 33.6484 100.16 33.5999 100.256 33.5039C100.352 33.4079 100.448 33.2641 100.544 33.0723C100.672 32.8483 100.752 32.7036 100.784 32.6396C101.392 31.5838 101.889 30.8317 102.272 30.3838C102.416 30.204 102.553 30.0577 102.684 29.9453L102.747 29.8936C102.754 29.8878 102.762 29.8815 102.77 29.876L102.752 29.8975L103.146 30.1904L103.194 30.1826L102.975 29.7461C103.082 29.6921 103.184 29.6641 103.28 29.6641C103.364 29.6641 103.434 29.6857 103.493 29.7236L103.28 30.0557V30.1709L103.583 30.126L103.63 29.8848C103.683 29.9945 103.712 30.144 103.712 30.3359C103.712 30.4395 103.689 30.6894 103.647 31.0859L103.467 30.7256L103.411 31.0137L103.519 31.1143L103.644 31.127C103.635 31.2091 103.627 31.2975 103.616 31.3916L103.361 32.6748L103.336 32.6709L102.713 32.7451L103.319 32.8857L103.039 34.2949L102.902 34.2686L103.03 34.3408L103.003 34.4775L102.715 34.3125C102.698 34.3435 102.682 34.3751 102.665 34.4062L102.982 34.584L102.969 34.6514C102.527 34.6203 102.021 34.519 101.5 34.2988L102.835 35.3281L102.583 36.5977L100.354 33.7627L100.069 33.7061L101.412 38.4473C100.959 38.5755 100.474 38.6484 99.9678 38.6484C98.8793 38.6484 97.6385 38.3163 96.5664 37.4365L99.6885 33.6309L98.1357 33.3232L98.1406 33.2959L94.585 33.7246C94.5664 33.5708 94.5546 33.4224 94.5469 33.2812L94.5361 32.8799L94.54 32.6211C94.559 32.0214 94.6429 31.4475 94.7676 30.9082L97.2031 31.4717L97.4639 31.5312L97.5645 31.5547L96.1191 30.7471C96.0988 30.7835 96.0833 30.8139 96.0723 30.8359L96.1338 30.7119L96.2031 30.5908C96.2226 30.5567 96.2407 30.5255 96.2568 30.4971L97.4395 31.168L98.1025 31.6797L98.418 31.752C98.4221 31.7446 98.4267 31.7375 98.4307 31.7305L98.4492 31.7412L98.5049 31.7725L98.8535 31.8535L98.6709 31.6211L98.5342 31.5459L98.4922 31.5225L98.5127 31.4199L97.1152 29.6416L98.6787 30.583ZM103.039 34.2949L103.035 34.3174L102.96 34.2793L103.039 34.2949ZM102.146 31.8252C102.519 32.065 102.896 32.1463 103.188 32.1602L103.217 32.0146L102.463 31.6162L102.325 31.543L102.146 31.8252ZM98.6699 31.6201L98.8535 31.8535L98.5049 31.7725L98.4717 31.7539C98.4772 31.7483 98.4825 31.7422 98.4883 31.7363C98.5279 31.6968 98.5773 31.6508 98.6377 31.6025L98.6699 31.6201ZM96.4336 30.3926L98.4922 31.5225L98.4492 31.7412L97.4395 31.168L96.4336 30.3926ZM99.8701 31.2998L99.6543 31.1699C99.7439 31.1571 99.8363 31.151 99.9307 31.1494C99.9097 31.2 99.8894 31.25 99.8701 31.2998ZM99.9521 30.2871L100.259 30.4492L100.261 30.4502C100.216 30.5345 100.173 30.6176 100.133 30.7002L99.9277 30.6602L99.6416 30.7012L99.2051 30.6553L99.1641 30.5078L98.7139 30.4189C98.713 30.3883 98.7119 30.3606 98.7119 30.3359C98.7119 30.2695 98.7139 30.2198 98.7148 30.1953C98.715 30.1912 98.7147 30.1873 98.7148 30.1836L99.0801 30.2139L98.9512 29.7568L99.9521 30.2871ZM102.945 30.5771L103.044 30.6699C103.071 30.6303 103.099 30.5918 103.126 30.5527L102.97 30.5391L102.945 30.5771ZM97.0986 29.6318C97.0248 29.6901 96.957 29.748 96.8945 29.8037L96.7207 29.9688C96.5762 30.1132 96.4643 30.2456 96.3818 30.3525L96.4336 30.3926L96.3428 30.3428L96.3359 30.3564C96.3308 30.3663 96.3222 30.383 96.3115 30.4043L96.3779 30.2725L96.4512 30.1455C96.5841 29.9146 96.7152 29.692 96.8438 29.4785L97.0986 29.6318ZM98.6934 26.877C98.7381 26.8268 98.7832 26.7757 98.8301 26.7256L100.146 27.958L101.296 28.8135C101.081 29.1019 100.879 29.4017 100.688 29.7119C100.558 29.9183 100.44 30.1212 100.332 30.3184L99.9521 30.2871L98.9512 29.7568L98.0488 29.2803L95.8398 28.1113C96.0228 27.7656 96.2205 27.4255 96.4297 27.0918L96.6328 26.7686C96.8398 26.4481 97.0576 26.1349 97.2852 25.8291L98.6934 26.877ZM103.179 30.2139L103.229 30.252L103.196 30.1865L103.179 30.2139ZM103.198 30.1826L103.28 30.1709V30.0557L103.198 30.1826ZM97.1152 29.6416L97.0986 29.6318C97.1004 29.6304 97.1027 29.6293 97.1045 29.6279L97.1152 29.6416ZM108.944 27.8398C108.944 27.487 108.916 27.1691 108.864 26.8857H108.866L113.783 25.9814C113.901 26.6205 113.944 27.2486 113.944 27.8398C113.944 28.2463 113.914 28.6494 113.878 29.0078L108.903 28.5049L108.9 28.5039C108.918 28.3341 108.932 28.1826 108.938 28.0488L108.944 27.8398ZM105.128 21.9961L104.96 22.9443C104.954 22.9874 104.951 23.0281 104.948 23.0664L102.452 22.8975L102.436 22.8955L102.982 23.7861L104.961 23.3105L104.963 23.3096C104.974 23.3542 104.987 23.3927 105.008 23.4238C105.03 23.4462 105.064 23.462 105.105 23.4766V23.4795L104.637 24.8359C104.834 24.8866 105.035 24.9493 105.237 25.0273L105.327 23.5166V23.5146L105.44 23.5195H105.524V25.1484C105.58 25.1739 105.637 25.1997 105.692 25.2275V23.8232L105.624 23.5195H105.776C107.301 23.5195 108.44 23.1106 109.192 22.293L109.354 22.2549L109.136 22.7051L110.052 22.8682L109.883 23.8164L108.699 23.6064L107.859 25.3428L107.857 25.3447C107.595 25.2177 107.286 25.1523 106.928 25.1523C105.84 25.1524 104.72 25.6003 103.568 26.4961C103.018 26.9243 102.512 27.3937 102.049 27.9023L101.853 27.5107L101.667 27.1406C101.603 27.0825 101.536 27.0238 101.473 26.96L101.122 26.6094L100.848 26.1973C100.437 25.5809 100.218 24.9719 100.1 24.4795L100.188 24.457L99.334 23.54C99.6291 23.2652 99.9342 23.0016 100.248 22.748L99.958 22.7285C99.97 22.552 99.9884 22.3871 100.01 22.2373L100.022 22.1543L100.205 21.123L105.128 21.9961ZM110.36 19.1162L112.821 19.5518L115.283 19.9883L115.115 20.9365L115.114 20.9355C114.948 21.9063 114.649 22.9016 114.15 23.8555L109.72 21.5381L109.719 21.5371C109.912 21.1682 110.057 20.7483 110.152 20.2764L110.192 20.0645L110.36 19.1162ZM108.758 23.4863L109.91 23.6514C109.919 23.5877 109.929 23.5042 109.936 23.4043L108.834 23.3291L108.758 23.4863ZM109.667 21.6328C109.735 21.8175 109.785 21.9893 109.822 22.1426L109.354 22.2549L109.596 21.7549C109.62 21.7149 109.644 21.6742 109.667 21.6328ZM105.195 21.6143L104.917 20.3779C105.087 20.3396 105.259 20.3052 105.432 20.2764L105.195 21.6143ZM103.44 17.6631L105.42 18.3311L105.437 18.2432L105.864 18.3184C105.766 18.5792 105.687 18.8569 105.632 19.1523L105.464 20.0996L103.002 19.6641L100.541 19.2275L100.709 18.2793L100.713 18.2549L100.718 18.2305C100.803 17.7746 100.92 17.3177 101.073 16.8643L103.44 17.6631ZM115.765 15.1074C115.887 15.7365 115.883 16.295 115.844 16.7246L115.824 16.9355L115.619 18.0928L113.157 17.6553L110.696 17.2197L110.864 16.2725C110.871 16.1941 110.866 16.1244 110.854 16.0635H110.856L115.765 15.1074ZM107.325 15.6445L108.402 15.8359L108.648 15.8789C108.471 15.9183 108.303 15.9679 108.142 16.0244L107.494 15.9658L107.64 16.2412C107.395 16.3703 107.173 16.5247 106.976 16.7041C106.794 16.8608 106.63 17.0315 106.482 17.2158L105.906 16.7549L102.577 14.0938C102.892 13.6994 103.24 13.3367 103.613 13.0049L103.612 13.0039C104.134 12.5294 104.706 12.1347 105.311 11.8164L107.325 15.6445ZM106.005 16.834L106.18 16.9736L105.949 17.0195C105.931 16.9284 105.918 16.84 105.906 16.7549L106.005 16.834ZM110 15.7441L109.758 15.748C109.561 15.7542 109.372 15.7676 109.189 15.7891L108.606 10.8232C109.075 10.7682 109.541 10.7441 110 10.7441V15.7441ZM110.384 10.7441C110.82 10.7441 111.384 10.7908 112.007 10.9746L111.298 13.3721L111.299 13.373L110.591 15.7705L110.59 15.7715C110.531 15.7541 110.462 15.7441 110.384 15.7441H110.288V10.7441H110.384ZM110.096 10.7441V15.7441H110V10.7441H110.096ZM108.032 42.96C107.773 43.2996 107.526 43.5527 107.292 43.7207L106.88 43.4258L106.854 43.4326L107.063 43.8564C106.917 43.9288 106.776 43.9678 106.64 43.9678C106.556 43.9677 106.483 43.9554 106.419 43.9336L106.564 43.5059L106.297 43.5732L106.247 43.8262C106.157 43.7302 106.112 43.5854 106.112 43.3916C106.112 43.2955 106.144 43.1198 106.208 42.8643L106.808 39.7676L107.019 39.8086C107.082 39.6726 107.145 39.5302 107.209 39.3809L106.903 39.2715L106.933 39.125L107.26 39.2617C107.289 39.1854 107.321 39.1081 107.355 39.0303C107.214 39.0059 107.081 38.9909 106.96 38.9814L107.001 38.7715L107.389 38.9521L107.74 39.1152C107.739 39.115 107.738 39.1145 107.737 39.1143L109.656 40.0068C109.626 40.0722 109.597 40.1442 109.568 40.2236C109.442 40.5279 109.311 40.8152 109.18 41.0859L109.07 41.0664L108.69 41.4814C108.753 41.5393 108.822 41.5928 108.893 41.6436C108.615 42.1535 108.329 42.5931 108.032 42.96Z" fill="#7D7D7D"/>
<path d="M81.124 48.3193L82.4893 53.1299C81.7326 53.3446 80.912 53.4804 80.0469 53.4805C79.3601 53.4805 78.6506 53.3909 77.9404 53.1865L79.3232 48.3818C79.4955 48.4314 79.6753 48.4626 79.8633 48.4746L80.0469 48.4805C80.3879 48.4804 80.7464 48.4252 81.123 48.3184L81.124 48.3193ZM91.2705 48.3984L92.2627 53.2998C91.6704 53.4196 91.0685 53.4804 90.4629 53.4805C89.9791 53.4805 89.4754 53.4382 88.9619 53.3398L89.9023 48.4287C89.9859 48.4447 90.0713 48.4574 90.1592 48.4658L90.4629 48.4805C90.7341 48.4804 91.0028 48.4514 91.2695 48.3975L91.2705 48.3984ZM94.9824 47.5391L97.6367 50.2998C97.2944 50.6289 96.9345 50.9386 96.5605 51.2314L96.5615 51.2324C96.1865 51.5324 95.7889 51.8138 95.3682 52.0693L93.4814 48.9619C93.4033 48.9648 93.3246 48.9678 93.2461 48.9678C92.9148 48.9678 92.5568 48.94 92.1816 48.8701L92.3369 48.0332C92.7086 47.8527 93.076 47.6181 93.4385 47.3281C93.8347 47.0214 94.2037 46.6797 94.5488 46.3066L94.9824 47.5391ZM88.1582 42.3359L87.9189 43.9678C87.8549 44.4798 87.8223 44.8641 87.8223 45.1201C87.8223 45.3447 87.8349 45.5591 87.8564 45.7637L87.8545 45.7646L85.3623 46.0273L86.8125 47.6162L88.0625 47.0586V46.7256C88.071 46.7503 88.078 46.7755 88.0869 46.7998V47.0479L88.1348 47.0264V46.915C88.1425 46.934 88.1501 46.953 88.1582 46.9717V47.0166L88.1719 47.0107L88.1738 47.0098C88.2639 47.2117 88.3692 47.3988 88.4941 47.5684L88.5869 47.6787C88.6811 47.7857 88.7821 47.8813 88.8887 47.9668L88.0684 48.9912L88.5156 49.4814C88.036 49.9192 87.5374 50.3318 87.0215 50.7207L87.0225 50.7217C87.0178 50.7252 87.0125 50.7279 87.0078 50.7314C86.9991 50.738 86.9911 50.7454 86.9824 50.752L86.9814 50.751C86.726 50.9456 86.4676 51.1332 86.2061 51.3125L85.7607 51.8691C85.3051 51.5039 84.9102 51.0965 84.5703 50.666L84.5186 50.6006L84.4688 50.5342C84.1202 50.0612 83.8347 49.5609 83.6055 49.0469L84.0361 48.8535L83.8896 48.625C83.5415 48.6871 83.1719 48.7275 82.7822 48.7275C82.3603 48.7275 81.893 48.6828 81.4014 48.5625L81.4893 48.1992C82.2514 47.9223 83.0829 47.441 83.9824 46.752C84.7684 46.1625 85.5074 45.4885 86.2012 44.7314L87.2305 44.7939L86.6533 44.2188C87.1476 43.6361 87.6179 43.0089 88.0625 42.3359H88.1582ZM77.292 46.0479C77.4037 46.3905 77.5372 46.7056 77.6943 46.9922C77.8244 47.2162 77.9659 47.4144 78.1172 47.5879L74.3496 50.876C73.964 50.4341 73.641 49.9694 73.3701 49.5029L73.3398 49.4502L73.3105 49.3965C72.9899 48.8117 72.7364 48.2074 72.5381 47.5996L77.291 46.0488L77.292 46.0479ZM96.54 43.1299C96.5694 43.0575 96.5984 42.9854 96.626 42.9131L97.3975 42.8662L97.5811 43.7197L97.3193 43.5713C97.2595 43.6769 97.1966 43.7791 97.1357 43.8809L97.668 44.1211L97.5811 43.7197L99.4941 44.8027C99.4723 44.8412 99.4479 44.8787 99.4258 44.917L100.925 45.5957C100.737 46.0104 100.532 46.4179 100.311 46.8184L100.297 46.8438L100.283 46.8682C100.051 47.2779 99.8006 47.6767 99.5332 48.0635L95.4209 45.2207L95.4189 45.2197C95.5996 44.9584 95.7725 44.6859 95.9346 44.4004C96.1683 43.9774 96.3682 43.5529 96.54 43.1299ZM76.8916 43.6162C76.8977 43.758 76.9085 43.8968 76.9189 44.0332L76.916 44.0342L73.1641 44.3223C73.1678 44.316 73.173 44.31 73.1768 44.3037C73.9126 43.0878 74.3447 41.9039 74.4727 40.752C74.4779 40.6946 74.4777 40.6389 74.4795 40.585L74.5293 40.5908L77.0107 40.9014C76.9224 41.608 76.8789 42.3101 76.8789 43.0078L76.8916 43.6162ZM96.4902 39.6621C96.4631 39.6857 96.4374 39.713 96.4141 39.7441C96.3182 39.872 96.2387 40.032 96.1748 40.2236C95.9949 40.6396 95.8185 41.0242 95.6465 41.377L95.3027 41.2939C95.2727 41.4459 95.2456 41.5894 95.2217 41.7246L95.6396 41.3906C95.5751 41.5228 95.5107 41.6502 95.4473 41.7734L95.2119 41.7324L94.7402 42.1104L94.4697 41.957L94.3516 41.8896L94.5645 41.6182L93.5635 41.4414V41.4434L93.5586 41.4404L94.3516 41.8896L93.9287 42.4287L94.0928 42.5029L94.1924 42.5479L94.6709 42.166C94.6144 42.0954 94.5457 42.0261 94.4697 41.957L95.0605 42.292L95.1416 42.3379C95.0024 42.5836 94.8679 42.8076 94.7344 43.0078C94.2864 43.6478 93.7901 43.9678 93.2461 43.9678C93.1936 43.9678 93.1439 43.9629 93.0967 43.9541L93.1523 43.6523L93.0322 43.5693L92.8252 43.834C92.7868 43.8038 92.751 43.7679 92.7188 43.7275C92.6883 43.6768 92.6643 43.616 92.6436 43.5459L92.8916 43.4717L92.8486 43.4424L92.6084 43.4072C92.5855 43.2811 92.5742 43.1319 92.5742 42.96C92.5742 42.448 92.6703 41.7119 92.8623 40.752C93.1155 39.3381 93.3744 37.8822 93.6416 36.3848L96.4902 39.6621ZM83.1797 42.7227L83.0684 42.8174L83.2178 42.7969L83.2246 42.8096L83.2617 42.791L84.2012 42.6621L83.4893 42.8994L84.2988 43.0186C83.7204 43.4908 83.2153 43.7275 82.7822 43.7275C82.4944 43.7275 82.2862 43.5997 82.1582 43.3438C82.0904 43.1402 82.0482 42.8169 82.0283 42.374L82.5039 42.8945L82.7979 42.8545L82.9424 42.2627L83.1797 42.7227ZM100.232 42.9688C100.098 43.1252 99.9452 43.2839 99.7695 43.4365L98.7773 42.2939L100.232 42.9688ZM94.1182 43.0645L93.79 43.084L93.7051 43.1348L93.4795 43.2705L93.4883 43.2949L93.7246 43.2246L93.7793 43.209L93.7451 43.1904L93.7471 43.1885C93.7513 43.1808 93.7546 43.1727 93.7588 43.165L93.7607 43.166L93.8164 43.1973L94.1543 43.0977L94.1182 43.0645ZM93.7451 43.1904C93.7385 43.202 93.7312 43.2131 93.7246 43.2246L93.4883 43.2949L93.4795 43.2705L93.6768 43.1523L93.7451 43.1904ZM71.8789 43.0078C71.8789 42.0986 71.9363 41.1893 72.0498 40.2812L73.2822 40.4346C72.834 41.5472 72.416 42.4054 72.0244 43.0078C71.9776 43.0798 71.9294 43.1471 71.8818 43.2109C71.8811 43.1434 71.8789 43.0755 71.8789 43.0078ZM93.7588 43.165L93.7051 43.1348L93.79 43.084L93.8018 43.083C93.7872 43.1101 93.7737 43.1379 93.7588 43.165ZM93.501 43.1016L93.4219 43.1064L93.4375 43.1514L93.501 43.1016ZM93.4375 43.1514L93.4219 43.1064L93.501 43.1016L93.4375 43.1514ZM102.048 39.2939L101.808 40.5049L98.0078 40.3809C97.9872 40.496 97.9668 40.611 97.9463 40.7256L101.659 41.251L101.36 42.7568L100.6 42.5732C100.529 42.7317 100.462 42.889 100.391 43.042L100.232 42.9688C100.297 42.8932 100.358 42.8186 100.414 42.7441C100.461 42.6813 100.504 42.6191 100.543 42.5596L99.4346 42.291L98.5996 42.0898L98.7773 42.2939L98.1221 41.9902L98.0479 41.957L97.7363 41.8818C97.7167 41.9834 97.6985 42.079 97.6826 42.1689L97.4346 42.125C97.405 42.0252 97.3641 41.9089 97.3125 41.7793L97.1553 41.7412L97.126 41.6045L97.1074 41.5205L97.0498 41.4941C97.1036 41.2465 97.15 40.9996 97.1826 40.752C97.1986 40.6881 97.2108 40.6122 97.2188 40.5244V40.499C97.2253 40.4172 97.2305 40.3252 97.2305 40.2236C97.2304 40.0392 97.2041 39.8936 97.1553 39.7852L97.8379 39.9072L102.048 39.2939ZM97.582 42.8682C97.5779 42.9126 97.5761 42.9428 97.5752 42.96C97.5752 42.9768 97.5743 42.9775 97.5752 42.96C97.5752 42.9421 97.5737 42.9106 97.5713 42.8672L97.582 42.8682ZM97.5713 42.8672L97.501 42.8604L97.5713 42.8564C97.5715 42.8601 97.5711 42.8637 97.5713 42.8672ZM97.501 42.8604L97.3975 42.8662L97.3945 42.8506L97.501 42.8604ZM97.0049 41.7051L97.1553 41.7412L97.2305 42.0889L97.4346 42.125L97.25 42.1797L97.3945 42.8506L96.6738 42.7832C96.8056 42.4232 96.917 42.0641 97.0039 41.7041L97.0049 41.7051ZM84.3779 42.1963L84.4355 42.2051L83.2617 42.791L83.2178 42.7969L83.1797 42.7227L83.8955 42.1104L84.3213 42.0986C84.3424 42.1328 84.3615 42.1652 84.3779 42.1963ZM84.8965 42.4688C84.8579 42.5075 84.8203 42.546 84.7822 42.583L84.5488 42.6143L84.2012 42.6621L84.8682 42.4404L84.8965 42.4688ZM84.5576 42.6504C84.5569 42.6469 84.5549 42.6364 84.5508 42.6211C84.5503 42.6192 84.5494 42.6164 84.5488 42.6143L84.5527 42.6152C84.5569 42.6453 84.5588 42.6558 84.5576 42.6504ZM94.6123 42.5908L94.9561 42.623C94.9307 42.5677 94.901 42.5059 94.8623 42.4414L94.6123 42.5908ZM93.1943 42.458L93.2266 42.2383L93.0645 42.0889L93.1943 42.458ZM95.1416 42.3379L95.0859 42.3066L95.1973 42.2402C95.1789 42.2733 95.1599 42.3056 95.1416 42.3379ZM82.9736 42.1338L82.9424 42.2627L82.877 42.1367L82.9736 42.1338ZM93.2461 42.1064V42.1191L93.4229 42.1992L93.4336 42.1406L93.2578 42.0234L93.2461 42.1064ZM82.877 42.1367L82.0205 42.1582L82.0146 41.7598C82.0147 41.0689 82.0505 40.3834 82.1211 39.7031L82.6787 40.2598L82.7822 40.2676L83.3711 40.3135C83.3951 40.2814 83.4194 40.2493 83.4434 40.2168L83.7783 38.8496C83.4059 38.7585 83.0668 38.7275 82.7822 38.7275C82.5852 38.7276 82.4045 38.7435 82.2412 38.7676C82.4011 37.7204 82.645 36.6858 82.9746 35.6641C83.1257 35.2109 83.2872 34.7777 83.4561 34.3633L84.2314 34.6787C84.3693 34.3935 84.4997 34.1132 84.6172 33.835L86.9189 34.8066L89.2227 35.7783C89.0298 36.2352 88.8201 36.6937 88.5908 37.1523L88.2266 37.8447C87.369 39.4268 86.4507 40.7644 85.4707 41.8564C85.2741 42.082 85.0806 42.284 84.8965 42.4688L84.7881 42.3604L84.666 42.2393L84.4355 42.2051L84.5664 42.1396L84.5195 42.0938L84.3213 42.0986L83.8965 42.1094L83.8955 42.1104L83.8799 42.123L83.8047 42.1123L82.9736 42.1338L83.1836 41.2773C83.0274 41.2392 82.89 41.2275 82.7822 41.2275C82.5153 41.2276 82.3855 41.3071 82.4355 41.2812L82.877 42.1367ZM93.2441 42.1182L93.2461 42.1191V42.1064L93.2441 42.1182ZM93.2646 41.9785L93.4414 42.1025L93.5537 41.4961C93.4761 41.4817 93.4039 41.4754 93.3389 41.4717L93.2646 41.9785ZM77.1787 39.832C77.1234 40.128 77.0761 40.4233 77.0361 40.7178C77.0485 40.4198 77.0658 40.1222 77.0889 39.8252L77.1787 39.832ZM85.8916 40.4023L86.0479 40.5205L86.2539 40.5371L86.2676 40.5156C86.2051 40.4301 86.1385 40.3425 86.0645 40.2559L85.8916 40.4023ZM95.8691 39.9561L96.0801 40.041C96.026 39.9941 95.9709 39.9468 95.9131 39.9014L95.8691 39.9561ZM95.5156 31.8555L95.4395 32.2744L95.4404 32.2754C95.4049 32.4848 95.3647 32.6936 95.3232 32.9023L99.2246 33.6436C99.1457 34.0595 99.0631 34.4993 98.9756 34.9619C98.9732 34.9753 98.9702 34.9886 98.9678 35.002C99.217 35.1108 99.4675 35.2426 99.7148 35.4014L97.0137 39.6094L97.0117 39.6113C96.9524 39.5735 96.8825 39.5518 96.7988 39.5518C96.7599 39.5518 96.7226 39.5559 96.6875 39.5635L95.9424 36.1006L93.7627 35.7119L93.7617 35.7109C93.8605 35.1569 93.9618 34.5975 94.0625 34.0322C94.2266 33.1648 94.3777 32.3791 94.5117 31.6748L95.5156 31.8555ZM93.4219 38.9717L93.6904 39.0801L93.6807 39.1455L93.7568 39.1777L93.8877 39.2012C93.8924 39.1892 93.8966 39.177 93.9014 39.165L93.9814 39.1973L94.0762 39.2354L95.8281 39.5479L94.1953 38.5693L93.8008 38.332L93.7031 38.9941C93.6056 38.9833 93.5117 38.9755 93.4219 38.9717ZM93.7031 38.9941C93.8024 39.0052 93.9055 39.0193 94.0117 39.0391L93.9814 39.1973L93.6904 39.0801L93.7031 38.9941ZM83.1768 37.3037C83.0596 37.5728 82.9507 37.8383 82.8506 38.1006L84.1953 39.1182L85.0908 37.7617L83.1768 37.3037ZM79.7285 32.8438L79.8438 32.8906C79.4674 33.5141 79.1197 34.1668 78.7988 34.8477C78.4975 35.503 78.2323 36.1555 78.002 36.8037L73.29 35.1289C73.5727 34.3337 73.8953 33.544 74.2559 32.7598L74.2754 32.7168C74.6634 31.8934 75.0887 31.0958 75.5518 30.3271L79.7285 32.8438ZM88.6387 28.8477C88.828 28.8477 89.0222 28.8681 89.2217 28.9062L89.1533 29.2637L90.1904 29.4502L90.1436 29.2021C90.3719 29.3029 90.6068 29.4244 90.8467 29.5684L90.7344 30.1895C90.6383 30.2005 90.5432 30.2135 90.4492 30.2295L90.0615 30.876L90.5947 30.9717L90.5107 31.4404C90.3129 32.6076 89.9913 33.7805 89.5488 34.96L88.8408 34.834C88.8579 34.7382 88.8745 34.6421 88.8916 34.5459L86.1748 32.8223C86.1489 32.8486 86.1224 32.8748 86.0967 32.9014L85.7119 32.5293L84.709 31.8926C84.9654 31.4884 85.2352 31.113 85.5186 30.7676C86.5745 29.4878 87.6147 28.8477 88.6387 28.8477ZM88.2959 33.8174C88.3822 33.8332 88.498 33.8477 88.6387 33.8477C88.7758 33.8476 88.9037 33.8347 89.0215 33.8164C89.0297 33.7706 89.0377 33.7246 89.0459 33.6787L88.6006 33.3105L88.2959 33.8174ZM88.5322 32.5117L88.4121 33.1416L88.4443 33.168L88.6865 32.6699L88.8711 32.8594L88.6064 33.3008L89.0488 33.6641C89.0789 33.495 89.1094 33.3254 89.1396 33.1553L89.1426 33.1377L89.3027 33.3027L89.1758 32.9609C89.1943 32.8629 89.2123 32.7658 89.2305 32.6699L88.7461 32.5459L88.6387 32.5186L88.5059 32.4844L88.5322 32.5117ZM88.3818 33.2969L88.4395 33.1777L88.4092 33.1533L88.3818 33.2969ZM89.0508 32.624L89.1758 32.9609C89.1669 33.0079 89.1584 33.0551 89.1494 33.1025L89.1445 33.1289L89.1426 33.1377L88.8711 32.8594L89.0176 32.6152L89.0508 32.624ZM88.5361 32.4922L88.7461 32.5459L88.6865 32.6699L88.5322 32.5117L88.5361 32.4922ZM96.377 27.0557L96.2598 27.7051L100.174 28.8535C100.156 28.9157 100.15 28.9414 100.151 28.9355C100.134 29.015 100.118 29.0902 100.103 29.1611L96.1523 28.3066L96.0723 28.75L99.998 29.6367C99.9875 29.6835 99.9744 29.7326 99.9629 29.7822C99.8943 30.1353 99.8162 30.5454 99.7266 31.0127L95.8018 30.2598L95.6836 30.9189L94.6904 30.7402C94.8419 29.9477 94.9667 29.2846 95.0703 28.752C95.1023 28.624 95.1667 28.3357 95.2627 27.8877C95.3368 27.5422 95.468 27.1207 95.6562 26.623L96.377 27.0557ZM88.8857 30.665L89.5986 30.793L90.0293 29.9043L89.0645 29.7314L88.8857 30.665ZM88.0137 30.5078L88.2832 30.5566L87.8994 29.5215L87.3496 29.4229L88.0137 30.5078ZM85.7354 26.7812C85.1897 27.1148 84.6532 27.4996 84.127 27.9355C83.3183 28.594 82.5705 29.3161 81.8828 30.0996L80.4863 29.2148C80.7143 28.8555 80.9556 28.5056 81.209 28.166L78.915 25.9434C79.5564 25.2813 80.2343 24.6576 80.9492 24.0742C81.6433 23.5001 82.3695 22.9782 83.1279 22.5146L85.7354 26.7812ZM89.9092 29.1055C89.9484 29.1205 89.9878 29.136 90.0273 29.1523L89.9053 29.1289C89.9068 29.1211 89.9077 29.1132 89.9092 29.1055ZM97.3359 21.332C97.6523 21.4684 97.9727 21.6233 98.29 21.8018L102.138 23.9668L100.466 28.0527C100.42 28.1656 100.379 28.2695 100.343 28.3643L95.6719 26.584C95.7236 26.4483 95.7788 26.3069 95.8389 26.1602C95.6913 26.0771 95.5296 25.9989 95.3555 25.9238L97.3359 21.332ZM91.374 20.1523C91.6764 20.1523 91.9795 20.1603 92.2812 20.1777L92.0244 24.5996L92.5098 24.7979L92.5146 24.79C92.5466 24.8056 92.5776 24.8231 92.6094 24.8389L93.2549 25.1025L94.0947 20.3916C94.3802 20.4424 94.6641 20.5015 94.9463 20.5684C94.9524 20.5698 94.9597 20.5708 94.9658 20.5723C94.9737 20.5741 94.9814 20.5762 94.9893 20.5781C95.2244 20.633 95.4567 20.6924 95.6875 20.7568L95.0146 23.1631L95.0156 23.1641L94.3486 25.5498L94.5527 25.6338C94.3248 25.5647 94.0812 25.5002 93.8223 25.4404C93.1222 25.2724 92.4101 25.1772 91.6855 25.1562L91.374 25.1523C89.7421 25.1524 88.1799 25.52 86.6875 26.2559L85.9746 24.333C86.7981 24.0275 87.6941 23.8477 88.6387 23.8477L89.0303 23.8574C89.061 23.8589 89.0915 23.8614 89.1221 23.8633L88.4639 20.4268C89.4241 20.243 90.3959 20.1524 91.374 20.1523Z" fill="#7D7D7D"/>
<path d="M46.5596 48.3867L47.6426 53.2686C47.0162 53.4075 46.3732 53.4805 45.7207 53.4805C45.442 53.4805 45.1205 53.4647 44.7725 53.416L45.4648 48.4639V48.4609C45.4892 48.4644 45.514 48.4703 45.54 48.4727L45.7207 48.4805C46.0001 48.4805 46.2792 48.4477 46.5586 48.3857L46.5596 48.3867ZM56.1924 48.4268L56.9229 53.373C56.4719 53.4397 55.9997 53.4805 55.5127 53.4805C55.3265 53.4805 55.1176 53.4725 54.8926 53.4512L55.3652 48.4736V48.4707L55.5127 48.4805C55.7269 48.4805 55.9529 48.46 56.1914 48.4248L56.1924 48.4268ZM72.9199 48.2949L74.7842 50.252C74.4265 50.5927 74.0524 50.9156 73.6631 51.2197C73.2904 51.5109 72.8979 51.7852 72.4854 52.0352L70.625 48.9658C69.9441 48.9592 69.1559 48.8305 68.3633 48.4707L69.3838 53.2832C68.7725 53.4128 68.1469 53.4805 67.5127 53.4805C66.5124 53.4805 65.3803 53.3048 64.2627 52.7734L66.4102 48.2578C66.6481 48.3709 66.9183 48.4411 67.2217 48.4678L67.5127 48.4805C68.5366 48.4804 69.561 48.0802 70.585 47.2803C71.0825 46.8915 71.5409 46.456 71.9629 45.9766L72.9199 48.2949ZM66.793 29.8076C66.8985 29.8077 66.9877 29.8348 67.0615 29.8867L66.793 30.2686V30.4551L67.2998 30.3867C67.3114 30.4724 67.3203 30.5672 67.3203 30.6719V30.96C67.3107 31.1918 67.2898 31.4452 67.2627 31.7207L67.2617 31.7197L66.915 31.6855L66.793 31.665V31.6738L67.0752 31.7012C67.0745 31.7047 67.0739 31.7083 67.0732 31.7119L67.2598 31.7432C67.255 31.791 67.2494 31.8395 67.2441 31.8887L67.0449 31.8555C67.0401 31.8797 67.035 31.9037 67.0303 31.9277L67.2363 31.9619C67.2256 32.058 67.2158 32.1568 67.2031 32.2578C67.1829 32.2629 67.1617 32.2669 67.1396 32.2715L67.1953 32.3232C67.1885 32.3767 67.1793 32.4306 67.1719 32.4854C67.1415 32.5199 67.1102 32.5573 67.0771 32.5967L67.1494 32.6494C67.0916 33.0586 67.0227 33.5041 66.9365 33.9844L66.7861 34.8994C66.6302 35.8172 66.4566 36.744 66.2646 37.6797C65.971 39.1234 65.7331 40.3872 65.5518 41.4707L61.4258 40.6865C61.3783 40.9306 61.332 41.1793 61.2822 41.4316C61.1873 41.93 61.0969 42.4027 61.0117 42.8496L65.0654 43.3633C65.0637 43.3254 65.0617 43.2879 65.0605 43.251L65.0566 43.0078L65.0703 42.6064C65.0958 42.2115 65.1503 41.8503 65.1787 41.6611L65.5137 41.7109C65.2472 43.3386 65.1124 44.5386 65.1123 45.3115C65.1123 45.729 65.1455 46.1054 65.208 46.4404L65.2061 46.4414L64.915 46.4951L64.7441 47.3984L64.7402 47.4219L64.7354 47.4443C64.4866 48.688 63.8792 49.6289 63.3105 50.2705L60.1309 47.4521C60.0339 47.9558 59.9469 48.3815 59.8896 48.6572L59.1514 48.5371L59.2109 48.6514L59.8613 48.7959C59.8498 48.8487 59.843 48.8926 59.835 48.9248L59.2822 48.7861L61.001 52.0312C60.7217 52.1792 60.4379 52.3133 60.1562 52.4365L60.0957 52.4629L60.0342 52.4883C59.732 52.611 59.4273 52.7251 59.1211 52.8291L57.6055 48.3672L57.0703 48.2334C57.411 48.1363 57.7719 48.011 58.1523 47.8564C58.3368 47.7757 58.5048 47.6911 58.6592 47.6094L58.6611 47.6123L58.7197 47.7236L59.9092 47.5898C59.8973 47.4841 59.8773 47.3527 59.8467 47.2012L59.5684 46.9541L59.5664 46.9531C59.7097 46.7915 59.799 46.6293 59.832 46.4639L61.3203 38.6396C61.7683 37.1997 62.329 35.7919 63.001 34.416C63.7049 33.0401 64.3925 31.9355 65.0645 31.1035C65.2068 30.9288 65.3456 30.7732 65.4775 30.6338L66.5625 30.4863L66.2695 29.9697C66.4598 29.8618 66.6347 29.8076 66.793 29.8076ZM49.665 46.4219C49.7548 46.6637 49.8211 46.901 49.8662 47.1299L51.1797 48.4561L51.2822 48.5605L54.9404 48.1494L54.9434 48.1484C54.9499 48.207 54.9616 48.2539 54.9844 48.2881C55.0054 48.33 55.0389 48.3644 55.084 48.3926L52.4424 52.6387C52.0329 52.3838 51.6255 52.0485 51.2588 51.6299C51.1008 51.7411 50.9411 51.8511 50.7764 51.9551L48.6133 48.5293L48.4854 48.3252L48.3613 48.1289L47.7666 47.9238C47.7766 47.9184 47.7869 47.9137 47.7969 47.9082L48.335 48.0869L48.1074 47.7266L48.1064 47.7256C48.3349 47.5814 48.5645 47.418 48.793 47.2324C49.1273 46.969 49.4173 46.6981 49.665 46.4219ZM44.9854 47.7549H44.9873C44.9651 47.8589 44.9521 47.9404 44.9521 48C44.9521 48.0947 44.9776 48.1736 45.0225 48.2402L45.0205 48.2432L40.8779 51.043C40.1799 50.0103 39.9521 48.911 39.9521 48C39.9521 47.4185 40.0477 46.9358 40.0957 46.7109L44.9854 47.7549ZM59.8916 48.6582C59.8815 48.7203 59.8717 48.7677 59.8652 48.7969L59.8613 48.7959C59.8702 48.7553 59.8789 48.7088 59.8896 48.6572L59.8916 48.6582ZM48.4854 48.3252L48.6133 48.5293L47.1357 48.2139C47.2746 48.1619 47.4129 48.1015 47.5518 48.0342L48.4854 48.3252ZM57.5791 48.2881L57.5771 48.2822L57.4756 48.2656L57.5791 48.2881ZM74.3027 41.6885L74.9355 41.8457C74.8198 41.9016 74.694 41.9485 74.5596 41.9834L75.2461 42.1104C75.2524 42.0759 75.259 42.0405 75.2656 42.0049L76.4189 43.8828C76.2429 43.9909 76.0534 44.0882 75.8535 44.1748L74.6211 43.5176C74.5583 43.6352 74.4924 43.7493 74.4277 43.8623L74.7568 44.0254L75.3975 44.3438C75.5551 44.2946 75.7072 44.2382 75.8535 44.1748L76.8262 44.6943C76.7759 44.7885 76.7214 44.8808 76.6689 44.9746L77.0664 45.1719C77.1788 45.7492 77.3425 46.2639 77.5557 46.7168C77.528 46.7638 77.5018 46.8116 77.4736 46.8584C77.2313 47.266 76.9729 47.6634 76.6973 48.0479L72.6338 45.1348L72.6328 45.1338C72.8232 44.8683 73.0054 44.5919 73.1768 44.3037C73.7148 43.4148 74.0877 42.5422 74.3008 41.6875L74.3027 41.6885ZM50.8564 43.5723L53.3096 44.0566L55.1318 44.416L55.293 43.5742L55.4795 43.6094L55.5391 44.0117C55.4542 44.1376 55.3682 44.2826 55.2861 44.4463L55.6035 44.5098C55.2113 46.5601 55.0054 47.6276 54.9844 47.7119C54.973 47.7631 54.9644 47.8114 54.957 47.8564L50.0215 47.0547C50.0459 46.9042 50.0727 46.7621 50.1016 46.6318C50.1005 46.6367 50.1004 46.641 50.0996 46.6445C50.1011 46.6376 50.105 46.6183 50.1123 46.582C50.1265 46.511 50.1479 46.4036 50.1768 46.2559C50.1803 46.2377 50.1838 46.2185 50.1875 46.1992L49.9053 46.1348C50.3007 45.6255 50.5538 45.0955 50.6641 44.5439L50.8555 43.5713L50.8564 43.5723ZM43.0107 45.6709L45.3555 46.4131L45.3936 46.4248C45.3314 46.6213 45.2657 46.8269 45.1924 47.04C45.1645 47.1235 45.1402 47.2025 45.1172 47.2764L42.7295 46.5332L40.3428 45.7891C40.3768 45.6798 40.4124 45.5696 40.4492 45.459L40.4561 45.4365L40.4639 45.415C40.525 45.2372 40.5802 45.0709 40.6289 44.917L43.0107 45.6709ZM45.8555 43.0869L45.9512 42.6035L46.2363 42.6592C46.0945 43.4035 45.972 44.0321 45.8643 44.5439C45.8352 44.7378 45.7918 44.9487 45.7393 45.1777L45.6396 45.1553L43.3057 44.6201L40.8682 44.0605C40.8975 43.9326 40.913 43.8485 40.9199 43.8027L40.9414 43.6572L40.9717 43.5137C41.0482 43.1502 41.1368 42.7109 41.2373 42.1924L45.8555 43.0869ZM55.6084 44.4814L55.5391 44.0117C55.6136 43.9012 55.6864 43.8051 55.7539 43.7236C55.7031 43.9896 55.6542 44.2421 55.6084 44.4814ZM71.3467 42.333L71.6123 41.9111L72.4131 42.3389C72.2799 42.5884 72.1516 42.8121 72.0244 43.0078C71.6085 43.6477 71.1606 43.9677 70.6807 43.9678L70.6045 43.9639C70.5157 43.9547 70.4383 43.9281 70.3711 43.8857L70.5332 43.6279L70.1113 43.3252L70.0811 43.3301C70.0668 43.2335 70.0566 43.1263 70.0566 43.0078C70.0567 42.837 70.1138 42.4246 70.2275 41.7705L70.2324 41.7803L71.3467 42.333ZM55.5127 43.4805L55.6553 43.4834C55.6987 43.4853 55.7463 43.4888 55.7979 43.4932C55.7869 43.5504 55.7754 43.607 55.7646 43.6631L55.4795 43.6094L55.4609 43.4805H55.5127ZM75.0527 43.1768C75.051 43.2174 75.0494 43.2494 75.0479 43.2705C75.0456 43.302 75.0434 43.3217 75.043 43.3262C75.0434 43.3222 75.0455 43.3052 75.0498 43.2734C75.054 43.242 75.0595 43.2007 75.0674 43.1484L75.0527 43.1455C75.0523 43.1568 75.0531 43.1674 75.0527 43.1768ZM57.4326 29.8076C57.7525 29.8077 57.9121 30.0642 57.9121 30.5762V30.96C57.8672 31.7237 57.7291 32.8234 57.502 34.2598L57.3662 34.1738C57.2743 34.3295 57.1818 34.4893 57.0898 34.6533L57.0146 34.7852C57.1536 34.7984 57.287 34.8061 57.4141 34.8066C57.1611 36.3467 56.8171 38.2327 56.377 40.4639C56.2324 41.223 56.0977 41.9225 55.9756 42.5625L51.2402 41.6279L51.4326 40.6562C51.654 39.5492 51.9769 38.4196 52.3975 37.2666L54.375 37.6377L54.4648 37.6543L53.292 37.208H52.7168V36.9883L52.6924 36.9795V37.208H52.4189C52.6005 36.7138 52.7985 36.2146 53.0166 35.7119C53.7525 34.0161 54.5363 32.6082 55.3682 31.4883C55.5483 31.2457 55.724 31.0308 55.8906 30.8408L56.2871 30.8643H57.0068L56.9795 30.9043L57.3516 30.9268L57.3135 30.8643H57.4326V30.6719H57.1943L57.166 30.6279L57.1367 30.6719H56.0439C56.0783 30.6351 56.1117 30.5989 56.1455 30.5645L57.0488 30.4385L56.792 30.0234C57.0239 29.8796 57.2377 29.8076 57.4326 29.8076ZM75.0781 40.541L76.9844 40.5664H77.0566C76.96 41.2354 76.9025 41.9004 76.8848 42.5615L75.584 42.0078L75.2793 41.9316C75.2747 41.9563 75.2701 41.9807 75.2656 42.0049L75.21 41.915L74.3027 41.6885L74.3008 41.6875C74.3791 41.3731 74.4382 41.0617 74.4727 40.752C74.483 40.6378 74.4836 40.5304 74.4805 40.4297L75.0781 40.541ZM72.002 34.0225C71.9634 34.2634 71.9199 34.5107 71.875 34.7637C71.8615 34.8493 71.8458 34.9348 71.832 35.0205C72.4904 34.728 73.237 34.5518 74.04 34.5518C74.7664 34.5518 75.5546 34.7015 76.3232 35.0693L75.5645 36.6533L76.2588 36.793C76.1575 37.2977 76.0788 37.6837 76.0273 37.9297L75.8584 38.8271L74.6338 38.5977L74.165 39.5791L74.1641 39.5801C74.1265 39.5622 74.0853 39.5518 74.04 39.5518C73.9577 39.5518 73.8794 39.5766 73.8037 39.623L73.8027 39.6221L72.9844 38.2891L71.3037 37.9746C71.2578 38.2079 71.2111 38.4417 71.1631 38.6758L71.1641 38.6768C71.1623 38.6853 71.1599 38.6936 71.1582 38.7021L71.2949 38.7793L72.0176 39.1816L73.4785 39.998C73.4407 40.0657 73.4038 40.1405 73.3682 40.2236C73.1584 40.755 72.9534 41.231 72.7559 41.6523L71.877 41.4902L71.7012 41.7695L71.7021 41.7705L71.6123 41.9111L70.7939 41.4746L70.7275 41.4385L70.7266 41.4395L70.3252 41.2246C70.3263 41.2184 70.328 41.2123 70.3291 41.2061L70.9736 41.3242L71.6279 41.0205L71.0303 40.8721L70.3633 41.0234C70.3879 40.8915 70.4129 40.753 70.4404 40.6084C70.5395 40.076 70.6342 39.5696 70.7236 39.0898L71.0547 39.2314C71.049 39.2598 71.0437 39.2882 71.0381 39.3164C71.0395 39.3129 71.0416 39.3092 71.043 39.3057L71.0703 39.2393C71.1042 39.1602 71.141 39.079 71.1807 38.998C71.1541 38.9949 71.1276 38.9938 71.1016 38.9912C71.0853 39.0719 71.0705 39.1521 71.0547 39.2314L70.7236 39.0898C70.8654 38.3298 70.9946 37.6356 71.1123 37.0078C71.1532 36.817 71.2334 36.4171 71.3555 35.8086L71.3564 35.8096L71.4756 35.833L71.3906 35.6934L71.3799 35.6914C71.4723 35.2303 71.5855 34.659 71.7207 33.9775L72.002 34.0225ZM70.6641 41.4678L70.2461 41.6621C70.2538 41.6185 70.2614 41.5739 70.2695 41.5283C70.3897 41.492 70.5232 41.4694 70.6641 41.4678ZM70.7939 41.4746C70.7569 41.4722 70.7218 41.4679 70.6885 41.4678L70.7402 41.4463L70.7939 41.4746ZM70.6807 41.4678C70.6752 41.4678 70.6695 41.4677 70.6641 41.4678L70.6807 41.4609V41.4678ZM70.7402 41.4463L70.6885 41.4678H70.6807V41.4609L70.7266 41.4395L70.7402 41.4463ZM44.0801 33.5674C44.1206 33.5982 44.1645 33.6223 44.2158 33.6348L44.3281 33.6484C44.3751 33.6484 44.4218 33.6377 44.4688 33.6211L44.4697 33.623L45.6738 37.0254L47.2188 37.3008C47.1251 37.8257 47.0271 38.3683 46.9209 38.9277C46.8082 39.5635 46.7011 40.1581 46.6006 40.7109L46.335 40.6592L46.4082 40.2871L46.3232 40.2725L44.209 39.8906L41.749 39.4453C41.8247 39.0267 41.9028 38.5846 41.9854 38.1191C41.673 37.9699 41.3631 37.786 41.0635 37.5596L44.0781 33.5703L44.0801 33.5674ZM77.5371 38.2803C77.429 38.6743 77.3324 39.0666 77.251 39.458L74.4434 40.0967H74.4414C74.4244 40.022 74.4045 39.9519 74.377 39.8877C74.3642 39.8429 74.3477 39.8034 74.3311 39.7676L77.5371 38.2803ZM72.0176 39.1816C72.3469 39.2877 72.6903 39.4393 73.0322 39.6543L72.9873 39.7236L72.0176 39.1816ZM47.832 29.7119C47.9085 29.7119 47.9727 29.7324 48.0264 29.7695L47.832 30.0488V30.1807L48.2021 30.1299C48.2106 30.1918 48.2168 30.2603 48.2168 30.3359L48.2012 30.6094C48.1848 30.8023 48.1534 31.0671 48.1104 31.4043L47.832 31.1045V31.4541L48.085 31.6074C48.0837 31.6171 48.0824 31.6269 48.0811 31.6367L47.832 31.4834V31.8545L48.0469 31.8838C48.0249 32.0442 48.0028 32.2168 47.9766 32.4004C47.9056 32.9779 47.8183 33.5902 47.7217 34.2383L47.3262 34.0215L47.2227 34.6699C47.21 34.6682 47.1973 34.6659 47.1846 34.6641L47.0186 34.5557C47.0027 34.5799 46.9849 34.6029 46.9688 34.627C47.0416 34.6409 47.1135 34.6539 47.1846 34.6641L47.2197 34.6865L47.2227 34.6699C47.37 34.6898 47.5131 34.6995 47.6504 34.7051C47.5292 35.49 47.3933 36.3247 47.2363 37.208H46.8174L47.0273 35.8936L44.8496 33.6123L44.5732 33.5713C44.6513 33.5233 44.7305 33.454 44.8086 33.3604C44.9686 33.1364 45.1122 32.8956 45.2402 32.6396C45.4519 32.2485 45.6563 31.8968 45.8525 31.584L46.6846 31.6982L46.6006 31.8203C46.949 32.0627 47.3113 32.167 47.6182 32.1992L47.6455 32.0264L47.1191 31.7578L47.6758 31.834L47.832 31.8545V31.4834L47.7412 31.4277L47.7432 31.418C47.744 31.4125 47.7442 31.4069 47.7451 31.4014L47.7812 31.4238L47.832 31.4316V31.1045L47.7939 31.0645C47.7774 31.1751 47.7633 31.2877 47.7451 31.4014L47.1436 31.0381L47.1328 31.0537L47.7412 31.4277L47.6758 31.834L47.1182 31.7568L47.1191 31.7578L46.6846 31.6982L46.7676 31.5781L46.7627 31.5762L46.083 31.2285C46.7653 30.2177 47.3485 29.7122 47.832 29.7119ZM63.9932 36.2832L64.7285 36.4248L64.2207 36.2002H63.5654L63.9932 36.2832ZM56.8516 36.2217C56.8541 36.2144 56.8578 36.2075 56.8604 36.2002H56.8066L56.8516 36.2217ZM56.3467 35.9775L56.7656 36.1797L56.9902 34.8291L56.3467 35.9775ZM62.6768 36.0273L62.7002 36.0322V35.5264L62.6768 35.5156V36.0273ZM66.1602 35.0508L66.3828 35.1738C66.4026 35.0758 66.425 34.9693 66.4482 34.8535L66.3066 34.8291L66.1602 35.0508ZM55.5322 33.0449L54.875 34.0186C55.6024 34.5102 56.3554 34.7198 56.998 34.7832L57.125 34.0225L56.8018 33.8184L55.583 33.0527L55.5322 33.0449ZM72.0723 32.208C72.1653 31.7429 72.2427 31.3027 72.3057 30.8877H72.3203V31.0645L72.3164 31.168C72.3142 31.2205 72.3094 31.2733 72.3066 31.3262L77.168 32.1494C77.1106 32.4886 77.0462 32.8352 76.9756 33.1885C76.8916 33.6131 76.8126 34.0108 76.7393 34.3809L71.835 33.4082L71.834 33.4072L72.0723 32.208ZM43.2158 30.2285C43.2161 30.2258 43.2166 30.2232 43.2168 30.2207C43.2193 30.194 43.2201 30.1773 43.2207 30.1699C43.2205 30.1733 43.2203 30.1812 43.2197 30.1924C43.2193 30.2015 43.2183 30.2143 43.2178 30.2305L43.2832 30.2695L43.3057 30.334L43.2168 30.3252V30.3359L43.2227 30.5352C43.2275 30.6143 43.2361 30.7059 43.25 30.8076L43.416 30.7842C43.4261 30.7669 43.4362 30.7496 43.4463 30.7324L43.4629 30.7783L43.998 30.7051L44.3252 30.9043C44.2883 30.9879 44.2543 31.0708 44.2217 31.1523C44.0088 31.1632 43.811 31.2036 43.6357 31.2656L43.6416 31.2822L44.1445 31.3506C43.9477 31.8916 43.8486 32.3852 43.8486 32.832C43.8486 33.1369 43.9015 33.3543 44.002 33.4883L42.8076 33.3135C42.8116 33.2862 42.8144 33.2586 42.8184 33.2314L38.9043 33.7344C38.8832 33.5698 38.8691 33.4108 38.8604 33.2598L38.8486 32.832L38.8525 32.5762C38.8712 31.9829 38.9534 31.4172 39.0742 30.8887L42.418 31.6523L40.7402 30.4541C40.7409 30.4531 40.7417 30.4514 40.7432 30.4492L42.6699 31.71L42.8877 31.7598L43.0049 31.8564C43.0076 31.8345 43.011 31.8128 43.0137 31.791V31.7891L43.1367 31.8164L43.0244 31.7002L43.0264 31.6934C43.0275 31.6854 43.0282 31.6769 43.0293 31.6689L42.958 31.6299L42.957 31.6289L42.9502 31.625C42.9507 31.6241 42.9507 31.623 42.9512 31.6221L41.2588 29.8486C41.1377 29.9642 41.0414 30.0709 40.9678 30.1592L42.2988 31.2686L40.7578 30.4248C40.761 30.419 40.7646 30.4122 40.7686 30.4043L40.8047 30.332L40.8428 30.2607C41.0484 29.8806 41.2572 29.515 41.4688 29.167L43.2158 30.2285ZM65.2695 32.4307L64.9434 32.8926L66.2402 33.0996L65.2695 32.4307ZM47.2256 32.666L47.4502 32.8027L47.5186 32.8184L47.5498 32.625L47.2256 32.666ZM66.6758 32.3037C66.7161 32.3062 66.7556 32.3076 66.793 32.3076V31.9502L66.7109 31.874L65.9072 31.7402L66.6758 32.3037ZM66.793 32.3076C66.8509 32.3076 66.9055 32.3036 66.957 32.2988C66.9679 32.2441 66.9792 32.1888 66.9902 32.1328L66.793 31.9502V32.3076ZM60.9082 20.1621C61.8625 20.2083 62.9043 20.4251 63.9238 20.9453L62.7871 23.1709L62.7881 23.1719L62.6143 23.5098C62.8099 23.3287 63.0084 23.1524 63.21 22.9814C63.587 22.6549 63.9805 22.3451 64.3916 22.0586L66.3203 24.8262C66.4735 24.8136 66.6315 24.8076 66.793 24.8076L67.1592 24.8203C67.7547 24.8597 68.4026 24.9992 69.0469 25.2891C68.2078 25.5125 67.3437 26.0103 66.4561 26.7842C65.6899 27.4325 64.9244 28.2383 64.1582 29.2002L63.7988 29.1748L64.0186 29.3789C63.5837 29.9358 63.1478 30.5423 62.7129 31.2002H62.6641L62.7129 30.9121C62.8729 29.8881 62.9521 29.0877 62.9521 28.5117C62.9521 28.076 62.9202 27.683 62.8584 27.332H62.8604L64.5986 27.0264L64.5723 26.9785L63.6016 26.041L62.0762 24.5654L61.6514 25.3984L61.6504 25.3994C61.3282 25.2352 60.9467 25.1524 60.5049 25.1523C59.2569 25.1523 57.9444 25.8081 56.5684 27.1201C55.9496 27.6957 55.3505 28.3557 54.7705 29.0996L53.5273 29.0342L54.3174 29.7021C53.7697 30.4596 53.2403 31.2951 52.7285 32.208H52.6807C52.9367 30.608 53.0645 29.1835 53.0645 27.9355C53.0644 27.7388 53.0532 27.5531 53.0371 27.3779H53.04L54.3076 27.2607L53.0635 26.1699L52.7822 26.2969L52.7793 26.2979C52.6986 26.1173 52.6035 25.9587 52.4883 25.8242C52.3912 25.711 52.2862 25.6119 52.1729 25.5273L52.2354 25.4434L51.6973 24.9717C52.1511 24.4543 52.6245 23.9631 53.1182 23.501L53.4219 23.2188C53.7287 22.9401 54.0458 22.6737 54.373 22.4219L54.4336 22.5L55.165 21.5215C55.4828 21.7588 55.7721 22.0172 56.0332 22.291L56.2852 22.5703L56.4531 22.7744C56.8327 23.2543 57.125 23.7585 57.3477 24.2568L56.1846 24.7754L56.2959 24.9199C56.6492 24.8502 57.0289 24.8076 57.4326 24.8076L57.7822 24.8193C58.2729 24.8505 58.805 24.9498 59.3438 25.1504L58.6797 22.9238L57.9658 20.5283C58.7704 20.2884 59.6218 20.1523 60.5049 20.1523L60.9082 20.1621ZM42.958 31.6299L43.125 31.8047L43.1367 31.8164L43.0137 31.7891L42.8877 31.7598L42.2988 31.2686L42.958 31.6299ZM65.8184 31.6514L66.6133 31.7842L66.459 31.6406L65.8672 31.582L65.8184 31.6514ZM57.4326 31.7432L57.5029 31.7529L57.5791 31.2939L57.4326 31.0566V31.7432ZM56.5273 31.5723L56.6016 31.6357L57.4326 31.7432V31.0566L57.373 30.96H56.9424L56.5273 31.5723ZM66.459 31.6406L66.793 31.6738V31.665L66.418 31.6025L66.459 31.6406ZM46.7676 31.5781L46.7705 31.5801C46.7735 31.5743 46.7763 31.5683 46.7793 31.5625L46.7676 31.5781ZM47.832 31.4541V31.4316L47.7812 31.4238L47.832 31.4541ZM43.0791 29.6943L44.5439 30.4424L44.5459 30.4434C44.4658 30.6002 44.3915 30.7541 44.3252 30.9043L43.998 30.7051L43.6045 30.4658C43.5516 30.5528 43.4993 30.642 43.4463 30.7324L43.3057 30.334L43.4072 30.3447L43.2832 30.2695L43.0791 29.6943ZM66.793 30.8594L66.9961 30.8877H67.2324C67.2415 30.8393 67.2502 30.7914 67.2588 30.7441H66.793V30.8594ZM57.1943 30.6719L57.3135 30.8643H57.0068L57.1367 30.6719H57.1943ZM57.4326 30.8643H57.6514L57.6836 30.6719H57.4326V30.8643ZM66.458 30.7441H65.9453L66.4131 30.8076L66.458 30.7441H66.709L66.7725 30.8564L66.793 30.8594V30.7441H66.709L66.668 30.6719L66.5967 30.5469L66.458 30.7441ZM66.6475 30.4746L66.793 30.4551V30.2686L66.6475 30.4746ZM44.5439 30.4424L42.3174 29.3057L40.0908 28.168C40.2714 27.8145 40.4672 27.466 40.6748 27.123L40.6943 27.0918C40.9498 26.6767 41.2199 26.2722 41.5059 25.8799L45.5342 28.8154C45.5394 28.8169 45.5446 28.8179 45.5498 28.8193C45.3407 29.106 45.1417 29.4038 44.9521 29.7119C44.8003 29.9628 44.6664 30.2074 44.5459 30.4434L44.5439 30.4424ZM57.3193 30.4004L57.4326 30.3848V30.2344L57.3193 30.4004ZM57.4326 30.2344V30.3848L57.7373 30.3418L57.7441 30.3057L57.7852 30.3125L57.5303 30.0889L57.4326 30.2344ZM47.7305 30.1943L47.832 30.1807V30.0488L47.7305 30.1943ZM72.5049 28.6084C72.5049 28.1655 72.4724 27.765 72.4121 27.4072H72.4141L77.3447 26.5771C77.46 27.2612 77.5049 27.9458 77.5049 28.6084C77.5049 29.0347 77.4862 29.4658 77.4531 29.8975L72.4678 29.5146L72.4658 29.5137C72.48 29.3288 72.492 29.1508 72.498 28.9795L72.5049 28.6084ZM51.2754 20.1592C51.6017 20.173 51.9379 20.2081 52.2803 20.2705L51.3838 25.1895L51.3828 25.1904C51.2464 25.1656 51.1027 25.1523 50.9521 25.1523C49.9283 25.1524 48.8562 25.6002 47.7363 26.4961C46.9467 27.1464 46.2421 27.8899 45.6211 28.7256L45.2529 28.3291L43.5518 26.498C43.886 26.1875 44.4217 25.7394 45.1426 25.3701L43.4453 23.6348C43.8017 23.2862 44.1728 22.9536 44.5576 22.6367L44.585 22.6143L44.6133 22.5918C44.9806 22.298 45.3645 22.0199 45.7656 21.7637L47.6523 24.7178C47.7117 24.7159 47.7716 24.7119 47.832 24.7119C48.5067 24.7119 49.2835 24.8407 50.0566 25.1934L49.4873 22.8291L48.9023 20.3984C49.5613 20.2397 50.2472 20.1524 50.9521 20.1523L51.2754 20.1592ZM62.7129 26.2002V26.7373C62.7091 26.726 62.704 26.7153 62.7002 26.7041V26.2002H62.7129ZM62.6768 26.2002V26.6426C62.6727 26.6314 62.6682 26.6204 62.6641 26.6094V26.2002H62.6768ZM70.4746 20.1621C71.4635 20.2122 72.5407 20.4484 73.5859 21.0098L72.4023 23.2109L72.4033 23.2119L71.2197 25.4141C70.8942 25.2395 70.5059 25.1524 70.0566 25.1523C69.7278 25.1523 69.3952 25.1975 69.0586 25.2861L67.7852 20.4492C68.5129 20.2576 69.2738 20.1523 70.0566 20.1523L70.4746 20.1621Z" fill="#7D7D7D"/>
<path d="M24.5908 38.0996L25.1387 43.0693C24.9808 43.0867 24.7169 43.1123 24.4102 43.1123C24.2716 43.1123 24.1179 43.1075 23.9531 43.0957L24.3086 38.1084L24.4102 38.1123C24.4558 38.1123 24.5157 38.1068 24.5898 38.0986L24.5908 38.0996ZM25.5205 37.9414L26.2178 42.8896C26.2238 42.8888 26.2458 42.8859 26.2812 42.8789C26.3166 42.8719 26.3728 42.8596 26.4453 42.8398L26.2373 42.8965L26.0244 42.9355C25.9425 42.9504 25.8612 42.9641 25.7812 42.9775L24.9512 38.0479L24.9502 38.0439C25.0063 38.0345 25.0665 38.0271 25.1299 38.0156C25.2421 37.985 25.3726 37.9623 25.5205 37.9414ZM30.9141 39.1758H29.126V42.8721H26.7139C26.6189 42.8721 26.5365 42.8729 26.4658 42.875L26.3154 37.8789L26.7139 37.8721H30.9141V39.1758ZM38.6895 38.4482L38.6582 38.5176C38.6695 38.5228 38.6811 38.5271 38.6924 38.5322L38.7158 39.166C38.5395 39.1724 38.3621 39.1758 38.1855 39.1758H37.4131L37.9922 42.7412C37.4517 42.8289 36.9073 42.8721 36.3623 42.8721H33.9502V37.8721H36.3623C37.1501 37.872 37.912 37.6942 38.6494 37.3418L38.6895 38.4482ZM23.9727 37.918C23.9872 37.9603 24.0039 37.9931 24.0264 38.0156C24.0475 38.0368 24.0762 38.0523 24.1113 38.0664V38.0693L22.252 42.7109C21.7511 42.5103 21.0997 42.1612 20.4902 41.5518C20.3818 41.4434 20.2836 41.3323 20.1914 41.2227C20.2733 40.8931 20.3154 40.5766 20.3154 40.2725C20.3154 39.9525 20.2837 39.7276 20.2197 39.5996C20.1557 39.4717 20.0269 39.4082 19.835 39.4082C19.7071 39.4084 19.579 39.4886 19.4512 39.6484C19.4128 39.6868 19.3732 39.7324 19.332 39.7852C19.2986 39.7012 19.269 39.6229 19.2441 39.5508L23.9707 37.9189L23.9727 37.918ZM40.6104 36.4316V36.4336C40.6228 36.433 40.6314 36.4329 40.6348 36.4326C40.641 36.4321 40.634 36.4327 40.6113 36.4355L40.7021 37.1465L43.3916 40.1396C43.0432 40.4527 42.68 40.733 42.3145 40.9844L42.3008 40.9941L42.2861 41.0039C41.8827 41.2772 41.4597 41.5279 41.0176 41.751L39.5381 38.8184C39.272 38.7564 38.9869 38.6656 38.6924 38.5322L38.6895 38.4482L39.0059 37.7637L38.7656 37.2871L38.7646 37.2852C38.8792 37.2273 38.9941 37.167 39.1074 37.1006L39.4824 36.8643C39.7122 36.7063 39.9146 36.5433 40.0928 36.3789C40.1515 36.393 40.2075 36.4041 40.2607 36.4121L40.2559 36.3896L40.2295 36.248C40.3467 36.1298 40.451 36.0102 40.542 35.8887L40.6104 36.4316ZM40.9062 38.918C40.9178 38.9167 40.9255 38.9163 40.9277 38.916L40.9258 38.9033C40.9191 38.908 40.9129 38.9134 40.9062 38.918ZM24.0479 36.873C23.9691 37.1038 23.9297 37.3406 23.9297 37.584C23.9297 37.624 23.9316 37.6614 23.9336 37.6963L23.9326 37.6973L18.9414 37.9902C18.9329 37.8447 18.9297 37.7083 18.9297 37.584C18.9297 36.7904 19.0605 36.0076 19.3164 35.2578L24.0479 36.873ZM41.0176 34.5596C41.0176 34.4766 41.0089 34.4024 40.9961 34.3359H40.999L45.9102 33.3975C45.9934 33.8332 46.0176 34.2296 46.0176 34.5596C46.0176 35.4074 45.8644 36.233 45.5752 37.0098L40.8896 35.2656L40.8877 35.2646C40.9732 35.0349 41.0176 34.8 41.0176 34.5596ZM40.1367 36.5176L40.3174 36.7188L40.2754 36.4912C40.2321 36.4993 40.1859 36.5079 40.1367 36.5176ZM24.3477 35.1484L24.4746 35.6143L24.4834 35.6455L24.4482 36.1387C24.4262 36.1676 24.4044 36.1964 24.3838 36.2256L24.2539 35.0498L24.3477 35.1484ZM25.7197 34.0527L26.1182 34.7959C25.883 34.9219 25.6497 35.068 25.418 35.2324L25.2383 35.3652C24.9785 35.5647 24.7576 35.7705 24.5752 35.9824L24.4834 35.6475V35.6455L24.4854 35.6143C24.4817 35.614 24.4781 35.6145 24.4746 35.6143L24.4727 35.6045C24.4772 35.6032 24.4818 35.6018 24.4863 35.6006L24.502 35.3838L24.4873 35.2969L21.4268 32.0498C21.7802 31.7166 22.1505 31.4196 22.5244 31.1543C22.9156 30.8767 23.3261 30.6195 23.7568 30.3887L25.7197 34.0527ZM25.9707 33.4277C26.038 33.4547 26.1089 33.4862 26.1836 33.5205L26.2207 34.7422C26.1865 34.7597 26.1523 34.7776 26.1182 34.7959L25.7197 34.0527L25.9707 33.4277ZM30.9141 29.1758V34.1758H28.4902C28.1159 34.1758 27.7452 34.2201 27.3789 34.3086C26.9586 33.9298 26.5348 33.6821 26.1836 33.5205L26.165 32.8799C26.3461 32.8744 26.5293 32.8721 26.7139 32.8721H27.4248L27.2324 31.7861L26.7969 29.3242C27.3563 29.2252 27.9222 29.1758 28.4902 29.1758H30.9141ZM38.1855 29.1758V34.1758H33.9502V32.8721H35.7617V29.1758H38.1855ZM38.5342 34.1689C38.4171 34.1732 38.3006 34.1758 38.1855 34.1758V29.1758C38.2395 29.1758 38.2961 29.175 38.3545 29.1729L38.5342 34.1689ZM38.9004 29.125C38.9059 29.1243 38.9115 29.1248 38.917 29.124L38.958 29.4365L39.8164 34.0342V34.0361C39.742 34.05 39.6623 34.0632 39.5781 34.0801C39.4614 34.0956 39.3453 34.1083 39.2305 34.1201L39.2129 33.9404L38.8555 30.4639L38.5977 29.1768C38.639 29.1685 38.68 29.1603 38.7207 29.1523V29.1475C38.7473 29.1447 38.7744 29.1409 38.8018 29.1377C38.8345 29.1314 38.8672 29.1251 38.8994 29.1191L38.9004 29.125ZM40.7881 28.9414C41.3888 28.9679 42.1089 29.0952 42.8555 29.4404L40.7568 33.9785L40.7559 33.9795C40.6941 33.951 40.6217 33.9356 40.5381 33.9355C40.4791 33.9355 40.3984 33.943 40.2959 33.9561L39.9805 31.4756L39.665 28.9951C39.8465 28.972 40.1685 28.9355 40.5381 28.9355L40.7881 28.9414ZM24.043 33.1299V33.1338C24.0502 33.1321 24.0572 33.1296 24.0645 33.1279L24.0654 33.127C24.0559 33.1279 24.0481 33.1293 24.043 33.1299Z" fill="#7D7D7D"/>
<path d="M16.416 46.4297L19.4912 50.3721C19.0529 50.714 18.598 51.0359 18.1279 51.3389L18.0947 51.3604L18.0605 51.3809C17.5638 51.69 17.051 51.9717 16.5215 52.2207L14.8887 48.749C14.49 48.7982 14.0906 48.8242 13.6914 48.8242C13.2191 48.8242 12.7238 48.7888 12.2168 48.7041L12.5547 50.8594L12.9404 53.3291C12.2991 53.4294 11.6522 53.4805 11.0029 53.4805C10.3571 53.4804 9.70313 53.4297 9.04883 53.3164L9.90234 48.3896V48.3877C10.1567 48.4317 10.4208 48.4618 10.6953 48.4736L11.0029 48.4805C12.5069 48.4805 13.979 48.0317 15.4189 47.1357C15.7669 46.9115 16.0988 46.6754 16.415 46.4287L16.416 46.4297ZM6.39551 45.7207C6.58312 46.1157 6.80633 46.4757 7.06738 46.7998C7.31363 47.0871 7.58341 47.3372 7.87598 47.5508L4.92773 51.5898C4.30943 51.1385 3.75805 50.6214 3.27148 50.0537L3.22168 49.9961L3.17383 49.9365C2.65515 49.2926 2.22499 48.5977 1.87793 47.8672L6.39453 45.7217L6.39551 45.7207ZM21.0352 42.9561L21.4668 44.1143C21.4511 44.1201 21.4347 44.1252 21.4189 44.1309L21.6006 44.2373L23.7568 45.5029C23.5385 45.8752 23.3012 46.2386 23.0518 46.5947L23.0527 46.5957C23.0421 46.6112 23.0302 46.6261 23.0195 46.6416C23.0146 46.6485 23.0108 46.6562 23.0059 46.6631L23.0049 46.6621C22.6874 47.122 22.3482 47.5659 21.9854 47.9912L20.1514 46.4258C19.9109 46.6186 19.6647 46.8049 19.4102 46.9805L19.4092 46.9795C19.0382 47.2403 18.6488 47.4813 18.2393 47.6963L17.2158 45.748C17.8653 45.1473 18.4357 44.4911 18.9238 43.7764C19.3445 43.1816 19.6685 42.6157 19.8984 42.0801L21.0352 42.9561ZM20.0273 33.168C20.8973 31.728 21.3597 30.3302 21.4141 28.9746L21.4189 28.7041C21.4189 28.4507 21.4021 28.2105 21.3711 27.9834H21.373L26.3271 27.3076C26.3916 27.7806 26.4189 28.2481 26.4189 28.7041C26.4189 29.3847 26.3599 30.0592 26.2461 30.7246L23.7822 30.3027L21.5537 29.9219C21.6356 30.4089 21.667 30.8729 21.667 31.2959C21.667 31.7284 21.6391 32.1625 21.583 32.5967L25.1084 34.2656C24.868 34.7734 24.5992 35.2697 24.3066 35.7539L24.2949 35.7734L24.2822 35.7939C24.1812 35.9576 24.0759 36.1186 23.9697 36.2793C24.0456 36.3678 24.1188 36.4572 24.1875 36.5488C24.0163 36.8802 23.9297 37.225 23.9297 37.584C23.9297 37.808 23.9624 37.9516 24.0264 38.0156C24.0904 38.0796 24.2182 38.1123 24.4102 38.1123C24.5182 38.1123 24.7054 38.0865 24.9727 38.041C25.0577 38.2884 25.1172 38.5083 25.1562 38.6855L20.3203 39.751L20.6318 40.0879L25.3076 39.8887C25.3133 40.0212 25.3154 40.1499 25.3154 40.2725C25.3154 41.0238 25.2143 41.7436 25.0469 42.4199L21.5049 41.543L23.0586 43.1016C23.1044 43.0559 23.1455 43.0104 23.1846 42.9678C23.2228 42.9229 23.2547 42.8849 23.2783 42.8545L21.8633 41.7578L23.4014 42.6816C23.4007 42.6827 23.3971 42.6886 23.3906 42.7002L23.3408 42.7881C23.3455 42.7823 23.3509 42.7772 23.3555 42.7715L23.3389 42.791L23.3086 42.8467L23.2168 42.9883C22.9796 43.3549 22.7287 43.7116 22.4629 44.0566L21.0352 42.9561L20.7441 42.1758C20.6582 42.2956 20.5718 42.4143 20.4824 42.5303L19.8984 42.0801C19.9242 42.0201 19.9493 41.9606 19.9727 41.9014C20.199 41.8872 20.4085 41.8415 20.5938 41.7725L20.4062 41.2715L20.1934 41.2188L20.1924 41.2178C20.2735 40.89 20.3154 40.5751 20.3154 40.2725C20.3154 39.9525 20.2837 39.7276 20.2197 39.5996C20.202 39.5643 20.1788 39.5344 20.1514 39.5088L22.5723 36.9258L20.7354 35.5156C20.6653 35.666 20.5916 35.814 20.5146 35.96L20.3525 36.9482L20.3535 36.9492L19.957 39.3584L20.0293 39.4365C19.9742 39.4174 19.9091 39.4082 19.835 39.4082C19.7071 39.4084 19.579 39.4886 19.4512 39.6484C19.3676 39.7321 19.2779 39.8502 19.1807 40.002L19.0039 40.041L19.1143 40.1074C19.0832 40.1591 19.0519 40.2142 19.0195 40.2725C18.8014 40.6095 18.5697 40.9227 18.3301 41.2168C18.1853 41.0594 18.0695 40.89 17.9834 40.7178C17.9745 40.7 17.9669 40.6821 17.959 40.665L17.1182 40.457L16.4688 40.6006L16.3145 40.373C16.1765 40.4518 16.0361 40.5285 15.8926 40.6016L15.7627 40.3467C15.7663 40.4034 15.7691 40.443 15.7725 40.4668C15.7767 40.4971 15.7788 40.4962 15.7715 40.4688L15.6895 40.4902L15.8965 40.7266L16.1904 41.0645L17.0625 42.0654C17.1322 41.9597 17.1959 41.8574 17.2549 41.7588L17.1758 41.6426L17.6787 41.9375C17.3286 42.2851 16.9608 42.5956 16.5713 42.8643C16.3561 43.0179 16.1366 43.1518 15.9141 43.2686L15.877 43.1963L15.4805 42.4414L14.3779 41.501C14.5073 41.3493 14.6259 41.1912 14.7393 41.0303L14.6074 40.7773L13.9961 40.9395L14.459 43.7607C14.2072 43.802 13.9515 43.8242 13.6914 43.8242C12.9336 43.8242 12.3228 43.6396 11.8584 43.2715L11.2246 41.6748L10.9414 41.75C10.8736 41.4944 10.8221 41.2159 10.792 40.9131L10.7637 40.5117C11.5652 40.1936 12.3326 39.8354 13.0684 39.4414L13.2432 40.4033H13.2607L13.7256 40.3828L13.8516 40.0586L13.9033 40.375L14.3848 40.3545L14.0137 39.6455L14.2822 38.959C14.1965 38.9255 14.1179 38.8998 14.0479 38.8809C14.1001 38.8492 14.1532 38.8192 14.2051 38.7871L15.3291 40.0762C15.3281 40.0828 15.3272 40.09 15.3262 40.0977L15.3154 40.2725L15.3164 40.3135L15.5273 40.3037L15.5283 40.3047L15.7363 40.2949L16.2471 40.2734L16.2207 40.2354L15.6318 40.0898L14.7793 38.416C15.2645 38.0927 15.7355 37.7532 16.1875 37.3916C16.5689 37.0849 16.9295 36.7713 17.2725 36.4541L17.2744 36.4561L19.5156 38.8809L18.8477 37.0869L18.7441 36.8086L17.708 36.0371C18.2298 35.5227 18.7036 34.9963 19.127 34.4551C19.1921 34.4463 19.2579 34.439 19.3242 34.4326L19.2129 34.3477L19.2119 34.3467C19.5084 33.9604 19.7806 33.5678 20.0273 33.168ZM5.68066 42.3789C5.68963 42.6869 5.71104 42.984 5.74219 43.2705L5.74121 43.2715L0.770508 43.8125C0.705351 43.2137 0.675781 42.6083 0.675781 42C0.675781 41.1325 0.734112 40.2645 0.848633 39.3975L5.73828 40.042L5.61328 37.1758L5.95605 37.0391L6.06641 36.0195L2.05273 34.5615C2.32043 33.8247 2.62475 33.091 2.96289 32.3613L2.96875 32.3496L2.97363 32.3379C3.32445 31.5913 3.70095 30.8661 4.10254 30.165L8.44043 32.6504C8.10853 33.2298 7.79494 33.8341 7.49902 34.4639C6.28303 37.0879 5.67578 39.6 5.67578 42L5.68066 42.3789ZM13.3037 41.4629C13.1968 41.4806 13.0894 41.4962 12.9814 41.5098L13.1484 41.8594L13.3037 41.4629ZM21.624 41.5723L21.8633 41.7578L21.5049 41.543L21.624 41.5723ZM17.1758 41.6426L16.6963 41.3604L16.9111 41.2529L17.1758 41.6426ZM16.9111 41.2529L16.6963 41.3604L16.1904 41.0645L15.8965 40.7266L16.4688 40.6006L16.9111 41.2529ZM21.2939 41.3311C21.2966 41.3284 21.2982 41.3249 21.3008 41.3223L21.2959 41.3184L21.2314 41.2676L21.2939 41.3311ZM13.3711 41.1055L13.3936 41.2314L13.4512 41.084L13.3711 41.1055ZM15.6318 40.0898L15.7363 40.2949L15.5273 40.3037L15.3291 40.0762C15.3337 40.0459 15.3378 40.026 15.3398 40.0176L15.6318 40.0898ZM19.1807 40.002C19.1592 40.0355 19.1364 40.0706 19.1143 40.1074L19.0039 40.041L19.1807 40.002ZM14.0137 39.6455L13.8516 40.0586L13.6934 39.0938C13.7012 39.0892 13.709 39.0846 13.7168 39.0801L14.0137 39.6455ZM15.2754 29.5684C15.512 29.5684 15.7183 29.6058 15.8945 29.6807L15.7715 29.9707L15.9521 30.2178C15.9943 30.1379 16.0342 30.0616 16.0693 29.9873L16.4229 30.1543C16.5849 30.4345 16.667 30.8145 16.667 31.2959C16.667 31.6448 16.6333 31.9847 16.5654 32.3154L16.0176 31.8945L15.2988 31.7988C15.2907 31.8069 15.2835 31.8161 15.2754 31.8242V31.8945L15.6758 32.9365L15.2754 32.5967L15.001 32.3652C14.9359 32.4421 14.8659 32.5349 14.79 32.6445L15.7188 33.0479L15.6758 32.9365L15.9014 33.127L16.2588 33.2822C16.1694 33.4879 16.066 33.6899 15.9473 33.8877C15.8299 34.0833 15.704 34.2698 15.5713 34.4482L14.6104 33.7334L14.2734 33.5889L14.2373 33.5742L13.9375 34.2812C14.5076 34.5239 14.9933 34.5684 15.2754 34.5684C15.3461 34.5684 15.4164 34.5632 15.4863 34.5576C15.0948 35.0613 14.6416 35.4957 14.123 35.8564C13.3872 36.3363 12.6668 36.5762 11.9629 36.5762C11.5473 36.5761 11.2437 36.5275 11.0518 36.4316C11.1323 35.6835 11.2502 34.9892 11.4053 34.3486L11.7549 34.5488L11.8535 34.1523L11.8301 34.5918L11.9395 34.6543L11.9629 34.6084V34.1094L11.8711 34.083L11.8535 34.1523L11.8574 34.0732L11.9082 33.0664L11.999 33.5654L11.9629 33.7119V34.0762C11.9987 34.0762 12.0407 34.0724 12.0898 34.0635L12.1084 34.1699C12.0521 34.1445 12.0037 34.123 11.9629 34.1094V34.6084L12.1279 34.2764L12.2266 34.8193L12.748 35.1172L12.1494 34.2354L12.2051 34.123C12.3016 34.0565 12.3966 33.9884 12.4912 33.9199L12.3984 33.7373L12.5029 33.5273L12.1377 33.0029L12.1006 33.1533L11.9219 32.8018L11.9258 32.7207C12.0796 32.3479 12.2513 32.0006 12.4404 31.6787L12.5869 31.4404C13.3869 30.1924 14.2834 29.5684 15.2754 29.5684ZM12.6387 35.3867L12.9717 35.4482L12.7705 35.1504C12.726 35.2282 12.6826 35.3073 12.6387 35.3867ZM15.0801 34.083L15.5713 34.4482C15.5484 34.479 15.5243 34.5088 15.501 34.5391L15.0801 34.083ZM12.3984 33.7373L12.2051 34.123C12.1789 34.1411 12.1533 34.1598 12.127 34.1777C12.1404 34.184 12.1548 34.1892 12.1689 34.1963L12.1494 34.2354L12.1279 34.2764L12.1084 34.1699L12.0898 34.0635L11.999 33.5654L12.1006 33.1533L12.3984 33.7373ZM11.873 34.0732C11.8971 34.0742 11.9269 34.0762 11.9629 34.0762V33.7119L11.873 34.0732ZM12.1719 32.8652L12.5469 33.4395L12.6807 33.1719L12.998 33.5371C13.0195 33.5201 13.0421 33.5044 13.0635 33.4873C13.1771 33.3959 13.2862 33.303 13.3936 33.2119L12.2119 32.7051L12.1719 32.8652ZM12.79 32.9531L12.6807 33.1719L12.3115 32.748L12.79 32.9531ZM11.9219 32.8018L11.9082 33.0664L11.8711 32.8594C11.8828 32.8296 11.8943 32.7999 11.9062 32.7705L11.9219 32.8018ZM14.8184 32.21L14.8662 32.251C14.9336 32.1775 15.0009 32.1046 15.0693 32.0332C15.024 32.0206 14.972 32.0043 14.916 31.9805L14.8184 32.21ZM15.2754 31.8945V31.8242C15.2687 31.8309 15.2615 31.8371 15.2549 31.8438L15.2754 31.8945ZM18.3057 20.1572C18.6503 20.1687 19.0007 20.1982 19.3545 20.249L18.6436 25.1982C18.4285 25.1674 18.2006 25.1523 17.9629 25.1523C16.0431 25.1525 14.123 26.048 12.2031 27.8398C11.0916 28.8761 10.0919 30.0683 9.20215 31.415L7.37988 30.6348C7.6596 29.9823 7.98956 29.3471 8.37793 28.7412C8.58081 28.4247 8.80171 28.1116 9.04199 27.8066L8.89551 27.6797L7.00195 26.0459C7.56771 25.3902 8.16518 24.7688 8.79395 24.1826C9.34128 23.6719 9.91087 23.196 10.5039 22.7627L13.1553 26.3916L12.6426 25.0586C13.4797 24.7362 14.367 24.5684 15.2754 24.5684L15.5654 24.5742C15.7567 24.582 15.9556 24.5968 16.1602 24.623L15.7227 22.9434L15.0918 20.5234C16.0264 20.2797 16.9866 20.1524 17.9629 20.1523L18.3057 20.1572ZM22.5371 21.3789C23.0324 21.6824 23.4872 22.0394 23.9014 22.4404L23.9033 22.4395C23.9342 22.4688 23.9647 22.4985 23.9951 22.5283C24.4482 22.9731 24.842 23.4682 25.1729 24.0068L20.9131 26.624H20.9111C20.8131 26.4646 20.7016 26.3169 20.5752 26.1816L20.459 26.0645C20.2966 25.9021 20.1182 25.7616 19.9238 25.6426L20.0244 25.4805L22.5371 21.3789Z" fill="#7D7D7D"/>
</svg>
