<svg width="92" height="53" viewBox="0 0 92 53" fill="none" xmlns="http://www.w3.org/2000/svg">
<path d="M66.6268 28.48C66.1148 28.48 65.8588 28.304 65.8588 27.952C65.8588 27.824 65.9388 27.488 66.0988 26.944C66.2588 26.528 66.4828 25.728 66.7708 24.544C66.9948 23.616 67.3148 21.936 67.7308 19.504C68.1468 17.072 68.5308 14.704 68.8828 12.4C69.0428 11.376 69.1228 10.72 69.1228 10.432C69.1228 9.95198 68.9788 9.71198 68.6908 9.71198C68.4028 9.71198 68.0348 9.96798 67.5868 10.48C67.1388 10.96 66.6588 11.68 66.1468 12.64C66.0188 12.896 65.8748 13.136 65.7148 13.36C65.5548 13.552 65.3948 13.648 65.2348 13.648C64.9148 13.648 64.7548 13.376 64.7548 12.832C64.7548 11.968 65.1228 10.928 65.8588 9.71198C66.6268 8.46398 67.5548 7.39198 68.6428 6.49598C69.7628 5.59998 70.8348 5.15198 71.8588 5.15198C72.4988 5.15198 73.0108 5.37598 73.3948 5.82398C73.7788 6.27198 73.9708 6.97598 73.9708 7.93598C73.9708 9.18398 73.8428 10.608 73.5868 12.208H73.6348C77.0588 7.50398 79.9388 5.15198 82.2748 5.15198C83.9068 5.15198 84.7228 6.28798 84.7228 8.55997C84.7228 9.55198 84.5788 10.768 84.2908 12.208C83.5228 15.952 82.9948 18.608 82.7068 20.176C82.4188 21.712 82.2748 22.64 82.2748 22.96C82.2748 23.632 82.4668 23.968 82.8508 23.968C83.7468 23.968 84.6588 22.72 85.5868 20.224C85.7788 19.776 85.9868 19.552 86.2108 19.552C86.5948 19.552 86.7548 19.952 86.6908 20.752C86.5628 21.872 86.1468 23.04 85.4428 24.256C84.7388 25.472 83.8588 26.48 82.8028 27.28C81.7788 28.08 80.7388 28.48 79.6828 28.48C78.1148 28.48 77.3308 27.424 77.3308 25.312C77.3308 24.48 77.4268 23.472 77.6188 22.288C77.8108 21.104 78.0988 19.584 78.4828 17.728C78.7388 16.48 78.9628 15.232 79.1548 13.984C79.3788 12.736 79.5068 11.728 79.5388 10.96V10.576C79.5388 10.064 79.3788 9.80798 79.0588 9.80798C78.5148 9.80798 77.7628 10.384 76.8028 11.536C75.8428 12.656 74.9308 14.064 74.0668 15.76C73.2348 17.456 72.6588 19.088 72.3388 20.656L71.5708 24.544C71.3788 25.504 70.7548 26.4 69.6988 27.232C68.6748 28.064 67.6508 28.48 66.6268 28.48Z" fill="#FFA200"/>
<path d="M51.9722 28.48C50.3082 28.48 48.9962 27.92 48.0362 26.8C47.1082 25.648 46.6442 24.048 46.6442 22C46.6442 19.6 47.2522 17.088 48.4682 14.464C49.7162 11.808 51.2842 9.59998 53.1722 7.83998C55.0922 6.04798 57.0122 5.15198 58.9322 5.15198C59.9882 5.15198 60.8202 5.45598 61.4282 6.06398C62.0682 6.67198 62.3882 7.55198 62.3882 8.70398C62.3882 10.144 61.9242 11.632 60.9962 13.168C60.0682 14.672 58.7882 16.08 57.1562 17.392C55.5562 18.672 53.7482 19.712 51.7322 20.512C51.8282 22.72 52.8042 23.824 54.6602 23.824C55.6842 23.824 56.6442 23.504 57.5402 22.864C58.4682 22.224 59.2842 21.36 59.9882 20.272C60.1482 19.984 60.2922 19.776 60.4202 19.648C60.5482 19.488 60.6762 19.408 60.8042 19.408C60.9962 19.408 61.1242 19.472 61.1882 19.6C61.2522 19.728 61.2842 19.952 61.2842 20.272C61.2842 21.296 60.8202 22.464 59.8922 23.776C58.9962 25.088 57.8282 26.208 56.3882 27.136C54.9482 28.032 53.4762 28.48 51.9722 28.48ZM52.9322 16.576C53.6362 16.576 54.3562 16.336 55.0922 15.856C55.8282 15.344 56.4362 14.688 56.9162 13.888C57.3962 13.088 57.6362 12.224 57.6362 11.296C57.6362 10.144 57.1722 9.56798 56.2442 9.56798C55.2522 9.56798 54.3562 10.192 53.5562 11.44C52.7562 12.688 52.2442 14.352 52.0202 16.432C52.2122 16.528 52.5162 16.576 52.9322 16.576Z" fill="#FFA200"/>
<path d="M17.6416 47.152C16.0416 47.152 14.6496 46.8 13.4656 46.096C12.2816 45.424 11.3856 44.608 10.7776 43.648C10.1696 42.72 9.8656 41.92 9.8656 41.248C9.8656 40.544 10.1216 39.904 10.6336 39.328C11.1136 38.752 11.6736 38.288 12.3136 37.936C12.9536 37.584 13.4656 37.408 13.8496 37.408C13.9776 37.408 14.0736 37.456 14.1376 37.552C14.2016 37.648 14.2656 37.84 14.3296 38.128C14.7136 40.336 15.2576 41.872 15.9616 42.736C16.6336 43.632 17.6096 44.08 18.8896 44.08C20.1056 44.08 21.1296 43.712 21.9616 42.976C22.7616 42.24 23.4496 41.056 24.0256 39.424C24.6016 37.792 25.0976 35.584 25.5136 32.8L28.6816 12.544C28.8096 11.744 28.8736 11.088 28.8736 10.576C28.8736 9.99998 28.7136 9.71198 28.3936 9.71198C28.0416 9.71198 27.6736 9.95198 27.2896 10.432C26.9376 10.88 26.4896 11.632 25.9456 12.688C25.8176 12.944 25.6736 13.168 25.5136 13.36C25.3856 13.552 25.2416 13.648 25.0816 13.648C24.7296 13.648 24.5536 13.376 24.5536 12.832C24.5536 12 24.9056 10.976 25.6096 9.75998C26.3456 8.51198 27.2576 7.43998 28.3456 6.54398C29.4336 5.61598 30.4736 5.15198 31.4656 5.15198C32.1376 5.15198 32.6656 5.39198 33.0496 5.87197C33.4336 6.31997 33.6256 7.00798 33.6256 7.93598C33.6256 8.54398 33.4816 9.96798 33.1936 12.208H33.2416C34.4576 10.032 35.8176 8.31998 37.3216 7.07198C38.8576 5.79198 40.2656 5.15198 41.5456 5.15198C42.6016 5.15198 43.4336 5.66398 44.0416 6.68797C44.6816 7.71198 45.0016 9.24798 45.0016 11.296C45.0016 14.304 44.3776 17.136 43.1296 19.792C41.9136 22.416 40.3616 24.528 38.4736 26.128C36.6176 27.696 34.7936 28.48 33.0016 28.48C32.4576 28.48 31.8336 28.352 31.1296 28.096L30.3136 32.464C29.8336 35.408 28.9856 37.984 27.7696 40.192C26.5856 42.4 25.1296 44.112 23.4016 45.328C21.6416 46.544 19.7216 47.152 17.6416 47.152ZM34.1056 24.736C35.2576 24.736 36.2656 24.208 37.1296 23.152C38.0256 22.064 38.7136 20.64 39.1936 18.88C39.6736 17.088 39.9136 15.168 39.9136 13.12C39.9136 12.096 39.8336 11.344 39.6736 10.864C39.5136 10.352 39.2256 10.096 38.8096 10.096C38.1056 10.096 37.2416 10.688 36.2176 11.872C35.2256 13.024 34.3296 14.528 33.5296 16.384C32.7296 18.208 32.2016 20.064 31.9456 21.952L31.6576 23.968C32.3936 24.48 33.2096 24.736 34.1056 24.736Z" fill="#FFA200"/>
<path d="M10.664 28.48C9.16004 28.48 7.97604 27.936 7.11204 26.848C6.24804 25.728 5.81604 24.128 5.81604 22.048C5.81604 19.456 6.45604 16.848 7.73604 14.224C9.04804 11.6 10.68 9.43998 12.632 7.74398C14.616 6.01598 16.536 5.15198 18.392 5.15198C19.896 5.15198 21.064 5.71198 21.896 6.83198C22.728 7.95198 23.144 9.51998 23.144 11.536C23.144 14 22.52 16.56 21.272 19.216C20.056 21.872 18.472 24.08 16.52 25.84C14.6 27.6 12.648 28.48 10.664 28.48ZM13.256 24.304C14.152 24.304 14.968 23.84 15.704 22.912C16.44 21.952 17.016 20.672 17.432 19.072C17.848 17.472 18.056 15.728 18.056 13.84C18.056 12.24 17.88 11.088 17.528 10.384C17.176 9.67998 16.632 9.32798 15.896 9.32798C15.032 9.32798 14.216 9.77598 13.448 10.672C12.712 11.536 12.104 12.736 11.624 14.272C11.176 15.808 10.952 17.52 10.952 19.408C10.952 22.672 11.72 24.304 13.256 24.304Z" fill="#FFA200"/>
<path d="M67.4658 28.3867L68.5488 33.2686C67.9224 33.4075 67.2795 33.4805 66.627 33.4805C66.3189 33.4805 65.9593 33.4604 65.5684 33.3975L66.3633 28.4609V28.458C66.39 28.4623 66.4174 28.4688 66.4463 28.4717L66.627 28.4805C66.9063 28.4805 67.1855 28.4477 67.4648 28.3857L67.4658 28.3867ZM86.6299 22.0088L88.1904 22.6992L88.9033 23.6914C88.58 23.9236 88.1772 24.1437 87.707 24.3037L90.3896 25.5889C90.1993 25.9862 89.9918 26.3768 89.7695 26.7607C89.5241 27.1846 89.2611 27.5972 88.9785 27.9961L87.457 26.9189C86.9609 27.4303 86.2336 28.0328 85.2832 28.4521L86.9941 30.2773C86.6209 30.6272 86.23 30.9567 85.8223 31.2656L85.8213 31.2646C85.4571 31.5457 85.0751 31.8106 84.6729 32.0518L82.8232 28.9668C82.0999 28.9632 81.3095 28.8175 80.542 28.4639L81.0303 30.8428L81.5312 33.292C80.9246 33.4162 80.3067 33.4805 79.6826 33.4805C78.6653 33.4805 77.5127 33.2958 76.3799 32.7373L78.5908 28.2529V28.251C78.8267 28.3674 79.0952 28.4406 79.3975 28.4678L79.6826 28.4805C80.7386 28.4805 81.7788 28.0802 82.8027 27.2803C83.8587 26.4803 84.7384 25.4718 85.4424 24.2559C85.7257 23.7666 85.9604 23.2843 86.1504 22.8105L86.1592 22.8096L86.1514 22.8076C86.2697 22.5123 86.3691 22.22 86.4512 21.9307L86.6299 22.0088ZM70.5791 26.4131C70.6717 26.6638 70.7359 26.9069 70.7793 27.1367L72.0859 28.4561L73.8447 30.2324C73.5273 30.5468 73.1933 30.8382 72.8506 31.1113L72.8516 31.1123C72.842 31.12 72.8318 31.127 72.8223 31.1348C72.8123 31.1427 72.8029 31.1513 72.793 31.1592L72.792 31.1582C72.4402 31.4407 72.0717 31.7095 71.6826 31.9551L69.4883 28.4785L68.3389 28.2285L68.125 28.1816C68.3025 28.1113 68.4797 28.028 68.6572 27.9326L68.7021 27.9453L69.2959 28.1738L69.248 28.0986L68.7021 27.9453L68.6621 27.9297C68.7518 27.8814 68.842 27.831 68.9316 27.7764L69.0713 27.8174L69.0137 27.7266L69.0127 27.7256C69.2411 27.5814 69.4708 27.418 69.6992 27.2324C70.0371 26.9662 70.3297 26.6924 70.5791 26.4131ZM63.4541 27.1631L65.8975 27.6963C65.8715 27.8153 65.8584 27.9006 65.8584 27.9521C65.8584 28.0508 65.8816 28.1341 65.9219 28.2051L65.9189 28.207L63.7451 29.4404L63.7441 29.4395L61.5703 30.6738C61.0909 29.8286 60.9059 28.9781 60.8672 28.2539L60.8584 27.9521L60.8643 27.7158C60.8888 27.1778 60.9887 26.7409 61.0127 26.6309L63.4541 27.1631ZM71.7627 23.5723L74.2158 24.0566L76.459 24.499L77.3545 24.5527C77.3387 24.8201 77.3311 25.073 77.3311 25.3115L77.3398 25.6953C77.3529 25.9596 77.3809 26.205 77.4219 26.4316L77.4209 26.4326L76.1602 26.6602C76.0638 26.9338 75.955 27.2011 75.833 27.4609L74.6934 26.9258L72.501 27.3223C72.4093 26.8156 72.3602 26.3116 72.3408 25.8203L71.6777 25.5098C71.6613 25.5805 71.647 25.6499 71.6309 25.7168L71.6289 25.7256C71.5735 25.9535 71.5201 26.1714 71.4678 26.3779L70.7598 26.1982C71.1844 25.6694 71.4554 25.1187 71.5703 24.5439L71.7617 23.5713L71.7627 23.5723ZM66.291 26.3516C66.2177 26.5975 66.1557 26.796 66.0986 26.9443C66.0726 27.0328 66.0491 27.1159 66.0273 27.1934L63.6201 26.5166L61.2139 25.8398C61.2418 25.7406 61.2709 25.6382 61.3018 25.5332L61.3594 25.3389L61.4316 25.1494C61.4341 25.1424 61.4381 25.1311 61.4434 25.1152C61.4574 25.0729 61.4772 25.01 61.5029 24.9238L66.291 26.3516ZM66.6982 23.2217C66.7141 23.2081 66.7288 23.1956 66.7422 23.1836L66.8574 22.6035L67.1631 22.6631C67.0093 23.4668 66.8791 24.0939 66.7705 24.5439C66.7184 24.7581 66.667 24.9594 66.6191 25.1484L61.7734 23.9209C61.817 23.7491 61.8633 23.563 61.9121 23.3623C61.9691 23.1255 62.0444 22.7807 62.1387 22.3096L66.6982 23.2217ZM84.291 12.208C84.3854 11.7361 84.4629 11.288 84.5264 10.8643H84.5391V11.0645L84.5342 11.168C84.5322 11.2166 84.5279 11.2655 84.5254 11.3145L89.3887 12.1318C89.3306 12.4775 89.2651 12.8298 89.1934 13.1885L89.1914 13.2002L89.1885 13.2129C89.0452 13.9116 88.9105 14.5717 88.7842 15.1934L88.7695 15.1904C89.3689 15.5102 89.9241 15.9519 90.3936 16.5234L87.3584 19.0156L87.9941 19.1406C87.9047 19.5979 87.8279 20.0087 87.7588 20.373L91.7031 20.3154C91.7075 20.6105 91.6955 20.8916 91.6748 21.1504L91.668 21.2354L91.6582 21.3193C91.598 21.8463 91.5032 22.3656 91.377 22.875L90.0488 22.5459C89.9371 22.8273 89.8238 23.1027 89.7061 23.3691L88.1904 22.6992L87.6543 21.9531L87.5967 21.9385C87.5374 22.0813 87.4802 22.2221 87.4199 22.3584L86.6299 22.0088C86.8284 21.9696 87.0052 21.9056 87.1582 21.8301L86.5234 21.6729L86.5215 21.6719C86.5984 21.3616 86.6558 21.0552 86.6904 20.752C86.7544 19.9521 86.5948 19.5519 86.2109 19.5518C85.987 19.5518 85.7789 19.7759 85.5869 20.2236C85.4377 20.6248 85.287 20.9934 85.1387 21.3301L85.0645 21.3174L85.04 21.3066L85.0322 21.3027L84.6797 21.2158L84.6484 21.2412L84.6475 21.2422L84.6416 21.2412L84.6299 21.2559L84.6475 21.2422L84.6484 21.2412L85.0391 21.3125C85.0394 21.3106 85.0397 21.3086 85.04 21.3066L85.0645 21.3174L85.1309 21.3467C84.9225 21.8182 84.7155 22.2261 84.5088 22.5703L83.9121 22.4844L83.7227 22.3936L83.7217 22.3945L83.6768 22.4512L83.7227 22.3936L83.9102 22.4844H83.9121L83.9131 22.4854L84.5088 22.5703C83.9497 23.501 83.3977 23.9678 82.8506 23.9678C82.7305 23.9677 82.6294 23.9349 82.5469 23.8691L82.7646 23.5957L82.5049 23.4121C82.4896 23.5146 82.4741 23.6141 82.4609 23.7109L82.4131 23.7041C82.3214 23.5362 82.2744 23.2884 82.2744 22.96C82.2744 22.7963 82.3124 22.4737 82.3877 21.9922L82.6924 22.2803C82.7068 22.1987 82.721 22.1152 82.7363 22.0303L82.3916 21.9678C82.4635 21.5106 82.5688 20.9132 82.707 20.1758C82.8265 19.5256 82.9875 18.6884 83.1895 17.6641L83.5781 17.7393C83.545 17.9115 83.5089 18.0836 83.4746 18.2559L85.249 18.6035L84.5283 17.5996L83.4902 16.1543L84.291 12.208ZM72.9619 18.5527C72.9128 18.8472 72.8616 19.1422 72.8115 19.4385L77.457 20.7617C77.4279 20.864 77.4018 20.9655 77.376 21.0654L77.8154 21.1445C77.7415 21.5553 77.6761 21.9365 77.6191 22.2881C77.526 22.8624 77.4552 23.3952 77.4072 23.8867L77.3301 23.8965C77.2909 23.5785 77.2769 23.2786 77.2754 23.0078L72.5518 22.3682C72.5804 22.1571 72.6138 21.9434 72.6475 21.7266L72.1465 21.6279L72.3389 20.6562C72.48 19.9645 72.6723 19.2606 72.9131 18.5439L72.9619 18.5527ZM82.9678 23.2021C82.9881 23.2224 83.0085 23.2427 83.0293 23.2627L83.0898 23.1865L82.9678 23.2021ZM87.2744 23.0391C87.2739 23.0617 87.2731 23.0818 87.2725 23.0986C87.2712 23.1319 87.2696 23.1578 87.2686 23.1738C87.2675 23.1897 87.266 23.2001 87.2656 23.2041L87.2666 23.2021C87.2672 23.1967 87.268 23.1877 87.2695 23.1748C87.2711 23.1616 87.2729 23.1447 87.2754 23.125C87.2805 23.0852 87.287 23.0351 87.2959 22.9736L87.2744 22.9697C87.2743 22.9957 87.2748 23.0189 87.2744 23.0391ZM83.0137 22.584L83.3311 22.8848L83.375 22.8301C83.4048 22.7762 83.4358 22.7239 83.4639 22.6709L83.5811 22.4375L83.25 22.3896L83.0137 22.584ZM64.1387 10.7227C64.1425 10.7624 64.1455 10.8049 64.1514 10.8496L64.292 10.8301C64.2945 10.8258 64.2973 10.8217 64.2998 10.8174L64.3174 10.8271L64.4043 10.877L64.9141 11.1729C64.7892 11.1922 64.6712 11.2222 64.5615 11.2598L65.0576 11.333C64.8565 11.8809 64.7549 12.3803 64.7549 12.832C64.7549 13.3078 64.8773 13.5751 65.1221 13.6348L65.2344 13.6484C65.3943 13.6484 65.5549 13.5522 65.7148 13.3604C65.8748 13.1364 66.0185 12.8956 66.1465 12.6396C66.3555 12.2477 66.5594 11.8959 66.7578 11.584L67.5156 11.6963L67.6211 11.5518L66.9932 11.2305C67.197 10.9364 67.3948 10.6863 67.5869 10.4805C67.7594 10.2833 67.9196 10.1232 68.0684 10.002L68.4531 10.2822L68.5557 10.2686L68.5137 10.3262L68.6904 10.4551V10.4385L68.6865 10.4316L68.5986 10.2627L68.6904 10.251V10.085L68.583 10.2314L68.3623 9.80566C68.4815 9.74398 68.5905 9.71198 68.6904 9.71191C68.7779 9.71191 68.8502 9.73701 68.9111 9.78125L68.6904 10.085V10.251L69.1064 10.1963C69.1158 10.2671 69.123 10.3453 69.123 10.4316L69.1074 10.7168C69.0971 10.8383 69.0805 10.984 69.0596 11.1543L68.9326 10.9092L68.7266 10.8867C68.7164 10.9574 68.7061 11.0287 68.6953 11.1006L69.0234 11.4287C68.9864 11.7037 68.941 12.0281 68.8828 12.4004C68.7907 13.0032 68.6951 13.6101 68.5986 14.2217L68.4805 14.1572L68.2178 14.1162L68.1279 14.6748C68.1198 14.6738 68.1117 14.6729 68.1035 14.6719L67.9248 14.5557C67.9075 14.5821 67.8887 14.6076 67.8711 14.6338C67.9496 14.6482 68.0269 14.6618 68.1035 14.6719L68.126 14.6865L68.1279 14.6748C68.2629 14.6918 68.3944 14.7002 68.5215 14.7051C68.3901 15.5314 68.2565 16.3659 68.1172 17.208H67.7236L67.9336 15.8936L65.8857 13.749L65.3926 13.6709L66.7539 17.5166L68.0303 17.7295C67.9323 18.3171 67.8323 18.9086 67.7305 19.5039C67.6541 19.9506 67.5787 20.3716 67.5088 20.7676L62.5879 19.8984C62.6561 19.5124 62.7277 19.1 62.8027 18.6611C62.8336 18.4805 62.863 18.3 62.8936 18.1201C62.5806 17.9707 62.27 17.7865 61.9697 17.5596L64.959 13.6025L63.668 13.3994C63.6766 13.3448 63.6838 13.2899 63.6924 13.2354L60.7041 13.6191C60.8047 13.4696 60.9026 13.3195 60.9961 13.168C61.3718 12.546 61.6699 11.9314 61.8936 11.3252L62.417 11.4453L63.3242 11.6523L62.0801 10.7637C62.0827 10.7546 62.0853 10.7454 62.0879 10.7363L63.5762 11.71L63.7939 11.7598L63.9072 11.8535C63.9106 11.8317 63.9146 11.8099 63.918 11.7881L64.043 11.8164L63.9316 11.7002C63.9332 11.6898 63.9349 11.6794 63.9365 11.6689L63.8643 11.6299L63.8633 11.6289L63.8564 11.625C63.8569 11.6241 63.8569 11.623 63.8574 11.6221L62.2705 9.95898C62.2883 9.86142 62.3037 9.76413 62.3174 9.66699L64.1387 10.7227ZM79.0586 9.80762C79.1532 9.80762 79.2322 9.83315 79.2988 9.87793L79.0586 10.2354V10.3848L79.5195 10.3203C79.5303 10.3971 79.5391 10.4822 79.5391 10.5762V10.96C79.528 11.2248 79.5016 11.5179 79.4678 11.8398L79.3906 11.7109L79.29 11.7012C79.298 11.6625 79.3065 11.6239 79.3145 11.585L79.0586 11.1621V11.6787L79.3906 11.7109L79.4678 11.8398C79.4535 11.9759 79.4403 12.1174 79.4219 12.2637C79.3524 12.28 79.2676 12.2963 79.168 12.3027C79.1424 12.4281 79.1168 12.5521 79.0918 12.6748L78.6504 12.2637L78.6357 12.251C78.6353 12.2539 78.6352 12.2568 78.6348 12.2598C78.6397 12.2608 78.6455 12.2626 78.6504 12.2637L79.0908 12.6758L79.0918 12.6748L79.332 12.8984C79.2812 13.2374 79.2233 13.5999 79.1543 13.9844C79.1062 14.2972 79.0561 14.61 79.0039 14.9229L77.9717 14.75C77.8744 14.8807 77.7759 15.0142 77.6768 15.1504L77.0557 16.0029L78.3457 16.7324L78.668 16.7949C78.6082 17.1058 78.5462 17.4167 78.4824 17.7275C78.3082 18.5697 78.1542 19.3431 78.0195 20.0469L77.6582 19.9824C77.6994 19.7542 77.7439 19.5113 77.792 19.2549C77.8183 19.1119 77.8481 18.9614 77.8779 18.8027L77.8213 18.7783L73.3486 17.8828C73.3927 17.6627 73.4393 17.438 73.4863 17.208H73.4141C73.611 16.7309 73.8271 16.2475 74.0664 15.7598C74.9304 14.0638 75.8428 12.6561 76.8027 11.5361C77.0127 11.2842 77.2142 11.0611 77.4043 10.8643H78.6338L78.5957 10.9199L78.9199 10.9336L78.8779 10.8643H79.0586V10.6719H78.7637L78.7627 10.6729L78.7617 10.6719H77.5967C77.6307 10.6388 77.6639 10.6063 77.6973 10.5752L78.625 10.4453L78.3789 10.0391C78.6333 9.88517 78.8598 9.80766 79.0586 9.80762ZM85.3223 19.8076L85.6455 19.9814L85.6641 19.96C85.557 19.8746 85.4476 19.7964 85.3379 19.7236C85.3325 19.7518 85.3275 19.7799 85.3223 19.8076ZM84.0967 14.7441L84.0537 15.0068C84.5482 14.7887 85.111 14.6288 85.7314 14.5732L84.1787 14.2578C84.1522 14.4173 84.1258 14.5796 84.0967 14.7441ZM79.0811 12.7266C79.0338 12.7778 78.9844 12.8319 78.9336 12.8896L79.0312 12.9707C79.0477 12.8899 79.0643 12.8086 79.0811 12.7266ZM67.8926 12.6973L68.4248 12.8184L68.4561 12.625L67.8926 12.6973ZM82.6855 0.162109C83.657 0.210203 84.7166 0.436052 85.749 0.976562L84.5889 3.19043L84.5898 3.19141L83.4297 5.40625L83.4287 5.40723C83.1047 5.23778 82.7201 5.15234 82.2744 5.15234C80.5224 5.15251 78.4637 6.47485 76.0996 9.12109L75.2305 9.07617L75.7334 9.54395C75.0588 10.3276 74.3579 11.2145 73.6348 12.208H73.5869C73.8429 10.608 73.9707 9.18354 73.9707 7.93555C73.9707 7.73883 73.9595 7.55315 73.9434 7.37793H73.9463L76.6191 7.13184L75.79 5.76172C76.4293 5.37486 77.4825 4.86554 78.8291 4.8125L76.9688 1.77832C78.4431 0.874237 80.2437 0.152424 82.2744 0.152344L82.6855 0.162109ZM67.4414 11.7988C67.8089 12.0666 68.1982 12.1758 68.5234 12.2031L68.5518 12.0264L68.0625 11.7764L67.5156 11.6963L67.4414 11.7988ZM63.8643 11.6299L64.043 11.8164L63.918 11.7881L63.7939 11.7598L63.2051 11.2686L63.8643 11.6299ZM78.1436 11.5879L77.9004 11.5645L78.0527 11.7061L78.0625 11.708L78.1436 11.5879L79.0586 11.6787V11.1621L78.9365 10.96H78.5693L78.1436 11.5879ZM67.6211 11.5518L67.6689 11.5762L67.6768 11.5801C67.7033 11.5281 67.7314 11.4752 67.7607 11.4209L67.7314 11.3994L67.6211 11.5518ZM63.9854 9.69434L65.4287 10.4316L65.4521 10.4434C65.3056 10.7302 65.1823 11.0058 65.082 11.2705L64.9141 11.1729L64.4043 10.877L64.3828 10.8184L64.3174 10.8271L64.1387 10.7227C64.1346 10.6802 64.1301 10.6408 64.1279 10.6045L64.123 10.4316V10.3906L64.2363 10.4033L63.9854 9.69434ZM62.1748 10.4102L63.2051 11.2686L62.1074 10.668C62.1316 10.5819 62.1538 10.4959 62.1748 10.4102ZM78.8779 10.8643H78.6338L78.7627 10.6729L78.8779 10.8643ZM79.0586 10.8643H79.4551C79.4672 10.7991 79.479 10.7351 79.4902 10.6719H79.0586V10.8643ZM68.6904 10.4551L68.7031 10.4648L68.6904 10.4385V10.4551ZM65.4287 10.4316L65.2344 10.332L63.2236 9.30566L62.3838 8.87598C62.3853 8.81859 62.3877 8.76134 62.3877 8.7041C62.3877 7.87519 62.221 7.18789 61.8896 6.64062C62.0584 6.38298 62.231 6.12834 62.4121 5.87988L63.9756 7.01855C64.0741 6.91055 64.1768 6.80187 64.2842 6.69434L66.3203 8.72852L66.4404 8.81543C66.4456 8.81685 66.4509 8.81789 66.4561 8.81934C66.247 9.10598 66.048 9.40381 65.8584 9.71191C65.7065 9.96282 65.5727 10.2074 65.4521 10.4434L65.4287 10.4316ZM78.9463 10.4004L79.0586 10.3848V10.2354L78.9463 10.4004ZM64.125 10.3115C64.1245 10.3226 64.1245 10.3382 64.124 10.3574C64.1238 10.3671 64.1232 10.3782 64.123 10.3906H64.1162C64.1197 10.3581 64.1223 10.3326 64.124 10.3135C64.1258 10.2941 64.1268 10.2834 64.127 10.2812C64.127 10.2812 64.1258 10.2922 64.125 10.3115ZM68.5986 10.2627L68.5557 10.2686L68.583 10.2314L68.5986 10.2627ZM84.7227 8.55957C84.7226 8.12059 84.6908 7.72427 84.6299 7.37012L89.5586 6.52246C89.6769 7.20989 89.7226 7.89637 89.7227 8.55957C89.7227 8.98583 89.705 9.41715 89.6729 9.84961L84.6865 9.47852L84.6846 9.47754C84.7087 9.15288 84.7227 8.8467 84.7227 8.55957ZM72.1816 0.15918C72.508 0.172968 72.8442 0.208126 73.1865 0.270508L72.29 5.18945L72.2891 5.19043C72.1526 5.16562 72.009 5.15234 71.8584 5.15234C70.8345 5.15245 69.7624 5.6002 68.6426 6.49609C68.1676 6.88726 67.7245 7.31323 67.3105 7.77148L66.0918 5.41406L64.3516 3.63477C64.7079 3.28622 65.0791 2.95364 65.4639 2.63672L65.4912 2.61426L65.5195 2.5918C65.8868 2.29796 66.2707 2.01988 66.6719 1.76367L68.5566 4.71387C68.6009 4.71279 68.6455 4.71192 68.6904 4.71191C69.3906 4.71191 70.1851 4.84882 70.9678 5.21289L70.3936 2.8291L69.8086 0.398438C70.4675 0.239737 71.1535 0.152373 71.8584 0.152344L72.1816 0.15918ZM76.0713 1.52148C76.3891 1.75878 76.6783 2.01715 76.9395 2.29102L77.1914 2.57031L77.3594 2.77441C77.7389 3.25435 78.0313 3.7585 78.2539 4.25684L73.6885 6.29688L73.6855 6.29785C73.6049 6.11731 73.5098 5.95866 73.3945 5.82422C73.2975 5.71102 73.1925 5.61194 73.0791 5.52734L76.0713 1.52148Z" fill="white"/>
<path d="M57.3848 26.4297L60.46 30.3721C60.0217 30.714 59.5668 31.0359 59.0967 31.3389L59.0635 31.3604L59.0293 31.3809C58.5325 31.69 58.0198 31.9717 57.4902 32.2207L55.8574 28.749C55.4587 28.7982 55.0593 28.8242 54.6602 28.8242C54.1879 28.8242 53.6925 28.7888 53.1855 28.7041L53.5234 30.8594L53.9092 33.3291C53.2678 33.4294 52.621 33.4805 51.9717 33.4805C51.3258 33.4804 50.6719 33.4297 50.0176 33.3164L50.8711 28.3896V28.3877C51.1254 28.4317 51.3895 28.4618 51.6641 28.4736L51.9717 28.4805C53.4756 28.4805 54.9478 28.0317 56.3877 27.1357C56.7357 26.9115 57.0676 26.6754 57.3838 26.4287L57.3848 26.4297ZM47.3643 25.7207C47.5519 26.1157 47.7751 26.4757 48.0361 26.7998C48.2824 27.0871 48.5522 27.3372 48.8447 27.5508L45.8965 31.5898C45.2782 31.1385 44.7268 30.6214 44.2402 30.0537L44.1904 29.9961L44.1426 29.9365C43.6239 29.2926 43.1937 28.5977 42.8467 27.8672L47.3633 25.7217L47.3643 25.7207ZM62.0039 22.9561L62.4355 24.1143C62.4199 24.1201 62.4035 24.1252 62.3877 24.1309L62.5693 24.2373L64.7256 25.5029C64.5072 25.8752 64.27 26.2386 64.0205 26.5947L64.0215 26.5957C64.013 26.6082 64.0037 26.6204 63.9951 26.6328C63.9881 26.6428 63.9816 26.6531 63.9746 26.6631L63.9736 26.6621C63.6562 27.122 63.3169 27.5659 62.9541 27.9912L61.1201 26.4258C60.8797 26.6186 60.6335 26.8049 60.3789 26.9805L60.3779 26.9795C60.007 27.2403 59.6176 27.4813 59.208 27.6963L58.1846 25.748C58.8341 25.1473 59.4045 24.4911 59.8926 23.7764C60.3133 23.1816 60.6372 22.6157 60.8672 22.0801L62.0039 22.9561ZM60.9961 13.168C61.8661 11.728 62.3284 10.3302 62.3828 8.97461L62.3877 8.7041C62.3877 8.45065 62.3708 8.21052 62.3398 7.9834H62.3418L67.2959 7.30762C67.3154 7.45069 67.3307 7.59347 67.3438 7.73535C66.7964 8.33654 66.3 8.99436 65.8584 9.71191C65.7105 9.95621 65.5801 10.1947 65.4619 10.4248L64.751 10.3027L62.5225 9.92188C62.6044 10.4089 62.6357 10.8729 62.6357 11.2959C62.6357 11.7284 62.6078 12.1625 62.5518 12.5967L66.0771 14.2656C65.8368 14.7734 65.5679 15.2697 65.2754 15.7539L65.2637 15.7734L65.251 15.7939C65.15 15.9576 65.0447 16.1186 64.9385 16.2793C65.1794 16.5602 65.3848 16.8575 65.5547 17.1641L65.6602 17.3643L65.752 17.5566C65.9524 18.0003 66.0619 18.3993 66.125 18.6855L61.2891 19.751L61.6006 20.0879L66.2764 19.8887C66.282 20.0212 66.2842 20.1499 66.2842 20.2725C66.2841 21.0238 66.183 21.7436 66.0156 22.4199L62.4736 21.543L64.0273 23.1016C64.0731 23.0559 64.1143 23.0104 64.1533 22.9678C64.1915 22.9229 64.2235 22.8849 64.2471 22.8545L62.832 21.7578L64.3701 22.6816C64.3695 22.6827 64.3658 22.6886 64.3594 22.7002L64.3096 22.7881C64.3143 22.7823 64.3197 22.7772 64.3242 22.7715L64.3076 22.791L64.2773 22.8467L64.1855 22.9883C63.9483 23.3549 63.6975 23.7116 63.4316 24.0566L62.0039 22.9561L61.7129 22.1758C61.6269 22.2956 61.5405 22.4143 61.4512 22.5303L60.8672 22.0801C60.893 22.0201 60.918 21.9606 60.9414 21.9014C61.1677 21.8872 61.3773 21.8415 61.5625 21.7725L61.375 21.2715L61.1621 21.2188L61.1611 21.2178C61.2422 20.89 61.2841 20.5751 61.2842 20.2725C61.2842 19.9525 61.2525 19.7276 61.1885 19.5996C61.1708 19.5643 61.1475 19.5344 61.1201 19.5088L63.541 16.9258L61.7041 15.5156C61.634 15.666 61.5603 15.814 61.4834 15.96L61.3213 16.9482L61.3223 16.9492L60.9258 19.3584L60.998 19.4365C60.943 19.4174 60.8779 19.4082 60.8037 19.4082C60.6758 19.4084 60.5478 19.4886 60.4199 19.6484C60.3364 19.7321 60.2466 19.8502 60.1494 20.002L59.9727 20.041L60.083 20.1074C60.0519 20.1591 60.0207 20.2142 59.9883 20.2725C59.7702 20.6095 59.5384 20.9227 59.2988 21.2168C59.154 21.0594 59.0383 20.89 58.9521 20.7178C58.9433 20.7 58.9357 20.6821 58.9277 20.665L58.0869 20.457L57.4375 20.6006L57.2832 20.373C57.1452 20.4518 57.0048 20.5285 56.8613 20.6016L56.7314 20.3467C56.735 20.4034 56.7379 20.443 56.7412 20.4668C56.7455 20.4971 56.7475 20.4962 56.7402 20.4688L56.6582 20.4902L56.8652 20.7266L57.1592 21.0645L57.9746 22L58.0312 22.0654C58.1009 21.9597 58.1647 21.8574 58.2236 21.7588L58.1445 21.6426L58.6475 21.9375C58.2974 22.2851 57.9296 22.5956 57.54 22.8643C57.3249 23.0179 57.1053 23.1518 56.8828 23.2686L56.8457 23.1963L56.4492 22.4414L55.3467 21.501C55.4761 21.3493 55.5946 21.1912 55.708 21.0303L55.5762 20.7773L54.9648 20.9395L55.4277 23.7607C55.1759 23.802 54.9202 23.8242 54.6602 23.8242C53.9024 23.8242 53.2915 23.6396 52.8271 23.2715L52.1934 21.6748L51.9102 21.75C51.8423 21.4944 51.7909 21.2159 51.7607 20.9131L51.7324 20.5117C52.5339 20.1936 53.3013 19.8354 54.0371 19.4414L54.2119 20.4033H54.2295L54.6943 20.3828L54.8203 20.0586L54.8721 20.375L55.3535 20.3545L54.9824 19.6455L55.251 18.959C55.1653 18.9255 55.0867 18.8998 55.0166 18.8809C55.0688 18.8492 55.122 18.8192 55.1738 18.7871L56.2979 20.0762C56.2968 20.0828 56.2959 20.09 56.2949 20.0977L56.2842 20.2725L56.2852 20.3135L56.4961 20.3037L56.4971 20.3047L56.7051 20.2949L57.2158 20.2734L57.1895 20.2354L56.6006 20.0898L55.748 18.416C56.2333 18.0927 56.7042 17.7532 57.1562 17.3916C57.5377 17.0849 57.8982 16.7713 58.2412 16.4541L58.2432 16.4561L60.4844 18.8799L59.8164 17.0869L59.7129 16.8086L58.6768 16.0371C59.1985 15.5227 59.6723 14.9963 60.0957 14.4551C60.1609 14.4463 60.2267 14.439 60.293 14.4326L60.1816 14.3477L60.1807 14.3467C60.4771 13.9604 60.7494 13.5678 60.9961 13.168ZM46.6494 22.3789C46.6584 22.6869 46.6798 22.984 46.7109 23.2705L46.71 23.2715L41.7393 23.8125C41.6913 23.3715 41.6613 22.927 41.6494 22.4805C42.188 21.6534 42.6823 20.7577 43.1299 19.792C43.1624 19.7228 43.192 19.6524 43.2236 19.583L46.707 20.042L46.582 17.1758L46.9248 17.0391L47.0352 16.0195L44.6416 15.1494C44.8813 13.8987 45.002 12.6142 45.002 11.2959C45.002 10.9627 44.9916 10.643 44.9746 10.3369C45.0068 10.2798 45.0387 10.2219 45.0713 10.165L49.4092 12.6504C49.0773 13.2298 48.7637 13.8341 48.4678 14.4639C47.2518 17.0879 46.6445 19.6 46.6445 22L46.6494 22.3789ZM54.2725 21.4629C54.1656 21.4806 54.0582 21.4962 53.9502 21.5098L54.1172 21.8594L54.2725 21.4629ZM62.5928 21.5723L62.832 21.7578L62.4736 21.543L62.5928 21.5723ZM58.1445 21.6426L57.665 21.3604L57.8799 21.2529L58.1445 21.6426ZM57.8799 21.2529L57.665 21.3604L57.1592 21.0645L56.8652 20.7266L57.4375 20.6006L57.8799 21.2529ZM62.2627 21.3311C62.2653 21.3284 62.267 21.3249 62.2695 21.3223L62.2646 21.3184L62.2002 21.2676L62.2627 21.3311ZM54.3398 21.1055L54.3623 21.2314L54.4199 21.084L54.3398 21.1055ZM56.6006 20.0898L56.7051 20.2949L56.4961 20.3037L56.2979 20.0762C56.3024 20.0459 56.3065 20.026 56.3086 20.0176L56.6006 20.0898ZM60.1494 20.002C60.128 20.0355 60.1051 20.0706 60.083 20.1074L59.9727 20.041L60.1494 20.002ZM54.9824 19.6455L54.8203 20.0586L54.6621 19.0938C54.6699 19.0892 54.6777 19.0846 54.6855 19.0801L54.9824 19.6455ZM56.2441 9.56836C56.4807 9.56836 56.687 9.60579 56.8633 9.68066L56.7402 9.9707L56.9209 10.2178C56.963 10.1379 57.0029 10.0616 57.0381 9.9873L57.3916 10.1543C57.5537 10.4345 57.6357 10.8145 57.6357 11.2959C57.6357 11.6448 57.602 11.9847 57.5342 12.3154L56.9863 11.8945L56.2676 11.7988C56.2594 11.8069 56.2523 11.8161 56.2441 11.8242V11.8945L56.6445 12.9365L56.2441 12.5967L55.9697 12.3652C55.9047 12.4421 55.8346 12.5349 55.7588 12.6445L56.6875 13.0479L56.6445 12.9365L56.8701 13.127L57.2275 13.2822C57.1382 13.4879 57.0347 13.6899 56.916 13.8877C56.7986 14.0833 56.6727 14.2698 56.54 14.4482L55.5791 13.7334L55.2422 13.5889L55.2061 13.5742L54.9062 14.2812C55.4764 14.5239 55.9621 14.5684 56.2441 14.5684C56.3148 14.5684 56.3851 14.5632 56.4551 14.5576C56.0636 15.0613 55.6104 15.4957 55.0918 15.8564C54.3559 16.3363 53.6355 16.5762 52.9316 16.5762C52.516 16.5761 52.2124 16.5275 52.0205 16.4316C52.1011 15.6835 52.2189 14.9892 52.374 14.3486L52.7236 14.5488L52.8213 14.1543L52.7988 14.5918L52.9082 14.6543L52.9316 14.6084V14.1094L52.8398 14.083L52.8213 14.1543L52.8262 14.0732L52.877 13.0664L52.9678 13.5654L52.9316 13.7119V14.0762C52.9675 14.0762 53.0095 14.0724 53.0586 14.0635L53.0771 14.1699C53.0209 14.1445 52.9724 14.123 52.9316 14.1094V14.6084L53.0967 14.2764L53.1953 14.8193L53.7168 15.1172L53.1182 14.2354L53.1738 14.123C53.2704 14.0565 53.3654 13.9884 53.46 13.9199L53.3672 13.7373L53.4717 13.5273L53.1064 13.0029L53.0693 13.1533L52.8906 12.8018L52.8945 12.7207C53.0484 12.3479 53.22 12.0006 53.4092 11.6787L53.5557 11.4404C54.3557 10.1924 55.2521 9.56836 56.2441 9.56836ZM53.6074 15.3867L53.9404 15.4482L53.7393 15.1504C53.6948 15.2282 53.6513 15.3073 53.6074 15.3867ZM56.0488 14.083L56.54 14.4482C56.5171 14.479 56.4931 14.5088 56.4697 14.5391L56.0488 14.083ZM53.3672 13.7373L53.1738 14.123C53.1477 14.1411 53.122 14.1598 53.0957 14.1777C53.1091 14.184 53.1236 14.1892 53.1377 14.1963L53.1182 14.2354L53.0967 14.2764L53.0771 14.1699L53.0586 14.0635L52.9678 13.5654L53.0693 13.1533L53.3672 13.7373ZM52.8418 14.0732C52.8658 14.0742 52.8956 14.0762 52.9316 14.0762V13.7119L52.8418 14.0732ZM53.1406 12.8652L53.5156 13.4395L53.6494 13.1719L53.9668 13.5371C53.9883 13.5201 54.0108 13.5044 54.0322 13.4873C54.1458 13.3959 54.2549 13.303 54.3623 13.2119L53.1807 12.7051L53.1406 12.8652ZM53.7588 12.9531L53.6494 13.1719L53.2803 12.748L53.7588 12.9531ZM52.8906 12.8018L52.877 13.0664L52.8389 12.8604C52.8507 12.8302 52.8629 12.8003 52.875 12.7705L52.8906 12.8018ZM55.7871 12.21L55.835 12.251C55.9024 12.1775 55.9697 12.1046 56.0381 12.0332C55.9928 12.0206 55.9407 12.0043 55.8848 11.9805L55.7871 12.21ZM56.2441 11.8945V11.8242C56.2375 11.8309 56.2303 11.8371 56.2236 11.8438L56.2441 11.8945ZM59.2744 0.157227C59.619 0.168674 59.9694 0.198211 60.3232 0.249023L59.6123 5.19824C59.3973 5.16742 59.1694 5.15234 58.9316 5.15234C57.0118 5.15249 55.0917 6.04799 53.1719 7.83984C52.0603 8.87605 51.0606 10.0683 50.1709 11.415L48.3486 10.6348C48.6284 9.98225 48.9583 9.34706 49.3467 8.74121C49.5496 8.42473 49.7705 8.11155 50.0107 7.80664L49.8643 7.67969L47.9707 6.0459C48.5365 5.39017 49.1339 4.76876 49.7627 4.18262C50.31 3.67192 50.8796 3.19604 51.4727 2.7627L54.124 6.3916L53.6113 5.05859C54.4485 4.7362 55.3358 4.56836 56.2441 4.56836L56.5342 4.57422C56.7254 4.58202 56.9243 4.59682 57.1289 4.62305L56.6914 2.94336L56.0605 0.523438C56.9951 0.279686 57.9554 0.152386 58.9316 0.152344L59.2744 0.157227ZM63.5059 1.37891C64.0011 1.68236 64.4559 2.03939 64.8701 2.44043L64.8721 2.43945C64.903 2.46881 64.9335 2.4985 64.9639 2.52832C65.417 2.97309 65.8107 3.46823 66.1416 4.00684L61.8818 6.62402H61.8799C61.7819 6.46458 61.6704 6.31692 61.5439 6.18164L61.4277 6.06445C61.2653 5.90206 61.0869 5.7616 60.8926 5.64258L63.5059 1.37891Z" fill="white"/>
<path d="M20.4873 48.959C20.1495 49.0113 19.8124 49.0432 19.4775 49.0615L19.9209 51.9814C19.166 52.0961 18.4054 52.1523 17.6416 52.1523C17.0961 52.1523 16.5511 52.1239 16.0088 52.0645L16.5537 47.0947V47.0928C16.905 47.1313 17.2675 47.1523 17.6416 47.1523C18.5081 47.1523 19.3462 47.044 20.1572 46.833L20.4873 48.959ZM10.4424 43.0898C10.5418 43.2701 10.6521 43.4573 10.7773 43.6484C11.3853 44.6084 12.2819 45.4237 13.4658 46.0957C13.7769 46.2807 14.1026 46.4408 14.4424 46.5771L12.5801 51.2188C12.0346 50.9998 11.507 50.7402 10.998 50.4434C10.5921 50.213 10.196 49.9653 9.81348 49.6963L12.2998 46.1592C12.1874 46.0276 12.0799 45.8929 11.9766 45.7559C11.6629 45.3542 11.3946 44.9374 11.1641 44.5215L7.53711 47.6484C7.19524 47.2518 6.88119 46.8307 6.5957 46.3867C6.59081 46.3792 6.58594 46.3727 6.58105 46.3652C6.57206 46.3512 6.56265 46.3374 6.55371 46.3232C6.38219 46.0584 6.21739 45.7858 6.06348 45.5068L10.4414 43.0918L10.4424 43.0898ZM26.6816 45.1514C26.5204 45.3719 26.3464 45.5875 26.1641 45.8008L26.4268 46.082L28.1328 47.9092C27.5486 48.4548 26.9308 48.9585 26.2793 49.417L26.2617 49.4297L26.2441 49.4414C25.6285 49.8668 24.9862 50.2491 24.3184 50.583L22.083 46.1104L22.082 46.1094C22.5312 45.8849 22.9713 45.6252 23.4014 45.3281C23.9767 44.9232 24.5211 44.4621 25.0361 43.9473L26.6816 45.1514ZM28.6611 38.3535L33.2637 40.3076C32.9285 41.0971 32.5574 41.8637 32.1494 42.6045L32.1484 42.6035C31.8112 43.229 31.4517 43.8338 31.0664 44.415L27.498 42.0498L26.8262 41.7598C27.1574 41.2683 27.4725 40.7463 27.7695 40.1924C28.0927 39.6055 28.388 38.9914 28.6592 38.3525L28.6611 38.3535ZM19.0293 39.5547L19.376 39.8076L19.3701 39.8154L19.3799 39.8105L20.9199 40.9375C21.0497 40.8318 21.1792 40.7206 21.3066 40.6016L22.7119 42.1055C22.4736 42.4435 22.2244 42.7341 21.9619 42.9756C21.6288 43.2703 21.2639 43.5049 20.8691 43.6816L19.8477 41.6377C19.9379 41.5926 20.0277 41.5412 20.1201 41.4883L20.0176 41.3135L19.2773 40.0586L19.2227 39.998L19.1182 40.1279L19.7207 44.0166C19.4544 44.0578 19.1775 44.0801 18.8896 44.0801V40.54L18.6484 40.7207L18.6504 40.7109L17.4961 42.1475C17.5433 42.1487 17.5917 42.1523 17.6416 42.1523C17.9098 42.1523 18.1618 42.1319 18.4004 42.0967L18.6484 40.7207L18.8896 40.54V44.0801L18.6533 44.0752C17.9945 44.0455 17.4223 43.8873 16.9346 43.6055L17.0312 42.7266L16.54 43.3379C16.3273 43.1669 16.1345 42.9664 15.9619 42.7363C15.7333 42.4558 15.522 42.1038 15.3271 41.6816L15.5059 41.5996L15.5654 41.5156C15.5814 41.5269 15.5984 41.5374 15.6152 41.5488L18.7607 40.0967L18.8516 39.5947L18.5762 39.2959C18.5431 39.3264 18.558 39.3197 18.6104 39.248L18.7598 39.3574L18.8711 39.4834L18.8789 39.4443L18.9434 39.4912L18.8877 39.3965L18.9434 39.0889L18.8896 39.0801L18.9561 39.0771L19.0293 39.5547ZM9.91602 40.7217C9.88268 40.893 9.86523 41.0684 9.86523 41.248C9.86524 41.4508 9.89582 41.6646 9.95117 41.8906L9.94824 41.8916L7.52051 42.4863L7.51953 42.4854L5.0918 43.0811C4.97191 42.5915 4.88912 42.0583 4.87012 41.4922L4.86523 41.248L4.87402 40.8799C4.89135 40.5104 4.93565 40.1387 5.00781 39.7676L9.91602 40.7217ZM15.1123 41.1201L15.0977 41.1318C15.0901 41.1119 15.0836 41.0915 15.0762 41.0713C15.088 41.0863 15.0986 41.1042 15.1123 41.1201ZM7.46289 35.3916L10.8174 38.7383L11.2881 38.6562C11.0557 38.8602 10.8374 39.0838 10.6338 39.3281C10.5124 39.4647 10.4061 39.6053 10.3135 39.749L10.3125 39.748L9.7959 39.415L9.5498 39.5127C9.57983 39.5893 9.62455 39.6967 9.6875 39.8242C9.74907 39.949 9.84356 40.1242 9.97754 40.3252C9.98823 40.3412 9.99975 40.357 10.0107 40.373C10.0096 40.3763 10.0089 40.3796 10.0078 40.3828L9.69727 40.4541C9.60328 40.0439 9.51881 39.6207 9.44043 39.1865L8.21094 38.3945L6.10938 37.04C6.35036 36.666 6.61584 36.3216 6.89648 36.0059L6.89746 36.0068C7.07833 35.7959 7.26552 35.5895 7.46289 35.3916ZM24.79 36.71C24.5527 37.7443 24.2988 38.6491 24.0254 39.4238C23.9049 39.7651 23.7767 40.0856 23.6465 40.3877L21.3535 39.4004L19.0576 38.4102C19.073 38.3746 19.087 38.3373 19.1025 38.2998L14.7549 39.2959L14.5742 39.3369C14.4876 38.959 14.4046 38.5564 14.3301 38.1279C14.3183 38.0751 14.3047 38.0259 14.293 37.9795H14.2949L19.1416 36.7529L19.2109 37.043L19.2354 37.1572L19.2559 37.2715C19.2812 37.4169 19.307 37.5562 19.333 37.6895C19.4479 37.3574 19.5695 36.9665 19.6914 36.5098L23.5215 37.5322C23.7103 37.1728 23.8905 36.7963 24.0586 36.4004L24.79 36.71ZM19.0898 39.9443L19.1484 39.918L19.0732 39.8359L19.0898 39.9443ZM19.8291 39.584L19.7725 39.6289L19.3799 39.8105L19.376 39.8076L19.6719 39.4404C19.7317 39.4885 19.7836 39.5376 19.8291 39.584ZM19.8965 39.6494L19.9014 39.6553L19.958 39.7314C19.9444 39.7134 19.9275 39.6962 19.9111 39.6768C19.9128 39.6798 19.9139 39.6813 19.9141 39.6816C19.9138 39.6813 19.912 39.6791 19.9092 39.6748C19.8885 39.6503 19.8679 39.6229 19.8428 39.5967L19.8662 39.5869C19.8784 39.6133 19.8886 39.634 19.8965 39.6494ZM19.0498 39.6855L19.0723 39.7109L19.0469 39.668L19.0498 39.6855ZM19.8291 39.584C19.8335 39.5885 19.8385 39.5922 19.8428 39.5967L19.7725 39.6289L19.8291 39.584ZM18.8877 39.3965L18.8789 39.4443L18.7598 39.3574L18.6484 39.2314C18.6686 39.2136 18.7022 39.1872 18.748 39.1602L18.8877 39.3965ZM10.5176 33.2393L12.6777 37.748C12.5615 37.8038 12.4397 37.8661 12.3135 37.9355C12.1525 38.0241 11.9966 38.1199 11.8457 38.2227L9.03223 34.0898C9.31461 33.8976 9.60575 33.7189 9.9043 33.5547C10.103 33.4454 10.3081 33.3397 10.5176 33.2393ZM17.416 33.7607C17.7732 34.0801 18.0642 34.4278 18.2979 34.7783C18.593 35.221 18.7673 35.6268 18.8604 35.8643L14.2051 37.6885H14.2031C14.1808 37.6315 14.1601 37.5853 14.1377 37.5518C14.1214 37.5273 14.1025 37.5065 14.082 37.4883L17.416 33.7607ZM14.0947 32.4131C14.3457 32.4243 14.6148 32.4535 14.8965 32.5088L13.9336 37.416C13.9076 37.411 13.879 37.4082 13.8496 37.4082C13.7274 37.4082 13.5925 37.4272 13.4443 37.4629L12.2744 32.6006C12.7159 32.4944 13.2509 32.4082 13.8496 32.4082L14.0947 32.4131ZM36.2236 29.4707C36.1317 29.4943 36.0394 29.5148 35.9473 29.5352L35.8408 30.1064L34.9023 29.9307L35.0508 30.5488L35.6807 33.1572C35.5384 33.1916 35.3953 33.222 35.252 33.251L35.2285 33.3818C35.1025 34.1398 34.9548 34.8847 34.7832 35.6143L30.2979 34.5576C30.2539 34.8256 30.2099 35.0894 30.1641 35.3486L29.7139 35.2686C29.9537 34.374 30.1544 33.4392 30.3135 32.4639L31.1299 28.0957C31.8338 28.3517 32.458 28.4805 33.002 28.4805C33.9286 28.4804 34.8629 28.268 35.8066 27.8486L36.2236 29.4707ZM27.585 19.5518L25.5137 32.7998C25.4263 33.3842 25.3327 33.9429 25.2383 34.4766L25.1416 34.46L22.7793 34.043L20.3174 33.6074C20.4034 33.1212 20.487 32.6059 20.5684 32.0615L20.5713 32.0439L20.5732 32.0273L21.3652 26.9639L26.1152 27.7061L26.2148 27.1777L26.3643 26.377L26.2715 26.3125L26.7803 22.7568L27.0332 22.793L27.2207 21.791L26.9238 21.749L26.9961 21.2451C27.0766 20.6577 27.1775 20.0733 27.2998 19.4922L27.585 19.5518ZM30.9551 30.3574L30.7891 31.4219L32.127 31.6719L32.3975 29.4629L31.2842 29.2549L30.9551 30.3574ZM42.082 24.7959C41.8282 25.2091 41.5518 25.6085 41.2549 25.9941L43.5889 28.1279C42.9978 28.7742 42.3699 29.3798 41.7061 29.9424L41.7002 29.9473C41.1627 30.4014 40.6065 30.8238 40.0303 31.207L37.2607 27.0439L37.2598 27.042C37.5473 26.8508 37.8369 26.6425 38.126 26.4131L38.4736 26.1279C39.2478 25.4719 39.9639 24.7286 40.625 23.9004L42.082 24.7959ZM33.8779 19.7568C33.833 19.7641 33.7857 19.7718 33.7373 19.7842L33.9609 20.6553L34.0752 20.4902L34.1582 19.9297L34.3359 20.0381L34.1992 20.3125L34.374 20.0615L36.6514 21.46L37.0859 21.5518C37.075 21.6037 37.066 21.656 37.0557 21.708L37.5703 22.0244L37.8203 22.1777C37.6054 22.5276 37.3762 22.8532 37.1299 23.1523C36.5998 23.8003 36.0145 24.2477 35.376 24.498L34.9307 24.4346L34.9795 24.626C34.6979 24.6982 34.4068 24.7363 34.1055 24.7363L33.7734 24.7236C33.5063 24.7041 33.2474 24.658 32.9951 24.5908L33.0469 24.166L32.8115 24.1318L32.7012 24.501C32.3374 24.3742 31.9885 24.1982 31.6572 23.9678L31.793 23.0166L32.2119 23.1689L32.6328 22.5645L31.874 22.4561L31.873 22.4551L31.9453 21.9521C32.0103 21.473 32.0924 20.9956 32.1924 20.5205L32.1934 20.5215L33.8164 20.8623L33.875 20.7793L33.2197 20.0332C33.205 20.0461 33.2197 20.0343 33.2598 19.9854L33.2695 19.9736C33.3609 19.8627 33.4592 19.7274 33.5605 19.5625L33.8779 19.7568ZM43.9512 17.7598L46.9912 18.7949C46.7598 19.8846 46.6445 20.953 46.6445 22C46.6445 22.5952 46.6843 23.1524 46.7627 23.6719C46.693 23.7976 46.6242 23.9238 46.5527 24.0479L42.2197 21.5518L42.2178 21.5508C42.5395 20.9923 42.845 20.4067 43.1299 19.792C43.4431 19.1255 43.7156 18.4474 43.9502 17.7588L43.9512 17.7598ZM34.7939 23.9014L35.21 23.9609L34.5576 22.9785L34.7939 23.9014ZM32.6924 23.3447L32.8379 23.3975C32.9079 23.4229 32.9666 23.442 33.0137 23.4561L33.0059 23.4795C33.094 23.4792 33.201 23.4686 33.334 23.4365L33.3975 23.7021L33.5967 23.7305L33.7461 22.7227L33.0508 22.624L32.6924 23.3447ZM33.0059 23.4795L32.958 23.6387L33.1094 23.6602L33.1309 23.4863C33.1136 23.4842 33.0707 23.4797 33.0059 23.4795ZM34.5254 22.8564C34.534 22.8506 34.5421 22.8438 34.5508 22.8379L34.5195 22.834L34.5254 22.8564ZM33.916 20.8838L33.9775 20.8965L33.9336 20.8467L33.916 20.8838ZM33.9834 20.7461L34.0186 20.8799L34.0605 20.5918L33.9834 20.7461ZM34.5127 19.8633L34.374 20.0615L34.3359 20.0381L34.4434 19.8232C34.4777 19.8403 34.501 19.8551 34.5127 19.8633ZM38.8096 10.0957C39.2256 10.0957 39.5138 10.3523 39.6738 10.8643C39.737 11.0539 39.787 11.2861 39.8252 11.5605C39.7993 11.5873 39.7731 11.6142 39.7471 11.6416L39.5537 11.458L39.1875 11.5186L38.8096 11.5801V11.8623L39.1621 12.5752L39.9033 12.5508C39.9094 12.7301 39.9141 12.92 39.9141 13.1201L39.9023 13.8818C39.8954 14.114 39.8834 14.3444 39.8701 14.5732L39.3184 14.542L39.7988 14.9561C39.8141 14.9516 39.829 14.9469 39.8438 14.9424C39.8332 15.0862 39.8247 15.2296 39.8115 15.3721C39.7155 15.494 39.6167 15.6273 39.5156 15.7725L38.5264 15.083C38.624 15.0899 38.7184 15.0957 38.8096 15.0957C39.2039 15.0957 39.5331 15.0325 39.7871 14.959L39.3037 14.541L37.7207 14.4492C37.7108 14.4665 37.7003 14.4836 37.6904 14.501L37.6064 14.4424L37.4316 14.4326L37.2861 14.8037C37.3509 14.8292 37.4155 14.8524 37.4795 14.874L36.6045 16.4395L38.127 17.1953L38.7617 17.3164C38.9316 16.9297 39.0839 16.5404 39.2178 16.1475L39.7021 16.3125C39.5828 17.1955 39.4152 18.0516 39.1934 18.8799C39.085 19.2772 38.9635 19.6565 38.834 20.0195L34.1279 18.3398C34.1482 18.2829 34.1656 18.2237 34.1855 18.1641L32.9902 17.7314C33.1537 17.2804 33.3331 16.831 33.5293 16.3838C34.3293 14.5278 35.2258 13.0241 36.2178 11.8721C36.4055 11.655 36.5896 11.4595 36.7666 11.2822L37.084 11.5996L37.292 11.625L37.2871 11.6094L38.0479 11.3721L38.459 11.1543L38.0371 10.3018C38.3132 10.1651 38.5704 10.0957 38.8096 10.0957ZM34.1865 19.7432L34.1582 19.9297L33.8779 19.7568C33.9619 19.7432 34.0387 19.7363 34.1055 19.7363L34.1865 19.7432ZM28.3936 9.71191C28.4952 9.71191 28.581 9.74072 28.6504 9.79883L28.3936 10.1055V10.3535L28.8564 10.2988C28.8664 10.3824 28.874 10.4748 28.874 10.5762L28.8613 10.9873C28.8373 11.4252 28.7776 11.9441 28.6816 12.5439L27.8887 17.6074L26.582 17.4033L26.917 18.3262C26.3301 18.5387 25.7097 18.6484 25.082 18.6484C24.2148 18.6484 23.1568 18.4455 22.1416 17.8018L23.0127 16.4277L23.5078 13.2627L23.0342 13.332C23.1008 12.7755 23.1354 12.2238 23.1406 11.6768L23.5039 11.7588L23.1416 11.4385C23.1415 11.4225 23.1418 11.4065 23.1416 11.3906L23.7139 11.8066L23.7344 11.8115L23.7412 11.7715L23.7432 11.7627L23.7441 11.7539C23.7479 11.7302 23.7503 11.7067 23.7539 11.6836L23.1406 11.3389C23.1362 11.0141 23.1224 10.7012 23.0957 10.4004L23.8877 10.8291C23.8895 10.8475 23.8912 10.8668 23.8936 10.8867L23.9766 10.876L24.2773 11.0391L24.5889 11.207C24.5125 11.2254 24.4371 11.2477 24.3633 11.2744L24.4316 11.4639L24.7939 11.5137C24.6344 11.9967 24.5537 12.436 24.5537 12.832C24.5537 13.376 24.73 13.6484 25.082 13.6484C25.2418 13.6483 25.3858 13.552 25.5137 13.3604C25.6736 13.1685 25.8174 12.9443 25.9453 12.6885C26.1254 12.3389 26.297 12.0232 26.4561 11.7402L26.9619 11.8096L27.2158 11.8447C27.5237 12.0543 27.8537 12.159 28.1533 12.1953L28.1816 11.9766L28.2822 11.9902L28.3936 12.0049V11.9189L28.2041 11.7979L28.1855 11.9424L28.2822 11.9902L28.1816 11.9766L27.2158 11.8447L26.9619 11.8096L27.2412 11.4775L26.748 11.2344C26.9485 10.9037 27.1295 10.6359 27.29 10.4316C27.4433 10.2401 27.594 10.0867 27.7422 9.97168L28.2207 10.3105L28.2598 10.2637L28.3018 10.3643L28.3936 10.3535V10.1055L28.2598 10.2637L28.0625 9.7832C28.1747 9.73709 28.2845 9.71192 28.3936 9.71191ZM32.8291 18.3809L32.7705 18.3711C32.8058 18.263 32.8437 18.1557 32.8809 18.0479L32.8291 18.3809ZM38.5264 15.083C38.2041 15.0603 37.8492 14.9992 37.4795 14.874L37.6064 14.6475C37.634 14.5981 37.6628 14.5495 37.6904 14.501L38.5264 15.083ZM45.002 11.2959C45.002 10.8777 44.9866 10.481 44.96 10.1055H44.9619L49.9492 9.75098C49.9851 10.2565 50.002 10.7722 50.002 11.2959C50.002 11.4243 49.9979 11.5526 49.9961 11.6807C49.5505 12.3768 49.1352 13.114 48.7471 13.8906L44.9082 13.4873C44.9027 13.9492 44.8898 14.4082 44.8633 14.8643L44.6943 14.8535C44.8663 13.8755 44.9675 12.8774 44.9941 11.8584L45.002 11.2959ZM25.4355 13.6289C25.5947 13.7625 25.7586 13.8812 25.9248 13.9873L25.9365 13.915L25.5107 13.5381L25.4355 13.6289ZM25.7334 13.2725L26.0059 13.4697L26.0801 12.9941L26.0039 12.9512L25.7334 13.2725ZM27.5361 12.6699L28.0771 12.792L28.1035 12.5869L27.5361 12.6699ZM38.1475 12.6104L38.1816 12.6084L38.7109 12.5908C38.7454 12.5931 38.7782 12.5957 38.8096 12.5957V12.5879L38.1816 12.6084C38.187 12.5665 38.192 12.5248 38.1973 12.4834L38.1475 12.6104ZM38.8096 12.5879V12.5957C38.878 12.5957 38.9367 12.5886 38.9854 12.5811L38.8096 12.5879ZM38.0078 11.7119L38.291 11.7471C38.2623 11.9824 38.2297 12.2277 38.1973 12.4834L38.21 12.4541L38.5342 11.625L38.0078 11.7119ZM41.8027 0.15625C42.4039 0.175114 43.02 0.261096 43.6377 0.431641L42.3076 5.25098C42.0685 5.18499 41.8139 5.15237 41.5459 5.15234C40.2659 5.15234 38.8573 5.79227 37.3213 7.07227C36.6081 7.6641 35.9277 8.36062 35.2793 9.16113L34.5791 9.09766L34.9951 9.51367L34.998 9.51562C34.3823 10.3161 33.7968 11.2138 33.2412 12.208H33.1934C33.4454 10.2479 33.5877 8.91262 33.6191 8.20215L33.626 7.93555C33.626 7.74316 33.6142 7.5614 33.5977 7.38965H33.6006L35.1123 7.24414L33.8877 6.08105L33.3398 6.33301L33.3369 6.33398C33.257 6.15952 33.1633 6.00456 33.0498 5.87207C32.9525 5.7504 32.8453 5.64454 32.7295 5.55371L32.9863 5.22656L32.4932 4.75781C33.009 4.21423 33.5514 3.70375 34.1211 3.23047L34.4443 2.96777C34.6987 2.76503 34.9577 2.57025 35.2207 2.38379L35.8193 1.62207C36.2063 1.92599 36.5456 2.26318 36.8438 2.61816H36.8457C36.8826 2.66118 36.9187 2.70455 36.9541 2.74805C37.347 3.23025 37.6519 3.74053 37.8857 4.25098L37.0771 4.62109L37.4961 5.2334C37.9043 5.14772 38.3435 5.09571 38.8096 5.0957C39.3034 5.0957 39.8326 5.15782 40.374 5.30762L39.0361 0.50293C39.8304 0.281535 40.6718 0.152344 41.5459 0.152344L41.8027 0.15625ZM28.3936 12.0049L28.5635 12.0283L28.3936 11.9189V12.0049ZM38.6807 11.6016L38.8096 11.8623V11.5801L38.6807 11.6016ZM37.2871 11.6094C37.2882 11.6127 37.2914 11.6179 37.2939 11.625L37.5176 11.6523L38.0479 11.3721L37.2871 11.6094ZM38.5342 11.625L38.6807 11.6016L38.6045 11.4482L38.5342 11.625ZM27.2412 11.4775L27.4639 11.5869C27.4957 11.5223 27.5296 11.456 27.5654 11.3877L27.4033 11.2842L27.2412 11.4775ZM23.8271 9.79688L25.2217 10.4834C25.1785 10.5711 25.1386 10.6577 25.0996 10.7432L24.6191 10.7998L25.0615 10.8281C24.9821 11.0071 24.9123 11.1809 24.8516 11.3496L24.2773 11.0391L24.208 10.8486L23.9766 10.876L23.8877 10.8291C23.885 10.8021 23.8836 10.7766 23.8818 10.7529L24.1807 10.7725L23.8271 9.79688ZM28.7012 11.3389L28.583 11.0527L28.3965 11.041L28.7012 11.3389ZM38.7881 10.9805L38.8096 10.9688V10.9277L38.7881 10.9805ZM38.8096 10.9277V10.9688L38.9561 10.8916L38.8594 10.7998L38.8096 10.9277ZM23.874 10.5762L23.877 10.6982C23.8779 10.7153 23.8804 10.7335 23.8818 10.7529H23.8672L23.874 10.5762ZM23.6084 7.04199C23.7133 6.92097 23.824 6.79858 23.9424 6.67773L25.7275 8.42676L26.0723 8.76367L26.0713 8.7627L26.1641 8.85352L26.165 8.85449L26.1855 8.86914C25.9828 9.15531 25.7908 9.45222 25.6094 9.75977C25.4652 10.0088 25.3363 10.2505 25.2217 10.4834L25.082 10.4141L22.9492 9.36523C22.7507 8.35619 22.4011 7.51142 21.8965 6.83203C21.8321 6.74529 21.7638 6.66303 21.6953 6.58301C21.8277 6.37852 21.9657 6.17717 22.1064 5.97852L23.6084 7.04199ZM28.1621 10.3809L28.1816 10.3789C28.1965 10.3576 28.2106 10.3356 28.2256 10.3145L28.2207 10.3105L28.1621 10.3809ZM28.2969 10.3652L28.3037 10.3691L28.3018 10.3643L28.2969 10.3652ZM26.0723 8.76367C26.1257 8.7759 26.18 8.7872 26.2344 8.80176C26.2182 8.82427 26.2016 8.8465 26.1855 8.86914L26.165 8.85449L26.0723 8.76367ZM47.3066 2.72168C47.6854 3.14274 48.0051 3.58867 48.2793 4.03809H48.2812C48.7175 4.7361 49.0417 5.46593 49.2822 6.18848L44.5381 7.76758C44.4025 7.36042 44.237 7.00056 44.042 6.68848C43.9028 6.45413 43.7505 6.24712 43.5879 6.06641L43.5898 6.06543L47.3066 2.72168ZM31.7969 0.15918C32.1316 0.173557 32.4769 0.210816 32.8291 0.276367L32.3711 2.73242L32.3721 2.7334L31.9141 5.19141L31.9131 5.19238C31.7718 5.16616 31.6228 5.15235 31.4658 5.15234C30.4738 5.15234 29.4337 5.61599 28.3457 6.54395C27.9332 6.88366 27.5455 7.24836 27.1836 7.63867L26.6465 6.3291L25.9727 5.64551L25.8027 5.47266L24.0488 3.69238C24.3886 3.35769 24.7425 3.03831 25.1094 2.7334C25.4607 2.43422 25.8286 2.14879 26.2148 1.88477L28.1514 4.71777C28.2314 4.71442 28.3121 4.71192 28.3936 4.71191C29.0926 4.71191 29.8474 4.84692 30.5781 5.16797L29.9736 2.84668L29.3447 0.426758C30.0217 0.25065 30.7322 0.152344 31.4658 0.152344L31.7969 0.15918Z" fill="white"/>
<path d="M15.4072 28.9902C14.7054 29.2 13.9829 29.3037 13.2559 29.3037C13.013 29.3037 12.7722 29.2912 12.5342 29.2666L12.8896 30.708L13.4863 33.1357C12.5634 33.3627 11.6198 33.4805 10.6641 33.4805C10.0267 33.4805 9.37776 33.4259 8.72656 33.3027L9.65527 28.3896V28.3877C9.97389 28.448 10.31 28.4805 10.6641 28.4805C12.0772 28.4805 13.4728 28.0316 14.8535 27.1387L15.4072 28.9902ZM6.47363 25.7588C6.65092 26.1616 6.86318 26.5247 7.1123 26.8477C7.32954 27.1212 7.56751 27.3597 7.8252 27.5645L4.71484 31.4805C4.14108 31.0246 3.63609 30.5109 3.19629 29.957L3.15332 29.9023C2.6387 29.2352 2.22395 28.5182 1.89648 27.7744L6.47266 25.7598L6.47363 25.7588ZM20.6357 24.4932C20.3572 24.9845 20.0451 25.4609 19.6982 25.917L21.709 27.6943C21.1293 28.3499 20.5154 28.9701 19.8682 29.5537L19.8672 29.5527C19.314 30.0577 18.738 30.5286 18.1367 30.9551L15.2441 26.876L15.2432 26.874C15.6697 26.5715 16.0961 26.228 16.5195 25.8398C17.327 25.1118 18.0704 24.3061 18.752 23.4248L20.6357 24.4932ZM5.82129 22.4326C5.82941 22.7361 5.84835 23.0287 5.87598 23.3105L5.875 23.3115L0.898438 23.7998C0.841801 23.2225 0.816406 22.6373 0.816406 22.0479C0.816413 21.1589 0.87305 20.2713 0.986328 19.3867L5.94629 20.0215C5.85964 20.698 5.81641 21.3735 5.81641 22.0479L5.82129 22.4326ZM22.041 17.3789L24.3887 18.2393L26.7354 19.1006C26.4652 19.8371 26.1579 20.569 25.8174 21.2969C25.4678 22.0605 25.0901 22.8019 24.6816 23.5186L20.8271 21.3213L20.2812 21.1396C20.6347 20.5268 20.9658 19.8856 21.2725 19.2158C21.5626 18.5983 21.8164 17.985 22.0391 17.3779L22.041 17.3789ZM13.4717 21.8457C13.495 21.8537 13.5196 21.8627 13.5449 21.874C13.6787 21.9339 13.7658 22.0113 13.8066 22.0576L13.4336 22.3857L13.2598 21.8037L13.2559 21.79V22.0488C13.276 22.0303 13.2954 22.0109 13.3154 21.9922L13.4336 22.3857L13.8574 22.0127L13.5898 21.7295C13.5504 21.7683 13.5115 21.8075 13.4717 21.8457ZM14.7979 21.1836L13.8379 20.6387L15.6025 20.4727L14.7979 21.1836ZM5.95215 19.4082C5.95215 18.8731 5.96661 18.3432 5.99707 17.8193L6.37598 17.8408C6.19058 18.5416 6.05108 19.241 5.95801 19.9395C5.95418 19.7634 5.95215 19.5863 5.95215 19.4082ZM15.8965 9.32812C16.0777 9.32816 16.2474 9.34889 16.4053 9.3916L16.2168 10.0879L16.5293 10.5391L17.25 9.95117C17.3526 10.0768 17.4465 10.2201 17.5283 10.3838C17.6428 10.6128 17.7352 10.8901 17.8125 11.2139L15.8965 11.6709V11.8174L15.8984 11.8271L15.8994 11.8281L16.1279 12.5977L15.6748 12.0889L15.7803 11.6992L15.6836 11.7217C15.622 11.7778 15.5609 11.8349 15.5 11.8926L15.6748 12.0889L15.5693 12.4785L16.2334 13.0449L16.2607 13.0439L16.1279 12.5977L16.5146 13.0312L18.0332 12.959C18.0465 13.2358 18.0557 13.5293 18.0557 13.8398C18.0557 14.2877 18.042 14.7275 18.0186 15.1592L16.5371 15.0791L16.6221 15.1123C16.552 15.2939 16.4813 15.4953 16.4111 15.7168C16.3383 15.971 16.273 16.2393 16.2158 16.5225L12.5615 15.7852C12.4448 15.9983 12.3294 16.2168 12.2168 16.4414C11.9859 16.9167 11.7869 17.382 11.6172 17.8369L11.0264 17.6162C11.1248 16.4218 11.3223 15.3071 11.624 14.2725C11.729 13.9365 11.8408 13.6163 11.958 13.3125L13.0547 13.7354C13.0534 13.5375 13.0497 13.3586 13.042 13.1982L15.3867 13.085L14.2695 12.3838L13.3789 13.1123C13.2207 12.9185 13.1181 12.7451 13.0557 12.6201C13.0036 12.5161 12.9751 12.4393 12.9619 12.4014C12.9486 12.3631 12.9469 12.3521 12.9521 12.374L13.8955 12.1484L12.8516 11.4932C13.0405 11.1925 13.2386 10.918 13.4482 10.6719C14.2162 9.776 15.0325 9.32812 15.8965 9.32812ZM17.9688 15.8848C17.9189 16.4588 17.846 17.0174 17.7529 17.5615L16.7471 17.0898C16.9785 16.5974 17.178 16.1199 17.3477 15.6572L17.9688 15.8848ZM7.27637 11.5537C7.28159 11.5401 7.28674 11.5263 7.29199 11.5127L8.91016 12.1367C8.49434 12.7965 8.10234 13.4917 7.73633 14.2236C7.43255 14.8464 7.16528 15.4689 6.93359 16.0898L2.24805 14.3418C2.53854 13.5632 2.87096 12.7933 3.24219 12.0322L3.25293 12.0098L3.26367 11.9883C3.63433 11.247 4.03078 10.5286 4.45312 9.83496L7.27637 11.5537ZM22.6475 15.4111C22.9371 14.254 23.1015 13.117 23.1367 11.999L23.1436 11.5361C23.1436 11.1034 23.1233 10.6913 23.085 10.2998H23.0869L25.4375 10.0693C24.8491 11.1509 24.5537 12.0714 24.5537 12.832C24.5537 13.376 24.73 13.6484 25.082 13.6484C25.2418 13.6483 25.3858 13.552 25.5137 13.3604C25.6736 13.1685 25.8174 12.9443 25.9453 12.6885C26.4893 11.6325 26.938 10.8796 27.29 10.4316C27.5245 10.1386 27.7531 9.93533 27.9756 9.82129L28.0625 9.81348C28.1181 10.3817 28.1436 10.9569 28.1436 11.5361C28.1435 12.4165 28.0848 13.2974 27.9688 14.1768L23.0518 13.5273C23.053 13.631 23.0557 13.7351 23.0557 13.8398C23.0557 14.3752 23.0422 14.9062 23.0137 15.4316L22.6475 15.4111ZM15.4023 13.0957L15.0986 14.2188C15.2598 14.2624 15.411 14.289 15.5488 14.3057C15.552 14.1519 15.5557 13.9965 15.5557 13.8398C15.5557 13.6054 15.5501 13.3869 15.542 13.1836L15.4023 13.0957ZM15.4053 13.085L16.2178 13.0459L15.5664 12.4873L15.4053 13.085ZM15.8027 11.6143L15.7803 11.6992L15.8555 11.6807L15.8965 11.8174V11.6709L15.8555 11.6807L15.8281 11.5918C15.8197 11.5993 15.8112 11.6067 15.8027 11.6143ZM13.9023 6.75L13.9033 6.75098C13.4828 7.04254 13.0582 7.37276 12.6318 7.74414L12.2695 8.06738C11.6289 8.65508 11.0248 9.29543 10.4561 9.9873L8.61621 8.83203C8.87835 8.41481 9.16786 8.00879 9.48535 7.61914L7.48926 5.78125C8.07731 5.14259 8.69686 4.5394 9.34766 3.97363L9.76465 3.62012C10.1841 3.2732 10.6132 2.94542 11.0527 2.64062L13.9023 6.75ZM24.4209 2.26465C24.8477 2.6227 25.2321 3.01343 25.5771 3.42773L25.9102 3.85059L26.0869 4.09766C26.4913 4.67846 26.8268 5.29144 27.0996 5.92383L22.5078 7.9043H22.5059C22.336 7.5106 22.1345 7.15242 21.8965 6.83203C21.6879 6.55118 21.4579 6.30515 21.207 6.09473L21.2998 5.98535L24.4209 2.26465ZM18.3916 0.152344C19.0369 0.152344 19.696 0.208473 20.3574 0.337891L19.3975 5.24512C19.1652 5.19972 18.9221 5.17027 18.6699 5.1582L18.3916 5.15234C17.0622 5.15243 15.7008 5.59675 14.3057 6.4834L13.7568 4.64062C14.4483 4.4345 15.1667 4.32812 15.8965 4.32812L16.335 4.3418C16.4021 4.34589 16.4692 4.35425 16.5371 4.36035L16.1689 2.94043L15.542 0.520508C16.4668 0.28086 17.4199 0.152379 18.3916 0.152344ZM13.4658 20.084C13.4711 20.2076 13.4782 20.326 13.4863 20.4395L13.8379 20.6387L12.9443 20.7236L13.7432 21.3564C13.8658 21.1933 13.9904 21.0082 14.1113 20.7949L14.7979 21.1836L16.2832 22.0254C16.1017 22.3456 15.9109 22.6424 15.7041 22.9121C14.9681 23.8401 14.1519 24.3037 13.2559 24.3037C12.7214 24.3037 12.2801 24.1062 11.9316 23.7109L12.5889 23.1309L12.3525 22.7979C12.5934 22.627 12.857 22.4151 13.1416 22.1543L13.1562 22.1406L13.1719 22.127C13.2002 22.1014 13.2277 22.0746 13.2559 22.0488V21.79L13.0732 21.1807L13.498 21.6309C13.5616 21.5709 13.6348 21.4917 13.7178 21.3896L12.9629 20.8105L13.0732 21.1807L12.667 20.749L11.2861 20.8799L11.0186 20.9043C10.9919 20.6208 10.9709 20.3199 10.9609 20.001L10.9521 19.4082C10.9521 18.9656 10.9656 18.5326 10.9902 18.1094L12.4854 18.1963C12.5214 18.0751 12.5579 17.9475 12.5928 17.8135C12.6703 17.5154 12.7387 17.205 12.7979 16.8818L16.5215 17.5635C16.5902 17.4227 16.659 17.2802 16.7256 17.1348L16.7471 17.0898L17.7529 17.5615C17.6646 18.0784 17.559 18.5824 17.4316 19.0723C17.3396 19.4264 17.2376 19.7641 17.1299 20.0869L16.9297 20.0205L15.958 19.6953C15.9637 19.9845 15.9747 20.2304 15.9941 20.4365L15.6025 20.4727L15.6816 20.4043C15.4258 20.1142 15.0546 19.8102 14.5664 19.5918C14.1645 19.412 13.7792 19.3356 13.4531 19.3135C13.453 19.3449 13.4521 19.3766 13.4521 19.4082L13.4658 20.084Z" fill="white"/>
</svg>
